<svg width="20" height="20" viewBox="0 0 20 20" fill="none" xmlns="http://www.w3.org/2000/svg">
<path d="M9.02283 12.7082C9.02283 12.1682 9.46281 11.7282 10.0028 11.7282C10.5428 11.7282 10.9828 12.1682 10.9828 12.7082H13.3728C13.3728 12.6982 13.3728 12.6982 13.3728 12.6882C13.3628 10.8282 11.8428 9.31817 9.98285 9.32817C8.12285 9.33817 6.63281 10.8482 6.63281 12.6982H9.02283V12.7082Z" fill="black"/>
<path d="M18.27 1C18.67 1 19 1.33001 19 1.73001V18.27C19 18.67 18.67 19 18.27 19H1.73004C1.33004 19 1 18.67 1 18.27V1.73001C1 1.33001 1.33004 1 1.73004 1H18.27ZM18.27 0H1.73004C0.780042 0 0 0.770011 0 1.73001V18.27C0 19.23 0.770042 20 1.73004 20H18.27C19.22 20 20 19.23 20 18.27V1.73001C19.99 0.770011 19.22 0 18.27 0Z" fill="black"/>
<path d="M9.98627 2.14844C8.14627 2.14844 6.65625 3.63845 6.65625 5.47845C6.65625 7.31845 8.14627 8.80844 9.98627 8.80844C11.8263 8.80844 13.3162 7.31845 13.3162 5.47845C13.3162 3.63845 11.8363 2.14844 9.98627 2.14844ZM9.98627 6.44846C9.45627 6.44846 9.01624 6.01845 9.01624 5.47845C9.01624 4.94845 9.44627 4.50845 9.98627 4.50845C10.5163 4.50845 10.9562 4.93845 10.9562 5.47845C10.9562 6.00845 10.5263 6.44846 9.98627 6.44846Z" fill="black"/>
<path d="M14.7188 15.5575H5.27875C4.96875 15.5575 4.71875 15.3075 4.71875 14.9975C4.71875 14.6875 4.96875 14.4375 5.27875 14.4375H14.7188C15.0288 14.4375 15.2787 14.6875 15.2787 14.9975C15.2787 15.3075 15.0188 15.5575 14.7188 15.5575Z" fill="black"/>
<path d="M14.6172 17.6903H5.17719C4.86719 17.6903 4.61719 17.4403 4.61719 17.1303C4.61719 16.8203 4.86719 16.5703 5.17719 16.5703H14.6172C14.9272 16.5703 15.1772 16.8203 15.1772 17.1303C15.1772 17.4403 14.9272 17.6903 14.6172 17.6903Z" fill="black"/>
</svg>
