<svg width="31" height="30" viewBox="0 0 31 30" fill="none" xmlns="http://www.w3.org/2000/svg">
<path d="M20.3963 8.29688C19.6163 8.29688 18.9863 8.92688 18.9863 9.70688C18.9863 10.4869 19.6163 11.1169 20.3963 11.1169C21.1763 11.1169 21.8063 10.4869 21.8063 9.70688C21.8063 8.92688 21.1763 8.29688 20.3963 8.29688Z" fill="black"/>
<path d="M15.1374 10.9805C12.8424 10.9805 10.9824 12.8405 10.9824 15.1355C10.9824 17.4305 12.8424 19.2905 15.1374 19.2905C17.4324 19.2905 19.2924 17.4305 19.2924 15.1355C19.2924 12.8405 17.4324 10.9805 15.1374 10.9805Z" fill="black"/>
<path d="M15.1426 0C6.86258 0 0.142578 6.72 0.142578 15C0.142578 23.28 6.86258 30 15.1426 30C23.4226 30 30.1426 23.28 30.1426 15C30.1426 6.705 23.4226 0 15.1426 0ZM23.5126 19.215C23.5126 21.51 21.6526 23.37 19.3576 23.37H10.9126C8.61759 23.37 6.75758 21.51 6.75758 19.215V10.77C6.75758 8.475 8.61759 6.615 10.9126 6.615H19.3576C21.6526 6.615 23.5126 8.475 23.5126 10.77V19.215Z" fill="black"/>
</svg>
