<svg width="31" height="30" viewBox="0 0 31 30" fill="none" xmlns="http://www.w3.org/2000/svg">
<path d="M15.2871 0C7.00711 0 0.287109 6.72 0.287109 15C0.287109 23.28 7.00711 30 15.2871 30C23.5671 30 30.2871 23.28 30.2871 15C30.2871 6.705 23.5671 0 15.2871 0ZM10.9521 22.41H7.41211V11.43H10.9521V22.41ZM9.15211 10.08C7.95212 10.08 6.99211 9.105 6.99211 7.92C6.99211 6.735 7.96711 5.76 9.15211 5.76C10.3371 5.76 11.3121 6.735 11.3121 7.92C11.3121 9.105 10.3371 10.08 9.15211 10.08ZM23.6571 22.425H20.1171V15.975C20.1171 15.135 19.5471 14.34 18.7071 14.205C18.6171 14.19 18.5271 14.19 18.4371 14.19C18.0771 14.19 17.7471 14.295 17.4321 14.49C16.7871 14.895 16.4571 15.63 16.4571 16.38V22.425H12.9171V11.43H16.4571V12.72C16.9821 12.12 18.3471 11.4 19.7571 11.4C21.9021 11.4 23.6571 13.17 23.6571 15.42V22.425Z" fill="black"/>
</svg>
