<svg width="20" height="21" viewBox="0 0 20 21" fill="none" xmlns="http://www.w3.org/2000/svg">
<path d="M10 1.85547C14.96 1.85547 19 5.89547 19 10.8555C19 15.8155 14.96 19.8555 10 19.8555C5.04 19.8555 1 15.8155 1 10.8555C1 5.89547 5.04 1.85547 10 1.85547ZM10 0.855469C4.48 0.855469 0 5.33547 0 10.8555C0 16.3755 4.48 20.8555 10 20.8555C15.52 20.8555 20 16.3755 20 10.8555C20 5.32547 15.52 0.855469 10 0.855469Z" fill="black"/>
<path d="M15.1025 12.6873H4.89252C3.88252 12.6873 3.0625 11.8674 3.0625 10.8574C3.0625 9.84736 3.88252 9.02734 4.89252 9.02734H15.1025C16.1125 9.02734 16.9325 9.84736 16.9325 10.8574C16.9325 11.8674 16.1125 12.6873 15.1025 12.6873Z" fill="black"/>
</svg>
