<svg width="22" height="23" viewBox="0 0 22 23" fill="none" xmlns="http://www.w3.org/2000/svg">
<path d="M6.00056 4.68852C5.29017 4.68852 4.71094 4.10929 4.71094 3.39891V1.28961C4.71094 0.579227 5.29017 0 6.00056 0C6.71094 0 7.29017 0.579227 7.29017 1.28961V3.39891C7.29017 4.10929 6.71094 4.68852 6.00056 4.68852Z" fill="black"/>
<path d="M3.76503 1.84766H3.15301C1.96175 1.84766 1 2.80941 1 4.00066V19.6946C1 20.8859 1.96175 21.8477 3.15301 21.8477H18.847C20.0383 21.8477 21 20.8859 21 19.6946V4.00066C21 2.80941 20.0383 1.84766 18.847 1.84766H18.2896M13.8306 1.84766H8.21311M18.6612 18.252C18.6612 18.9405 18.0929 19.5088 17.4044 19.5088H4.60656C3.91804 19.5088 3.34973 18.9405 3.34973 18.252V8.78754C3.34973 8.08808 3.91804 7.53071 4.60656 7.53071H17.4044C18.0929 7.53071 18.6612 8.09901 18.6612 8.78754V18.252Z" stroke="black" stroke-miterlimit="10"/>
<path d="M16.0552 4.68852C15.3449 4.68852 14.7656 4.10929 14.7656 3.39891V1.28961C14.7656 0.579227 15.3449 0 16.0552 0C16.7656 0 17.3449 0.579227 17.3449 1.28961V3.39891C17.3449 4.10929 16.7766 4.68852 16.0552 4.68852Z" fill="black"/>
<path d="M15.8007 14.5819C16.3983 14.5819 16.8827 14.0975 16.8827 13.4999C16.8827 12.9024 16.3983 12.418 15.8007 12.418C15.2032 12.418 14.7188 12.9024 14.7188 13.4999C14.7188 14.0975 15.2032 14.5819 15.8007 14.5819Z" fill="black"/>
<path d="M15.8007 11.3046C16.3983 11.3046 16.8827 10.8201 16.8827 10.2226C16.8827 9.62503 16.3983 9.14062 15.8007 9.14062C15.2032 9.14062 14.7188 9.62503 14.7188 10.2226C14.7188 10.8201 15.2032 11.3046 15.8007 11.3046Z" fill="black"/>
<path d="M15.8007 17.8827C16.3983 17.8827 16.8827 17.3983 16.8827 16.8007C16.8827 16.2032 16.3983 15.7188 15.8007 15.7188C15.2032 15.7188 14.7188 16.2032 14.7188 16.8007C14.7188 17.3983 15.2032 17.8827 15.8007 17.8827Z" fill="black"/>
<path d="M12.5976 14.5819C13.1951 14.5819 13.6796 14.0975 13.6796 13.4999C13.6796 12.9024 13.1951 12.418 12.5976 12.418C12 12.418 11.5156 12.9024 11.5156 13.4999C11.5156 14.0975 12 14.5819 12.5976 14.5819Z" fill="black"/>
<path d="M12.5976 11.3046C13.1951 11.3046 13.6796 10.8201 13.6796 10.2226C13.6796 9.62503 13.1951 9.14062 12.5976 9.14062C12 9.14062 11.5156 9.62503 11.5156 10.2226C11.5156 10.8201 12 11.3046 12.5976 11.3046Z" fill="black"/>
<path d="M12.5976 17.8827C13.1951 17.8827 13.6796 17.3983 13.6796 16.8007C13.6796 16.2032 13.1951 15.7188 12.5976 15.7188C12 15.7188 11.5156 16.2032 11.5156 16.8007C11.5156 17.3983 12 17.8827 12.5976 17.8827Z" fill="black"/>
<path d="M9.41009 14.5819C10.0076 14.5819 10.4921 14.0975 10.4921 13.4999C10.4921 12.9024 10.0076 12.418 9.41009 12.418C8.81254 12.418 8.32812 12.9024 8.32812 13.4999C8.32812 14.0975 8.81254 14.5819 9.41009 14.5819Z" fill="black"/>
<path d="M9.41009 17.8827C10.0076 17.8827 10.4921 17.3983 10.4921 16.8007C10.4921 16.2032 10.0076 15.7188 9.41009 15.7188C8.81254 15.7188 8.32812 16.2032 8.32812 16.8007C8.32812 17.3983 8.81254 17.8827 9.41009 17.8827Z" fill="black"/>
<path d="M6.21479 14.5819C6.81234 14.5819 7.29675 14.0975 7.29675 13.4999C7.29675 12.9024 6.81234 12.418 6.21479 12.418C5.61723 12.418 5.13281 12.9024 5.13281 13.4999C5.13281 14.0975 5.61723 14.5819 6.21479 14.5819Z" fill="black"/>
<path d="M6.21479 17.8827C6.81234 17.8827 7.29675 17.3983 7.29675 16.8007C7.29675 16.2032 6.81234 15.7188 6.21479 15.7188C5.61723 15.7188 5.13281 16.2032 5.13281 16.8007C5.13281 17.3983 5.61723 17.8827 6.21479 17.8827Z" fill="black"/>
</svg>
