<svg width="20" height="21" viewBox="0 0 20 21" fill="none" xmlns="http://www.w3.org/2000/svg">
<path d="M4.81009 4.00731C4.4033 4.00731 4.07031 3.67432 4.07031 3.26754V1.23977C4.07031 0.832987 4.4033 0.5 4.81009 0.5C5.21688 0.5 5.54986 0.832987 5.54986 1.23977V3.26754C5.54986 3.67432 5.21688 4.00731 4.81009 4.00731Z" fill="black" stroke="black"/>
<path d="M18.727 3.8386H18.727V3.84323V18.9307C18.727 19.7997 18.0263 20.5005 17.1572 20.5005H2.06979C1.20072 20.5005 0.5 19.7997 0.5 18.9307V3.84323C0.5 2.97416 1.20072 2.27344 2.06979 2.27344H2.15816V3.26537C2.15816 4.72875 3.33812 5.9087 4.8015 5.9087C6.26648 5.9087 7.44484 4.71665 7.44484 3.26537V2.27344H11.8452V3.26537C11.8452 4.72875 13.0252 5.9087 14.4886 5.9087C15.9535 5.9087 17.1319 4.71665 17.1319 3.26537V2.27344H17.1677C18.0361 2.27344 18.735 2.98289 18.727 3.8386ZM15.7704 19.252C16.7084 19.252 17.4786 18.4818 17.4786 17.5438V8.4451C17.4786 7.50704 16.7084 6.73685 15.7704 6.73685H3.46717C2.53195 6.73685 1.75891 7.4937 1.75891 8.4451V17.5438C1.75891 18.4818 2.52912 19.252 3.46717 19.252H15.7704Z" fill="black" stroke="black"/>
<path d="M14.4859 4.00731C14.0791 4.00731 13.7461 3.67432 13.7461 3.26754V1.23977C13.7461 0.832987 14.0791 0.5 14.4859 0.5C14.8927 0.5 15.2256 0.832987 15.2256 1.23977V3.26754C15.2256 3.67432 14.8927 4.00731 14.4859 4.00731Z" fill="black" stroke="black"/>
<path d="M14.7756 12.9855C14.7756 13.2838 14.5338 13.5256 14.2355 13.5256C13.9371 13.5256 13.6953 13.2838 13.6953 12.9855C13.6953 12.6871 13.9371 12.4453 14.2355 12.4453C14.5338 12.4453 14.7756 12.6871 14.7756 12.9855Z" fill="black" stroke="black"/>
<path d="M14.7756 9.81748C14.7756 10.1158 14.5338 10.3576 14.2355 10.3576C13.9371 10.3576 13.6953 10.1158 13.6953 9.81748C13.6953 9.51917 13.9371 9.27734 14.2355 9.27734C14.5338 9.27734 14.7756 9.51917 14.7756 9.81748Z" fill="black" stroke="black"/>
<path d="M14.7756 16.1456C14.7756 16.4439 14.5338 16.6858 14.2355 16.6858C13.9371 16.6858 13.6953 16.4439 13.6953 16.1456C13.6953 15.8473 13.9371 15.6055 14.2355 15.6055C14.5338 15.6055 14.7756 15.8473 14.7756 16.1456Z" fill="black" stroke="black"/>
<path d="M11.7092 12.9855C11.7092 13.2838 11.4674 13.5256 11.1691 13.5256C10.8707 13.5256 10.6289 13.2838 10.6289 12.9855C10.6289 12.6872 10.8707 12.4453 11.1691 12.4453C11.4674 12.4453 11.7092 12.6871 11.7092 12.9855Z" fill="black" stroke="black"/>
<path d="M11.7092 9.81748C11.7092 10.1158 11.4674 10.3576 11.1691 10.3576C10.8707 10.3576 10.6289 10.1158 10.6289 9.81748C10.6289 9.51918 10.8707 9.27734 11.1691 9.27734C11.4674 9.27734 11.7092 9.51917 11.7092 9.81748Z" fill="black" stroke="black"/>
<path d="M11.7092 16.1456C11.7092 16.4439 11.4674 16.6858 11.1691 16.6858C10.8707 16.6858 10.6289 16.4439 10.6289 16.1456C10.6289 15.8473 10.8707 15.6055 11.1691 15.6055C11.4674 15.6055 11.7092 15.8473 11.7092 16.1456Z" fill="black" stroke="black"/>
<path d="M8.63108 12.9855C8.63108 13.2838 8.38926 13.5256 8.09094 13.5256C7.79261 13.5256 7.55078 13.2838 7.55078 12.9855C7.55078 12.6872 7.79262 12.4453 8.09094 12.4453C8.38925 12.4453 8.63108 12.6871 8.63108 12.9855Z" fill="black" stroke="black"/>
<path d="M8.63108 16.1456C8.63108 16.4439 8.38925 16.6858 8.09094 16.6858C7.79262 16.6858 7.55078 16.4439 7.55078 16.1456C7.55078 15.8473 7.79261 15.6055 8.09094 15.6055C8.38926 15.6055 8.63108 15.8473 8.63108 16.1456Z" fill="black" stroke="black"/>
<path d="M5.56077 12.9855C5.56077 13.2838 5.31895 13.5256 5.02062 13.5256C4.7223 13.5256 4.48047 13.2838 4.48047 12.9855C4.48047 12.6872 4.72231 12.4453 5.02062 12.4453C5.31894 12.4453 5.56077 12.6871 5.56077 12.9855Z" fill="black" stroke="black"/>
<path d="M5.56077 16.1456C5.56077 16.4439 5.31894 16.6858 5.02062 16.6858C4.72231 16.6858 4.48047 16.4439 4.48047 16.1456C4.48047 15.8473 4.7223 15.6055 5.02062 15.6055C5.31895 15.6055 5.56077 15.8473 5.56077 16.1456Z" fill="black" stroke="black"/>
</svg>
