<svg width="47" height="42" viewBox="0 0 47 42" fill="none" xmlns="http://www.w3.org/2000/svg">
<path d="M23.4067 31.8614C28.1101 31.8614 31.9228 28.0485 31.9228 23.3452C31.9228 18.6419 28.1101 14.8291 23.4067 14.8291C18.7034 14.8291 14.8906 18.6419 14.8906 23.3452C14.8906 28.0485 18.7034 31.8614 23.4067 31.8614Z" fill="#010101"/>
<path d="M40.4853 6.90427C42.9703 6.90427 44.9851 8.9191 44.9851 11.4041V35.2466C44.9851 37.7316 42.9703 39.7465 40.4853 39.7465H6.51469C4.02969 39.7465 2.01486 37.7316 2.01486 35.2466V11.4041C2.01486 8.9191 4.02969 6.90427 6.51469 6.90427H40.4853ZM40.4853 4.8894H6.51469C2.9148 4.8894 0 7.8042 0 11.4041V35.2466C0 38.8465 2.9148 41.7614 6.51469 41.7614H40.4853C44.0852 41.7614 47 38.8465 47 35.2466V11.4041C47 7.8042 44.0852 4.8894 40.4853 4.8894Z" fill="#010101"/>
<path d="M23.4466 11.632C29.9211 11.632 35.1597 16.8841 35.1597 23.3451C35.1597 29.8061 29.9076 35.0582 23.4466 35.0582C16.9722 35.0582 11.7336 29.8061 11.7336 23.3451C11.7336 16.8841 16.9722 11.632 23.4466 11.632ZM23.4466 9.61719C15.8708 9.61719 9.71875 15.7826 9.71875 23.3451C9.71875 30.9075 15.8842 37.073 23.4466 37.073C31.0091 37.073 37.1745 30.9075 37.1745 23.3451C37.1745 15.7826 31.0091 9.61719 23.4466 9.61719Z" fill="#010101"/>
<path d="M33.0767 2.41782C32.4588 0.953685 31.0349 0 29.4364 0H23.4187H17.401C15.816 0 14.3788 0.953685 13.7609 2.41782L12.7266 4.88942H34.0976L33.0767 2.41782Z" fill="#010101"/>
<path d="M40.2144 14.7219C41.9206 14.7219 43.3039 13.3387 43.3039 11.6325C43.3039 9.92623 41.9206 8.54297 40.2144 8.54297C38.5081 8.54297 37.125 9.92623 37.125 11.6325C37.125 13.3387 38.5081 14.7219 40.2144 14.7219Z" fill="#010101"/>
</svg>
