<svg width="39" height="36" viewBox="0 0 39 36" fill="none" xmlns="http://www.w3.org/2000/svg">
<path d="M19.0255 13.6992C15.8134 13.6992 13.207 16.3056 13.207 19.5177C13.207 22.7299 15.8134 25.3362 19.0255 25.3362C22.2376 25.3362 24.8441 22.7299 24.8441 19.5177C24.8441 16.3056 22.2284 13.6992 19.0255 13.6992Z" fill="#93A2F4"/>
<path d="M30.6792 5.3992H27.3267L26.9931 4.62227C26.3369 3.07284 24.8235 2.05859 23.1262 2.05859H19.0146H14.9031C13.2178 2.05859 11.6935 3.0702 11.0362 4.6224L10.7026 5.3992H7.45104C4.16306 5.3992 1.5 8.06226 1.5 11.3502V27.6402C1.5 30.9282 4.16303 33.5913 7.45104 33.5913H30.6608C33.9489 33.5913 36.6119 30.9282 36.6119 27.6402V11.3554C36.6332 8.05933 33.963 5.3992 30.6792 5.3992ZM19.0238 26.0118C15.4298 26.0118 12.5211 23.0961 12.5211 19.509C12.5211 15.915 15.4367 13.0063 19.0238 13.0063C22.6097 13.0063 25.5266 15.9231 25.5266 19.509C25.5266 23.103 22.6108 26.0118 19.0238 26.0118ZM30.4956 12.1171C30.1585 12.1171 29.8849 11.8435 29.8849 11.5063C29.8849 11.1691 30.1586 10.8954 30.4956 10.8954C30.8327 10.8954 31.1065 11.1692 31.1065 11.5063C31.1065 11.8434 30.8328 12.1171 30.4956 12.1171Z" fill="#93A2F4" stroke="white" stroke-width="3"/>
</svg>
