<svg width="15" height="14" viewBox="0 0 15 14" fill="none" xmlns="http://www.w3.org/2000/svg">
<path d="M2.15921 10.6622L2.22547 10.4556L2.11987 10.2661C1.59973 9.33267 1.29688 8.26846 1.29688 7.12891C1.29688 3.60849 4.13083 0.757812 7.61409 0.757812C11.0973 0.757812 13.9313 3.60849 13.9313 7.12891C13.9313 10.6493 11.0973 13.5 7.61409 13.5C6.41594 13.5 5.29924 13.1571 4.3444 12.5707L4.1399 12.4452L3.914 12.5262L1.50482 13.39C1.45588 13.3993 1.41347 13.3833 1.37966 13.3458C1.34202 13.304 1.32731 13.2477 1.34938 13.1861L1.35222 13.1782L1.35479 13.1701L2.15921 10.6622ZM8.71997 7.84789C8.93965 8.75618 9.75364 9.42913 10.7227 9.42913C11.863 9.42913 12.7771 8.49927 12.7771 7.35565C12.7771 6.21203 11.863 5.28217 10.7227 5.28217C9.76221 5.28217 8.96503 5.93902 8.73117 6.82014C8.51537 6.08222 7.83556 5.54327 7.03462 5.54327C6.21249 5.54327 5.52969 6.10654 5.32752 6.85866C5.13464 6.26805 4.58241 5.83873 3.92597 5.83873C3.10758 5.83873 2.4511 6.50605 2.4511 7.3213C2.4511 8.13655 3.10758 8.80386 3.92597 8.80386C4.58198 8.80386 5.13393 8.3751 5.32715 7.78507C5.52906 8.54118 6.21328 9.09932 7.03462 9.09932C7.8306 9.09932 8.49417 8.5657 8.71997 7.84789Z" fill="white" stroke="white"/>
</svg>
