<svg width="19" height="19" viewBox="0 0 19 19" fill="none" xmlns="http://www.w3.org/2000/svg">
<path d="M17.1 9.5C17.1 13.6884 13.6884 17.1 9.5 17.1C5.31161 17.1 1.9 13.6884 1.9 9.5C1.9 5.31161 5.31161 1.9 9.5 1.9C13.6884 1.9 17.1 5.31161 17.1 9.5ZM18.05 9.5C18.05 4.78039 14.2196 0.95 9.5 0.95C4.78039 0.949999 0.950001 4.78039 0.95 9.5C0.95 14.2196 4.78038 18.05 9.5 18.05C14.2196 18.05 18.05 14.2196 18.05 9.5Z" fill="black" stroke="black" stroke-width="0.1"/>
<path d="M11.0729 11.0797L12.7679 11.0796C13.6454 11.0796 14.3486 10.3764 14.3486 9.49893C14.3486 8.62141 13.6454 7.91819 12.7679 7.91819L11.0729 7.91819L11.0729 6.22326C11.0729 5.34574 10.3697 4.64251 9.49219 4.64251C8.61467 4.64251 7.91147 5.34572 7.91147 6.22324V7.91818H6.21653C5.33901 7.91818 4.63579 8.6214 4.63579 9.49892C4.63579 10.3764 5.33901 11.0797 6.21653 11.0797L7.91146 11.0797L7.91146 12.7746C7.91146 13.6521 8.61468 14.3553 9.4922 14.3553C10.3697 14.3553 11.0729 13.6521 11.0729 12.7746L11.0729 11.0797Z" fill="black"/>
</svg>
