<svg width="22" height="22" viewBox="0 0 22 22" fill="none" xmlns="http://www.w3.org/2000/svg">
<circle cx="11" cy="11" r="11" fill="white"/>
<path d="M13.0925 13.3924L15.3362 13.3924C16.4978 13.3924 17.4287 12.4615 17.4287 11.2999C17.4287 10.1383 16.4978 9.2074 15.3362 9.2074L13.0925 9.2074L13.0925 6.96372C13.0925 5.80211 12.1616 4.87121 11 4.87121C9.83838 4.87121 8.90751 5.80208 8.90751 6.9637L8.90751 9.20738L6.66383 9.20738C5.50221 9.20738 4.57132 10.1383 4.57132 11.2999C4.57132 12.4615 5.50221 13.3924 6.66383 13.3924L8.90751 13.3924V15.6361C8.90751 16.7977 9.83839 17.7286 11 17.7286C12.1616 17.7286 13.0925 16.7977 13.0925 15.6361L13.0925 13.3924Z" fill="#F12323"/>
</svg>
