<svg width="55" height="41" viewBox="0 0 55 41" fill="none" xmlns="http://www.w3.org/2000/svg">
<path d="M22.021 29.6776L21.9938 29.3778L16.8428 26.9795C15.8617 26.5162 15.2348 25.5351 15.2076 24.4449C15.2076 23.3548 15.8344 22.3464 16.8156 21.883L34.0127 13.6797C34.6123 13.3799 35.2936 13.2436 35.975 13.2436C36.0022 13.2436 36.0295 13.2436 36.0295 13.2436V11.7446C36.0295 10.1912 34.7758 8.9375 33.2223 8.9375H32.5683H25.8366H21.2307H10.6562H6.05034H2.80714C1.25367 8.9375 0 10.1912 0 11.7446V33.7929C0 35.3464 1.25367 36.6001 2.80714 36.6001H24.3104C24.3376 36.6001 24.3649 36.5728 24.4194 36.5728C23.0567 34.5833 22.1845 32.2395 22.021 29.6776Z" fill="#8A8A8A"/>
<path d="M17.8405 23.9986L35.0377 15.7952C35.6373 15.4954 36.3458 15.4954 36.9454 15.7952L54.2788 23.9986C54.6331 24.1621 54.6331 24.6799 54.2788 24.8707L52.7526 25.5793V31.3571C53.216 31.5479 53.5703 32.0112 53.5703 32.5563C53.5703 33.1286 53.1887 33.6191 52.6709 33.7827L53.5157 37.3529H51.0084L51.8533 33.7827C51.3354 33.6191 50.9539 33.1286 50.9539 32.5563C50.9539 32.0112 51.2809 31.5479 51.7715 31.3571V26.0426L37.0272 32.9105C36.4276 33.1831 35.7463 33.1831 35.1467 32.9105L17.8678 24.8707C17.4862 24.7071 17.4862 24.1893 17.8405 23.9986Z" fill="#8A8A8A"/>
<path d="M26.7168 8.96648H23.5009C23.3918 5.75053 20.7755 3.18869 17.5323 3.18869C14.2891 3.18869 11.7 5.75053 11.5637 8.96648H8.375C8.48402 4.00629 12.5448 0 17.5323 0C22.547 0 26.6078 4.00629 26.7168 8.96648Z" fill="#8A8A8A"/>
<path d="M37.971 35.0359C37.3714 35.3085 36.7173 35.472 36.036 35.472C35.3819 35.472 34.7005 35.3357 34.1009 35.0359L24.4531 30.5391C25.3252 36.1533 30.1764 40.4594 36.036 40.4594C41.8955 40.4594 46.7467 36.1533 47.6188 30.5391L37.971 35.0359Z" fill="#8A8A8A"/>
</svg>
