<svg width="49" height="38" viewBox="0 0 49 38" fill="none" xmlns="http://www.w3.org/2000/svg">
<path d="M11.8174 18.2995C11.6962 18.3964 11.575 18.4934 11.4538 18.5904C10.6537 19.148 9.97491 19.5116 9.44155 19.7298C9.22336 19.8268 8.98093 19.8268 8.76273 19.7298C8.22937 19.5116 7.55055 19.148 6.75051 18.5904C5.87774 18.0085 4.71406 16.6751 4.90801 14.9538C5.02923 13.7901 5.78078 12.5295 7.13842 12.4325C8.05967 12.3598 8.78698 12.9174 9.12639 13.5477C9.36883 13.1113 9.78096 12.7234 10.3143 12.5537C10.3143 12.3598 10.2901 12.1416 10.2901 11.9476C10.2901 10.4688 10.5325 9.03838 10.9447 7.68074C10.2901 7.51104 9.61127 7.41406 8.88396 7.41406C4.05948 7.41406 0.15625 11.3173 0.15625 16.1418C0.15625 20.9662 4.05948 24.8695 8.88396 24.8695C11.2356 24.8695 13.369 23.924 14.9449 22.3966C13.6357 21.2087 12.5932 19.8268 11.8174 18.2995Z" fill="#8A8A8A"/>
<path d="M10.7884 33.3966C11.4672 31.3359 12.6067 29.4691 14.0613 27.9418C12.6067 26.8508 10.8369 26.1962 8.87316 26.172C4.0002 26.1477 0.0242436 30.0752 0 34.9482C0 34.9724 0 34.9724 0 34.9967H6.25485C6.25485 33.5905 7.39429 32.4268 8.82467 32.4268C9.62471 32.4511 10.3278 32.839 10.7884 33.3966Z" fill="#8A8A8A"/>
<path d="M39.61 26.172C37.6463 26.172 35.8765 26.8508 34.4219 27.9418C35.9007 29.4691 37.0402 31.3116 37.719 33.3723C38.1796 32.8147 38.8585 32.4268 39.6585 32.4268C41.0646 32.4268 42.2283 33.5663 42.2283 34.9967H48.4832C48.4832 34.9724 48.4832 34.9724 48.4832 34.9482C48.4589 30.0752 44.5072 26.1477 39.61 26.172Z" fill="#8A8A8A"/>
<path d="M24.295 0C17.7008 0 12.3672 5.33359 12.3672 11.9278C12.3672 18.5221 17.7008 23.8557 24.295 23.8557C30.8893 23.8557 36.2229 18.5221 36.2229 11.9278C36.1986 5.33359 30.865 0 24.295 0ZM28.9255 17.5039C27.4224 18.5221 26.1375 19.2252 25.1436 19.6373C24.7314 19.807 24.2708 19.807 23.8586 19.6373C22.8647 19.2252 21.5798 18.5221 20.0767 17.5039C18.4523 16.3887 16.2704 13.9158 16.6098 10.6672C16.8523 8.48528 18.2584 6.10938 20.7797 5.93967C22.501 5.81846 23.8587 6.86096 24.489 8.04889C25.1436 6.86096 26.477 5.81846 28.1983 5.93967C30.6953 6.13362 32.1257 8.48528 32.3682 10.6672C32.7561 13.9158 30.5499 16.4129 28.9255 17.5039Z" fill="#8A8A8A"/>
<path d="M20.7393 37.7768C20.7393 35.8373 22.3151 34.2857 24.2304 34.2857C26.1698 34.2857 27.7214 35.8615 27.7214 37.7768H36.2794C36.2794 37.7525 36.2794 37.7283 36.2794 37.704C36.2309 31.037 30.8004 25.655 24.1334 25.7035C17.4906 25.7277 12.1328 31.134 12.1328 37.7768H20.7393Z" fill="#8A8A8A"/>
<path d="M39.6859 7.39062C38.9828 7.39062 38.304 7.51184 37.6252 7.65731C38.0616 8.9907 38.2798 10.4211 38.2798 11.9242C38.2798 12.0939 38.2555 12.2636 38.2555 12.4333C39.0071 12.506 39.6132 12.9666 39.9283 13.5243C40.2677 12.8939 40.995 12.3363 41.9163 12.4091C43.2497 12.506 44.0012 13.7667 44.1467 14.9304C44.3407 16.6517 43.1527 17.9851 42.3042 18.5669C41.5042 19.1245 40.8253 19.4882 40.292 19.7064C40.0738 19.8034 39.8314 19.8034 39.6132 19.7064C39.0798 19.4882 38.401 19.1245 37.6009 18.5669C37.3828 18.4215 37.1403 18.2033 36.8979 17.9608C36.0978 19.6336 35.0069 21.1125 33.625 22.3247C35.2008 23.852 37.3343 24.7975 39.6859 24.7975C44.5104 24.7975 48.4136 20.8943 48.4136 16.0698C48.3893 11.2938 44.4861 7.39062 39.6859 7.39062Z" fill="#8A8A8A"/>
</svg>
