<svg width="21" height="21" viewBox="0 0 21 21" fill="none" xmlns="http://www.w3.org/2000/svg">
<path d="M10.21 14.8001C9.28 14.2401 8.19 13.9101 7.03 13.9201C3.69 13.9401 1 16.6501 1 19.9901H5.3C5.3 19.0201 6.09 18.2301 7.06 18.2301C8.03 18.2301 8.82 19.0201 8.82 19.9901" stroke="#010101" stroke-miterlimit="10"/>
<path d="M7.06031 1C3.75031 1 1.07031 3.68 1.07031 6.99C1.07031 10.3 3.75031 12.98 7.06031 12.98C10.3703 12.98 13.0503 10.3 13.0503 6.99C13.0603 3.68 10.3703 1 7.06031 1Z" stroke="#010101" stroke-miterlimit="10"/>
<path d="M7.06031 8.73C8.02129 8.73 8.80031 7.95098 8.80031 6.99C8.80031 6.02902 8.02129 5.25 7.06031 5.25C6.09934 5.25 5.32031 6.02902 5.32031 6.99C5.32031 7.95098 6.09934 8.73 7.06031 8.73Z" fill="#010101"/>
<path d="M19.4697 7.6898L16.1797 5.9198L17.0597 4.2698C17.5497 3.3598 18.6797 3.0198 19.5897 3.5098C20.4997 3.9998 20.8397 5.1298 20.3497 6.0398L19.4697 7.6898Z" fill="black"/>
<path d="M15.6593 6.88965L10.0293 17.3796L10.1993 20.9996L13.3193 19.1496L18.9493 8.65965L15.6593 6.88965Z" fill="black"/>
</svg>
