<svg width="17" height="14" viewBox="0 0 17 14" fill="none" xmlns="http://www.w3.org/2000/svg">
<path d="M15.6307 1.05452C15.9199 1.05452 16.1495 1.29264 16.1495 1.57328V12.0675C16.1495 12.6117 15.7073 13.0455 15.1715 13.0455H1.82843C1.28416 13.0455 0.850421 12.6032 0.850421 12.0675V1.57328C0.850421 1.28414 1.08858 1.05452 1.36922 1.05452H15.6307ZM15.6307 0.204102H1.36922C0.612343 0.204102 0 0.816405 0 1.57328V12.0675C0 13.0795 0.816425 13.8959 1.82843 13.8959H15.1715C16.1835 13.8959 16.9999 13.0795 16.9999 12.0675V1.57328C17.0084 0.82491 16.3876 0.204102 15.6307 0.204102Z" fill="#8A8A8A"/>
<path d="M0.503906 1.10767L7.06913 7.72394C7.91105 8.57436 9.11866 8.57436 9.95207 7.72394L16.4918 1.14168" stroke="#8A8A8A" stroke-miterlimit="10"/>
</svg>
