<svg width="30" height="31" viewBox="0 0 30 31" fill="none" xmlns="http://www.w3.org/2000/svg">
<path d="M15 1.45714C22.4657 1.45714 28.5429 7.53429 28.5429 15C28.5429 22.4657 22.4657 28.5429 15 28.5429C7.53429 28.5429 1.45714 22.4657 1.45714 15C1.45714 7.53429 7.53429 1.45714 15 1.45714ZM15 0C6.72 0 0 6.72 0 15C0 23.28 6.72 30 15 30C23.28 30 30 23.28 30 15C30 6.72 23.28 0 15 0Z" fill="black"/>
<path d="M17.0807 10.961V13.8238H21.3407L20.6807 18.0496H17.0807V29.1753C17.0807 29.261 17.0807 29.3467 17.0721 29.4238C16.395 29.5181 15.6921 29.5696 14.9807 29.5696C14.2607 29.5696 13.5579 29.5181 12.8636 29.4153C12.855 29.3381 12.855 29.261 12.855 29.1753V18.0496H9.375V13.8238H12.855V9.80384C12.855 7.47241 14.7493 5.57812 17.0807 5.57812H21.3407V9.80384H18.2293C17.595 9.80384 17.0807 10.3181 17.0807 10.961Z" stroke="black" stroke-width="1.3" stroke-miterlimit="10"/>
</svg>
