<svg width="46" height="46" viewBox="0 0 46 46" fill="none" xmlns="http://www.w3.org/2000/svg">
<path d="M41.9485 2.19396C42.9723 2.19396 43.806 3.02766 43.806 4.05151V41.9485C43.806 42.9723 42.9723 43.806 41.9485 43.806H4.05151C3.02766 43.806 2.19396 42.9723 2.19396 41.9485V4.05151C2.19396 3.02766 3.02766 2.19396 4.05151 2.19396H41.9485ZM41.9485 0H4.05151C1.81367 0 0 1.81367 0 4.05151V41.9485C0 44.1863 1.81367 46 4.05151 46H41.9485C44.1863 46 46 44.1863 46 41.9485V4.05151C46 1.81367 44.1863 0 41.9485 0Z" fill="#010101"/>
<path d="M4.72192 39.8571L16.2183 19.6727C16.4084 19.3363 16.9057 19.307 17.1251 19.6434L24.9502 31.4323C25.7839 32.6902 27.6415 32.6609 28.4459 31.3738L30.9178 27.3808C31.1079 27.059 31.5613 27.0444 31.7954 27.3369L41.2294 39.7986C41.4342 40.0619 41.244 40.4568 40.9076 40.4568H5.08757C4.76579 40.4714 4.57565 40.135 4.72192 39.8571Z" fill="#010101"/>
<path d="M33.2832 18.1075C36.4902 18.1075 39.0899 15.5078 39.0899 12.3008C39.0899 9.09388 36.4902 6.49414 33.2832 6.49414C30.0763 6.49414 27.4766 9.09388 27.4766 12.3008C27.4766 15.5078 30.0763 18.1075 33.2832 18.1075Z" fill="#010101"/>
</svg>
