<svg width="21" height="21" viewBox="0 0 21 21" fill="none" xmlns="http://www.w3.org/2000/svg">
<path d="M19.05 12.04L17.53 12.26C17.37 12.77 17.17 13.27 16.92 13.73L17.84 14.96C18.18 15.41 18.09 16.09 17.63 16.55L16.55 17.63C16.09 18.09 15.41 18.18 14.96 17.84L13.73 16.92C13.27 17.17 12.77 17.38 12.26 17.53L12.04 19.05M19.05 12.04L18.9684 8.47484C19.2226 8.51204 19.5115 8.79518 19.52 9.2542V10.77C19.52 11.2288 19.2399 11.5078 18.9793 11.545L18.9784 11.5451L17.4584 11.7652L17.1471 11.8102L17.053 12.1103C16.9004 12.5967 16.712 13.0656 16.4807 13.4912L16.3276 13.7728L16.5196 14.0295L17.4396 15.2595L17.4411 15.2614C17.5987 15.47 17.6003 15.8726 17.2765 16.1964L16.1964 17.2764C15.8726 17.6003 15.4701 17.5987 15.2614 17.4411L15.2595 17.4396L14.0295 16.5196L13.7728 16.3277L13.4912 16.4807C13.0608 16.7146 12.5934 16.9108 12.1189 17.0503L11.8111 17.1408L11.7652 17.4584L11.5452 18.978L12.04 19.05M19.05 12.04C19.61 11.96 20.02 11.42 20.02 10.77M19.05 12.04L20.02 10.77M12.04 19.05C11.96 19.6 11.42 20.02 10.77 20.02H9.25C8.6 20.02 8.05998 19.61 7.97998 19.05M12.04 19.05L11.5451 18.9784M7.97998 19.05L11.5451 18.9784M7.97998 19.05L7.76001 17.53C7.25001 17.37 6.74998 17.17 6.28998 16.92L5.06 17.84C4.61 18.18 3.92997 18.09 3.46997 17.63L2.39001 16.55M7.97998 19.05L0.969971 7.98C0.409971 8.06 0 8.6 0 9.25V10.77C0 11.42 0.419971 11.96 0.969971 12.04L2.48999 12.26C2.63999 12.77 2.84998 13.27 3.09998 13.73L2.17999 14.96C1.83999 15.41 1.93001 16.09 2.39001 16.55M11.5451 18.9784C11.5078 19.2334 11.2245 19.52 10.77 19.52H9.25C8.7912 19.52 8.51219 19.2399 8.47496 18.9793L8.47483 18.9784L8.25486 17.4584L8.2098 17.1471L7.90968 17.0529C7.42322 16.9003 6.95431 16.712 6.52873 16.4807L6.24714 16.3276L5.9905 16.5196L4.76051 17.4396L4.75858 17.4411C4.54993 17.5987 4.14735 17.6003 3.82353 17.2764L2.74358 16.1964L2.39001 16.55M11.5451 18.9784L2.39001 16.55M2.39001 16.55L2.74357 16.1964C2.41973 15.8726 2.42129 15.47 2.57893 15.2614L2.58039 15.2595L3.50037 14.0295L3.69233 13.7728L3.53929 13.4912C3.30535 13.0608 3.10924 12.5934 2.96967 12.1189L2.87914 11.8111L2.56161 11.7652L1.04194 11.5452L0.969977 12.04L1.04159 11.5451L1.04178 11.5452C0.786696 11.508 0.5 11.2247 0.5 10.77V9.25C0.5 8.79119 0.780059 8.5122 1.04068 8.47497L1.04159 8.47484L2.56161 8.25484L2.87291 8.20978L2.96706 7.90966C3.11968 7.4232 3.308 6.95433 3.53929 6.52875L3.69233 6.24716L3.50037 5.99052L2.58039 4.76052L2.58039 4.76052L2.57893 4.75858C2.42129 4.54994 2.41973 4.1474 2.74357 3.82355L2.74358 3.82355L3.82352 2.74355C3.82353 2.74355 3.82353 2.74355 3.82353 2.74355C4.14736 2.41972 4.54993 2.42128 4.75858 2.57893L4.76052 2.58038L5.9905 3.50038L6.24714 3.69234L6.52873 3.5393C6.95917 3.30537 7.42656 3.10924 7.90109 2.96967L8.2089 2.87914L8.25486 2.5616L8.47477 1.04197C8.47479 1.04185 8.47481 1.04173 8.47483 1.04161M2.39001 16.55L8.47483 1.04161M8.47483 1.04161C8.51215 0.786569 8.79547 0.5 9.25 0.5H10.76C11.2188 0.5 11.4978 0.780079 11.5351 1.04071L11.5352 1.04161L11.7552 2.5616L11.8002 2.87291L12.1003 2.96706C12.5868 3.11967 13.0556 3.308 13.4812 3.5393L13.7628 3.69234L14.0194 3.50039L15.2495 2.58039L15.2514 2.57893C15.4601 2.42128 15.8626 2.41972 16.1864 2.74355L16.54 2.39L16.1864 2.74356L17.2664 3.82355C17.5903 4.1474 17.5887 4.54994 17.4311 4.75858L17.4296 4.76051L16.5096 5.9905L16.3176 6.24715L16.4707 6.52875C16.7046 6.95922 16.9008 7.42658 17.0403 7.90108L17.1309 8.20888M8.47483 1.04161L17.1309 8.20888M17.1309 8.20888L17.4484 8.25484M17.1309 8.20888L17.4484 8.25484M17.4484 8.25484L18.968 8.47479L17.4484 8.25484ZM20.02 10.77V9.25V10.77ZM8.04647 11.9636L8.04644 11.9636L8.05076 11.9678C8.55249 12.4576 9.23552 12.7812 10.004 12.77C11.5283 12.7678 12.77 11.5248 12.77 10C12.77 9.2354 12.4659 8.5388 11.9635 8.03645C11.4629 7.53578 10.7769 7.23 10.01 7.23C9.24309 7.23 8.55709 7.53577 8.05642 8.03644L8.05561 8.03726L8.04647 8.04644C8.04633 8.04658 8.04619 8.04672 8.04605 8.04686C7.54479 8.54833 7.23999 9.24444 7.23999 10V10.01C7.23999 10.7658 7.54496 11.462 8.04647 11.9636Z" fill="black" stroke="black"/>
</svg>
