<?xml version="1.0" encoding="UTF-8"?>
<svg version="1.1" xmlns="http://www.w3.org/2000/svg" width="1024" height="1024">
<path d="M0 0 C15.01697945 4.00874876 28.21597962 10.53502634 41.90356445 17.80224609 C43.37490845 18.57592529 43.37490845 18.57592529 44.87597656 19.36523438 C47.4934082 20.82568359 47.4934082 20.82568359 49.37841797 22.18847656 C51.93186063 24.02701674 53.93193051 24.85421623 57.078125 24.69433594 C60.19768903 24.16130337 63.23436638 23.46269579 66.3059082 22.70068359 C68.55727874 22.19773345 70.80990142 21.70035662 73.0637207 21.20849609 C74.16361328 20.96518555 75.26350586 20.721875 76.39672852 20.47119141 C88.17376947 18.01624846 100.24520396 17.57073351 112.23632812 17.16650391 C113.12296143 17.13524414 114.00959473 17.10398437 114.9230957 17.07177734 C115.7092627 17.04784912 116.49542969 17.0239209 117.30541992 16.99926758 C119.49307806 16.89769066 119.49307806 16.89769066 121.52905273 16.24780273 C123.87929099 15.74276148 125.19423309 16.18643646 127.4934082 16.82568359 C129.20084375 16.93731231 130.91156207 17.00310406 132.62231445 17.03662109 C133.64429932 17.06288574 134.66628418 17.08915039 135.71923828 17.11621094 C136.82033936 17.14408691 137.92144043 17.17196289 139.0559082 17.20068359 C148.68607093 17.51157487 158.22758281 18.15102256 167.8059082 19.20068359 C168.88235596 19.31460449 169.95880371 19.42852539 171.06787109 19.54589844 C176.60376365 20.18582181 181.93153996 21.11099948 187.34887695 22.42724609 C195.31547527 24.30082898 199.95090767 24.61740879 207 20.3203125 C207.78157471 19.82708496 208.56314941 19.33385742 209.3684082 18.82568359 C228.4742287 7.30460447 251.46451242 -4.47045264 274.4934082 -2.17431641 C279.58063179 -0.51887619 281.28465901 3.78826534 283.75512695 8.23193359 C293.68462119 28.76032617 295.77488932 52.63719702 291.4934082 74.82568359 C291.30262695 75.82470703 291.1118457 76.82373047 290.9152832 77.85302734 C290.45813452 80.1812203 289.98588595 82.50475122 289.4934082 84.82568359 C290.4834082 85.48568359 291.4734082 86.14568359 292.4934082 86.82568359 C293.44596416 88.42461681 294.38777147 90.03105155 295.27075195 91.66943359 C296.66288676 94.12457229 298.22983564 96.42199302 299.8059082 98.76318359 C318.55716905 128.09723757 320.76952366 162.65176378 313.6496582 195.92724609 C304.84782446 231.96923773 280.12396536 261.90150284 248.9934082 281.21630859 C233.19514474 290.63185305 215.48324143 296.41620827 197.4934082 299.82568359 C197.62618164 300.60169922 197.75895508 301.37771484 197.89575195 302.17724609 C198.07235352 303.25748047 198.24895508 304.33771484 198.4309082 305.45068359 C198.60493164 306.49482422 198.77895508 307.53896484 198.95825195 308.61474609 C200.70183231 321.26051132 200.65021051 333.96217729 200.6237793 346.69897461 C200.61847287 349.72628924 200.62372516 352.75345189 200.63012695 355.78076172 C200.63429708 369.48505988 200.20409903 383.14035734 199.4934082 396.82568359 C196.4247925 397.64309892 193.79791213 397.93216432 190.61450195 397.88818359 C189.6934668 397.88044922 188.77243164 397.87271484 187.82348633 397.86474609 C186.86893555 397.85185547 185.91438477 397.83896484 184.9309082 397.82568359 C183.03382998 397.80016808 181.13668468 397.77913748 179.23950195 397.76318359 C177.98157837 397.74578125 177.98157837 397.74578125 176.69824219 397.72802734 C174.31583479 397.73268572 174.31583479 397.73268572 171.4934082 398.82568359 C171.4934082 398.16568359 171.4934082 397.50568359 171.4934082 396.82568359 C170.8334082 396.49568359 170.1734082 396.16568359 169.4934082 395.82568359 C169.8234082 394.83568359 170.1534082 393.84568359 170.4934082 392.82568359 C170.64339179 391.11415864 170.74174348 389.39788735 170.80981445 387.68115234 C170.85195068 386.62718262 170.89408691 385.57321289 170.9375 384.48730469 C170.97657471 383.34084473 171.01564941 382.19438477 171.0559082 381.01318359 C171.0969165 379.81773926 171.1379248 378.62229492 171.18017578 377.390625 C172.97215545 332.58614279 172.97215545 332.58614279 164.4934082 288.82568359 C164.2199707 286.52099609 164.2199707 286.52099609 164.1184082 283.95068359 C164.04493164 282.68611328 164.04493164 282.68611328 163.9699707 281.39599609 C164.54615733 278.56666178 165.39016988 276.82851706 167.55297852 274.87939453 C172.19282364 272.35982086 177.89334244 272.40328744 183.0559082 271.88818359 C201.7875398 269.64470754 218.05957949 265.12961507 234.4934082 255.82568359 C235.48727539 255.27138672 236.48114258 254.71708984 237.50512695 254.14599609 C245.05745989 249.64260784 251.19886393 243.89380541 257.4934082 237.82568359 C258.15211914 237.23013672 258.81083008 236.63458984 259.48950195 236.02099609 C279.19528231 217.72602218 287.52046801 189.91264243 288.4934082 163.82568359 C288.70539173 136.93027389 278.8105534 113.26319171 260.34106445 93.94677734 C258.55524947 91.89667684 257.3575003 90.3982092 256.4934082 87.82568359 C256.88881104 82.82262734 259.48623202 79.14472807 262.02075195 74.93505859 C265.33863512 67.9296607 265.85367928 60.73622434 265.8059082 53.07568359 C265.80461914 52.2082251 265.80333008 51.3407666 265.80200195 50.44702148 C265.70756406 44.08131692 264.87496508 38.40168931 263.1496582 32.25927734 C262.4934082 29.82568359 262.4934082 29.82568359 262.4934082 26.82568359 C243.18129857 32.96282906 225.39765601 41.44230045 208.1965332 52.14599609 C201.09305532 56.56000692 194.35817784 54.56979369 186.5559082 52.95068359 C147.04534828 45.13438951 105.44790693 45.67761566 65.90356445 52.92333984 C64.10053116 53.22622478 62.29714558 53.52702022 60.4934082 53.82568359 C59.12949951 54.09022339 59.12949951 54.09022339 57.73803711 54.36010742 C49.9229489 55.56598616 45.36239017 53.43410605 38.7434082 49.38818359 C36.80865864 48.27204459 34.87376245 47.15615971 32.9387207 46.04052734 C31.54121582 45.21464111 31.54121582 45.21464111 30.11547852 44.37207031 C17.37846626 36.86031653 4.51965046 31.45066948 -9.5065918 26.82568359 C-14.34761057 44.60653244 -16.11046443 63.05147898 -6.71948242 79.58959961 C-4.89135765 82.99283292 -4.48325769 84.67472624 -5.08081055 88.54052734 C-6.4718757 91.74569389 -7.45773196 93.22443339 -10.0690918 95.45068359 C-27.53807854 111.93862217 -35.42759956 136.35631182 -36.5065918 159.82568359 C-37.03324521 184.92752364 -28.20016797 213.20379695 -11.2565918 232.01318359 C-9.69246996 233.63608779 -8.10963794 235.2412158 -6.5065918 236.82568359 C-5.23428711 238.10765625 -5.23428711 238.10765625 -3.9362793 239.41552734 C17.23262983 260.41426839 43.6506065 268.79983329 72.60791016 272.53369141 C73.70578857 272.67645508 74.80366699 272.81921875 75.93481445 272.96630859 C76.91135986 273.08522461 77.88790527 273.20414063 78.89404297 273.32666016 C81.50777866 273.82844242 83.28784688 274.34137506 85.4934082 275.82568359 C89.21844453 281.49697578 87.65215394 288.54030559 86.43481445 294.82177734 C85.98398418 296.9707788 85.52417796 299.1179147 85.0559082 301.26318359 C84.59409075 303.40668925 84.13699406 305.55121787 83.68481445 307.69677734 C83.48057861 308.63448975 83.27634277 309.57220215 83.06591797 310.53833008 C81.62224162 318.82792585 81.34392539 327.03932514 81.3605957 335.43896484 C81.35963898 336.52920456 81.35868225 337.61944427 81.35769653 338.74272156 C81.35701937 341.04291848 81.35884115 343.34311736 81.36303711 345.64331055 C81.36833448 349.09021529 81.36310596 352.53698628 81.35668945 355.98388672 C81.35523726 367.52994245 81.48539353 379.02068097 82.3197937 390.54133606 C82.45263262 392.63270324 82.48304534 394.73012746 82.4934082 396.82568359 C81.8334082 397.48568359 81.1734082 398.14568359 80.4934082 398.82568359 C80.1634082 398.49568359 79.8334082 398.16568359 79.4934082 397.82568359 C77.49375838 397.73810356 75.49104711 397.71871783 73.48950195 397.72802734 C71.84872681 397.73177368 71.84872681 397.73177368 70.17480469 397.7355957 C68.07407593 397.74925171 68.07407593 397.74925171 65.9309082 397.76318359 C59.2793457 397.79412109 59.2793457 397.79412109 52.4934082 397.82568359 C52.1634082 382.64568359 51.8334082 367.46568359 51.4934082 351.82568359 C41.5934082 353.80568359 41.5934082 353.80568359 31.4934082 355.82568359 C6.53703231 356.81080369 -15.51365922 350.90753041 -34.43237305 333.85302734 C-41.05285935 327.55478624 -46.06585096 319.91945698 -51.2565918 312.45068359 C-57.65728193 303.26643752 -63.31273738 297.58414378 -74.3190918 294.32568359 C-78.39338067 293.06222816 -80.27177359 291.58017818 -82.5065918 287.82568359 C-83.1872168 286.71193359 -83.1872168 286.71193359 -83.8815918 285.57568359 C-84.84079221 281.35520177 -84.03528073 277.83667216 -82.5065918 273.82568359 C-79.13043557 269.29198808 -76.00658863 267.86878644 -70.5065918 266.82568359 C-60.92477186 265.69841066 -52.27628995 269.74136874 -44.8190918 275.45068359 C-39.07551314 280.02439933 -34.1711347 285.15421907 -29.5065918 290.82568359 C-28.74604492 291.74736328 -27.98549805 292.66904297 -27.2019043 293.61865234 C-21.43779564 300.65397015 -21.43779564 300.65397015 -18.73706055 304.05224609 C-9.65387835 315.07118843 3.19687422 321.69829148 17.30981445 323.60693359 C29.24247477 324.42684645 40.11662071 322.03988768 51.4934082 318.82568359 C51.62618164 317.87306641 51.75895508 316.92044922 51.89575195 315.93896484 C52.07235352 314.68470703 52.24895508 313.43044922 52.4309082 312.13818359 C52.60493164 310.89681641 52.77895508 309.65544922 52.95825195 308.37646484 C53.39183406 305.49963177 53.91004792 302.67410576 54.4934082 299.82568359 C53.5206897 299.60017822 53.5206897 299.60017822 52.52832031 299.37011719 C39.75484581 296.37776539 27.45197373 293.31828055 15.4934082 287.82568359 C14.36418945 287.32681641 13.2349707 286.82794922 12.0715332 286.31396484 C2.07361948 281.64299384 -6.69962439 275.42547573 -15.5065918 268.82568359 C-16.49530273 268.08705078 -17.48401367 267.34841797 -18.50268555 266.58740234 C-19.49461914 265.71535156 -19.49461914 265.71535156 -20.5065918 264.82568359 C-20.5065918 264.16568359 -20.5065918 263.50568359 -20.5065918 262.82568359 C-21.39411133 262.42542969 -21.39411133 262.42542969 -22.29956055 262.01708984 C-28.51436226 258.66219688 -32.86241276 252.27938616 -37.02612305 246.74365234 C-38.50909598 244.73805811 -38.50909598 244.73805811 -40.5065918 242.82568359 C-41.83387328 240.61067489 -43.1207446 238.39036604 -44.3815918 236.13818359 C-44.72061523 235.538125 -45.05963867 234.93806641 -45.40893555 234.31982422 C-46.09448435 233.1064289 -46.77775064 231.89174118 -47.45874023 230.67578125 C-48.17951947 229.40316591 -48.91269449 228.13751721 -49.65600586 226.87792969 C-52.5065918 222.03193359 -52.5065918 222.03193359 -52.5065918 219.82568359 C-53.1665918 219.49568359 -53.8265918 219.16568359 -54.5065918 218.82568359 C-55.25268555 216.85693359 -55.25268555 216.85693359 -55.9440918 214.32568359 C-56.860272 211.01696424 -57.85925198 207.76411819 -58.97143555 204.51708984 C-70.43489869 170.30065821 -66.60410261 134.01713599 -50.6940918 102.01318359 C-49.97020443 100.6146051 -49.2423496 99.21805394 -48.5065918 97.82568359 C-48.1765918 97.16568359 -47.8465918 96.50568359 -47.5065918 95.82568359 C-43.61142469 90.92065835 -43.61142469 90.92065835 -41.8034668 89.28271484 C-39.74811624 87.18570177 -38.57674913 85.57451909 -37.5065918 82.82568359 C-37.78430197 79.81652272 -38.40151841 77.01332164 -39.12060547 74.08276367 C-42.64495834 58.63571088 -42.3060197 39.96969516 -37.5065918 24.82568359 C-37.12764797 23.54444471 -36.7487438 22.26319409 -36.36987305 20.98193359 C-29.77847277 -0.56036941 -22.0344786 -5.51658805 0 0 Z " fill="#292E32" transform="translate(384.506591796875,328.17431640625)"/>
<path d="M0 0 C10.60556751 3.43121302 15.94464623 13.33752456 22.109375 21.9453125 C24.05111128 24.64718584 26.01361877 27.33080022 28 30 C28.515625 30.69738281 29.03125 31.39476562 29.5625 32.11328125 C39.04031431 43.93685461 53.70673475 51.75345018 68 56 C68 56.33 68 56.66 68 57 C61.34351354 56.56928617 56.56864008 55.34350163 50.75 52.125 C50.01837646 51.72571289 49.28675293 51.32642578 48.53295898 50.91503906 C32.95551326 42.10677874 23.61585719 29.70246989 13.5859375 15.22265625 C9.87796331 10.02601261 6.5810727 6.1891844 1 3 C0.67 2.01 0.34 1.02 0 0 Z " fill="#1B1C1E" transform="translate(318,623)"/>
<path d="M0 0 C0.33 0 0.66 0 1 0 C3.05959606 11.31902649 3.27619475 22.28527987 3.1875 33.75 C3.18063411 35.56371939 3.17412678 37.37744018 3.16796875 39.19116211 C3.1001196 53.14164918 2.73668111 67.06771445 2 81 C1.34 80.67 0.68 80.34 0 80 C0 53.6 0 27.2 0 0 Z " fill="#18191C" transform="translate(556,641)"/>
<path d="M0 0 C1.1650499 2.3300998 1.1209358 3.67247077 1.11352539 6.26611328 C1.11344986 7.14687531 1.11337433 8.02763733 1.11329651 8.93508911 C1.10813522 9.88721283 1.10297394 10.83933655 1.09765625 11.8203125 C1.0962413 12.79410858 1.09482635 13.76790466 1.09336853 14.77120972 C1.08775973 17.88917073 1.07520573 21.0070606 1.0625 24.125 C1.05748613 26.23567605 1.05292303 28.34635322 1.04882812 30.45703125 C1.03863725 35.63807047 1.01906353 40.81895535 1 46 C8.59 46 16.18 46 24 46 C24.33 46.66 24.66 47.32 25 48 C16.42 48.33 7.84 48.66 -1 49 C-1.33 33.82 -1.66 18.64 -2 3 C-3.32 2.34 -4.64 1.68 -6 1 C-4 0 -4 0 0 0 Z " fill="#252629" transform="translate(438,677)"/>
<path d="M0 0 C0.33 0 0.66 0 1 0 C0.93941406 0.6084375 0.87882812 1.216875 0.81640625 1.84375 C0.52480889 4.89430695 0.26219796 7.94677377 0 11 C-0.11859375 12.25425781 -0.2371875 13.50851562 -0.359375 14.80078125 C-1.48725163 27.80575875 -0.77705288 39.20400599 5.78710938 50.76391602 C7.66491811 54.25964088 8.01577703 55.89957314 7.390625 59.87890625 C6.93171875 60.90886719 6.4728125 61.93882812 6 63 C4.515 63.495 4.515 63.495 3 64 C3.14179688 63.42894531 3.28359375 62.85789062 3.4296875 62.26953125 C4.74863798 54.99216411 2.77811573 50.76932623 -0.49609375 44.296875 C-6.6103946 30.89305703 -4.15127735 15.82969903 -1 2 C-0.67 1.34 -0.34 0.68 0 0 Z " fill="#1D1F21" transform="translate(372,357)"/>
<path d="M0 0 C0.68312256 -0.0007251 1.36624512 -0.0014502 2.07006836 -0.00219727 C14.62226535 -0.00073788 27.02536383 0.79034075 39.5 2.1875 C39.5 2.5175 39.5 2.8475 39.5 3.1875 C16.15675933 3.40689136 -7.16617526 2.7781502 -30.5 2.1875 C-30.5 1.8575 -30.5 1.5275 -30.5 1.1875 C-20.32046599 0.39824098 -10.2147256 -0.00502941 0 0 Z " fill="#131517" transform="translate(511.5,372.8125)"/>
<path d="M0 0 C3.80414298 3.290752 5.67921332 7.07947834 7.75 11.5625 C14.2450128 25.0423985 23.37858975 36.55760417 35 46 C34.34 46.66 33.68 47.32 33 48 C31.28580493 46.28580493 29.57185704 44.57137575 27.859375 42.85546875 C26.43661424 41.43569698 25.00210367 40.02769075 23.5625 38.625 C22.716875 37.75875 21.87125 36.8925 21 36 C20.40445312 35.40058594 19.80890625 34.80117188 19.1953125 34.18359375 C12.03562552 26.61995556 0 10.8445636 0 0 Z " fill="#1D1E20" transform="translate(353,529)"/>
<path d="M0 0 C0.33 0 0.66 0 1 0 C0.98428955 0.92635254 0.9685791 1.85270508 0.95239258 2.80712891 C0.90060941 6.31483801 0.86333769 9.8221286 0.83520508 13.33007812 C0.82031569 14.83502701 0.7999973 16.33993411 0.77368164 17.84472656 C0.61673027 27.06485018 1.11221172 35.28161811 3.44799805 44.25537109 C4 47 4 47 3 50 C-3.30629853 41.68715194 -2.31285429 29.5713377 -2.25 19.6875 C-2.25773437 18.45193359 -2.26546875 17.21636719 -2.2734375 15.94335938 C-2.27085937 14.74904297 -2.26828125 13.55472656 -2.265625 12.32421875 C-2.26336914 11.25260498 -2.26111328 10.18099121 -2.25878906 9.0769043 C-1.98197778 5.78572266 -1.16309269 3.08069413 0 0 Z " fill="#1D1F22" transform="translate(346,361)"/>
<path d="M0 0 C1.46571683 0.24598651 2.92030437 0.55878418 4.3671875 0.8984375 C9.96272767 2.08452457 15.41980667 2.43269011 21.125 2.625 C22.55972656 2.68300781 22.55972656 2.68300781 24.0234375 2.7421875 C26.34878199 2.83520128 28.67414335 2.92103771 31 3 C31 3.33 31 3.66 31 4 C12.85 4 -5.3 4 -24 4 C-23.67 3.34 -23.34 2.68 -23 2 C-22.00818726 1.96241577 -22.00818726 1.96241577 -20.99633789 1.92407227 C-18.01817695 1.80846898 -15.0403608 1.68558246 -12.0625 1.5625 C-10.50112305 1.50352539 -10.50112305 1.50352539 -8.90820312 1.44335938 C-7.42416992 1.38051758 -7.42416992 1.38051758 -5.91015625 1.31640625 C-4.53549194 1.26141968 -4.53549194 1.26141968 -3.13305664 1.20532227 C-1.0179272 1.22996136 -1.0179272 1.22996136 0 0 Z " fill="#080A0C" transform="translate(505,344)"/>
<path d="M0 0 C0.99 0.33 1.98 0.66 3 1 C2.04956626 2.33897583 1.08940853 3.67105427 0.125 5 C-0.40867187 5.7425 -0.94234375 6.485 -1.4921875 7.25 C-2.23855469 8.11625 -2.23855469 8.11625 -3 9 C-3.66 9 -4.32 9 -5 9 C-5.21140625 9.556875 -5.4228125 10.11375 -5.640625 10.6875 C-7.46368591 13.78879901 -9.98643457 15.77566685 -12.75 18 C-13.26304687 18.42539062 -13.77609375 18.85078125 -14.3046875 19.2890625 C-17.73842584 22.10162204 -21.27931436 24.59380809 -25 27 C-25.66 26.67 -26.32 26.34 -27 26 C-24.15891255 22.97561659 -21.27148394 20.41070991 -17.9375 17.9375 C-13.81917445 14.79840531 -10.15260401 11.34446728 -6.5 7.6875 C-5.97140381 7.15954834 -5.44280762 6.63159668 -4.89819336 6.08764648 C-2.10590779 3.30143129 -2.10590779 3.30143129 0 0 Z " fill="#232527" transform="translate(650,557)"/>
<path d="M0 0 C7.96082135 2.28053127 14.71337991 5.95042491 21.875 10.0625 C23.00164062 10.69994141 24.12828125 11.33738281 25.2890625 11.99414062 C33.37756225 16.5850415 33.37756225 16.5850415 37 19 C37 19.66 37 20.32 37 21 C31.01116207 19.38112673 25.99765481 16.295425 20.6875 13.1875 C18.87920026 12.13881578 17.07060901 11.09063404 15.26171875 10.04296875 C13.94953369 9.27799072 13.94953369 9.27799072 12.61083984 8.49755859 C9.33986393 6.62135079 6.02319344 4.83580829 2.69067383 3.0715332 C1 2 1 2 0 0 Z " fill="#1F2023" transform="translate(395,360)"/>
<path d="M0 0 C0.33 0 0.66 0 1 0 C1 8.58 1 17.16 1 26 C8.59 26 16.18 26 24 26 C24.33 26.66 24.66 27.32 25 28 C21.39627603 28.19676145 17.7920131 28.38081639 14.1875 28.5625 C13.16333984 28.61857422 12.13917969 28.67464844 11.08398438 28.73242188 C10.10107422 28.78076172 9.11816406 28.82910156 8.10546875 28.87890625 C7.19949951 28.9260376 6.29353027 28.97316895 5.36010742 29.02172852 C3 29 3 29 0 28 C0 18.76 0 9.52 0 0 Z " fill="#090A0B" transform="translate(438,697)"/>
<path d="M0 0 C1.03125 0.78375 2.0625 1.5675 3.125 2.375 C15.73824293 12.01394332 15.73824293 12.01394332 29.42578125 19.96484375 C31 21 31 21 32 24 C20.16511705 19.51234597 8.51226524 11.31852715 0 2 C0 1.34 0 0.68 0 0 Z " fill="#202124" transform="translate(363,589)"/>
<path d="M0 0 C0.33 0 0.66 0 1 0 C1 11.88 1 23.76 1 36 C0.34 36 -0.32 36 -1 36 C-2.60666308 9.82345757 -2.60666308 9.82345757 0 0 Z " fill="#1D1F21" transform="translate(321,473)"/>
<path d="M0 0 C0.33 0 0.66 0 1 0 C1 6.93 1 13.86 1 21 C-6.75058729 21.09118338 -14.29605391 20.8492539 -22 20 C-22 19.34 -22 18.68 -22 18 C-14.74 18 -7.48 18 0 18 C0 12.06 0 6.12 0 0 Z " fill="#0F1012" transform="translate(582,705)"/>
<path d="M0 0 C0.73605469 0.00451172 1.47210937 0.00902344 2.23046875 0.01367188 C4.02868158 0.02534858 5.82685197 0.04327989 7.625 0.0625 C3.15418632 2.93574292 -2.1137133 2.77476093 -7.26367188 3.18554688 C-11.44309863 3.49570722 -11.44309863 3.49570722 -15.07397461 5.37329102 C-17.10651164 8.01227089 -17.0691327 10.82030667 -17.375 14.0625 C-18.035 13.7325 -18.695 13.4025 -19.375 13.0625 C-19.79761236 8.75185398 -19.87062128 6.73304644 -17.25 3.1875 C-12.10293639 -0.61685137 -6.15797867 -0.0723813 0 0 Z " fill="#1C1E20" transform="translate(568.375,600.9375)"/>
<path d="M0 0 C0 0.66 0 1.32 0 2 C-10.04273512 4.2054634 -19.78451249 4.20430975 -30 4 C-30.33 3.34 -30.66 2.68 -31 2 C-26.77107814 1.66351188 -22.54182647 1.33136068 -18.3125 1 C-16.51522461 0.85691406 -16.51522461 0.85691406 -14.68164062 0.7109375 C-13.52470703 0.62070312 -12.36777344 0.53046875 -11.17578125 0.4375 C-10.11270752 0.35371094 -9.04963379 0.26992188 -7.9543457 0.18359375 C-5.29235178 0.0181678 -2.66602163 -0.03448371 0 0 Z " fill="#232427" transform="translate(428,680)"/>
<path d="M0 0 C0.33 0 0.66 0 1 0 C1.0499542 3.96521085 1.08597787 7.93029631 1.10986328 11.89575195 C1.12470245 13.89736377 1.15013361 15.89888812 1.17578125 17.90039062 C1.21124961 24.94086034 0.89368974 31.20806555 -1 38 C-1.33 38 -1.66 38 -2 38 C-2.17331242 29.75081033 -1.62661546 21.59721094 -1 13.375 C-0.85691406 11.43947266 -0.85691406 11.43947266 -0.7109375 9.46484375 C-0.47721854 6.30963781 -0.24016501 3.15472071 0 0 Z " fill="#17191B" transform="translate(674,478)"/>
<path d="M0 0 C1.75 0.0625 1.75 0.0625 4 1 C5.8125 3.875 5.8125 3.875 6.7890625 5.7734375 C8.25649028 8.47161116 9.96952194 10.9545876 11.6875 13.5 C14.47642466 17.82044952 15.88602266 20.87101989 16 26 C13.99055081 22.98582621 12.12494644 19.91197542 10.25 16.8125 C7.42279865 12.16123503 4.44685657 7.73053729 1.03125 3.48828125 C0 2 0 2 0 0 Z " fill="#1C1D1F" transform="translate(673,414)"/>
<path d="M0 0 C0.66 0 1.32 0 2 0 C2.22867275 9.89644867 1.87387655 19.22907228 0 29 C-0.66 29 -1.32 29 -2 29 C-1.34 19.43 -0.68 9.86 0 0 Z " fill="#252628" transform="translate(676,374)"/>
<path d="M0 0 C0.99 0.33 1.98 0.66 3 1 C2.40832031 1.95519531 1.81664062 2.91039062 1.20703125 3.89453125 C-3.39625619 11.40054721 -7.62461026 18.84139464 -11 27 C-11.79560143 24.68687448 -12.11838672 23.38802944 -11.39501953 21.01708984 C-11.06099121 20.33855957 -10.72696289 19.6600293 -10.3828125 18.9609375 C-9.84333984 17.84332031 -9.84333984 17.84332031 -9.29296875 16.703125 C-8.90753906 15.93484375 -8.52210938 15.1665625 -8.125 14.375 C-7.55845703 13.21097656 -7.55845703 13.21097656 -6.98046875 12.0234375 C-5.99812981 10.00981747 -5.00354285 8.00311464 -4 6 C-3.67 5.34 -3.34 4.68 -3 4 C-2.01268258 2.65724831 -1.01405257 1.32267727 0 0 Z " fill="#17191B" transform="translate(340,420)"/>
<path d="M0 0 C5.79240072 0.77036979 11.28124657 2.42909368 16.875 4.0625 C17.84953125 4.34416016 18.8240625 4.62582031 19.828125 4.91601562 C22.21963701 5.60767841 24.61020851 6.30242031 27 7 C24 9 24 9 20.48828125 8.4609375 C19.09229276 8.11495186 17.70041201 7.75208112 16.3125 7.375 C15.59513672 7.1884082 14.87777344 7.00181641 14.13867188 6.80957031 C9.05276545 5.43069377 4.56713256 3.66416066 0 1 C0 0.67 0 0.34 0 0 Z " fill="#1E2022" transform="translate(412,591)"/>
<path d="M0 0 C1.06104672 2.69342628 1.10090564 3.75068061 -0.00390625 6.48046875 C-0.51824219 7.37378906 -1.03257812 8.26710938 -1.5625 9.1875 C-2.11292969 10.1465625 -2.66335938 11.105625 -3.23046875 12.09375 C-5.69910158 16.14819333 -8.28773858 20.10473094 -11 24 C-11.99 23.67 -12.98 23.34 -14 23 C-13.40832031 22.09378906 -12.81664062 21.18757812 -12.20703125 20.25390625 C-7.89893012 13.62367575 -3.68693993 7.00333313 0 0 Z " fill="#1B1D1F" transform="translate(687,547)"/>
<path d="M0 0 C0.66 0 1.32 0 2 0 C3.26171875 1.65234375 3.26171875 1.65234375 4.6875 3.9375 C7.40773797 8.16823867 10.35391162 12.1204565 13.484375 16.0546875 C14.72742011 17.65014231 15.87810089 19.31715134 17 21 C13.98758432 20.66903953 13.04029473 20.04310776 10.9296875 17.78515625 C10.25164062 16.88667969 9.57359375 15.98820313 8.875 15.0625 C6.09473806 11.39378264 6.09473806 11.39378264 3 8 C0 3.5 0 3.5 0 0 Z " fill="#1A1B1C" transform="translate(341,563)"/>
<path d="M0 0 C0.33 0 0.66 0 1 0 C1.19148936 19.34042553 1.19148936 19.34042553 0 29 C-0.33 29 -0.66 29 -1 29 C-3.20630072 19.27462641 -1.92000254 9.6685842 0 0 Z " fill="#151718" transform="translate(347,472)"/>
<path d="M0 0 C1.17949219 0.01804687 2.35898437 0.03609375 3.57421875 0.0546875 C4.92966797 0.08949219 4.92966797 0.08949219 6.3125 0.125 C6.3125 0.455 6.3125 0.785 6.3125 1.125 C5.56484375 1.15078125 4.8171875 1.1765625 4.046875 1.203125 C3.06203125 1.25984375 2.0771875 1.3165625 1.0625 1.375 C0.08796875 1.42140625 -0.8865625 1.4678125 -1.890625 1.515625 C-5.40791911 2.28196282 -6.47465982 3.31206757 -8.6875 6.125 C-9.84223445 8.16962154 -10.92437038 10.25663807 -11.9375 12.375 C-12.45828125 13.45265625 -12.9790625 14.5303125 -13.515625 15.640625 C-13.90234375 16.46046875 -14.2890625 17.2803125 -14.6875 18.125 C-15.88708565 15.23762525 -15.70342261 14.1672734 -14.578125 11.1796875 C-13.76601563 9.60574219 -13.76601563 9.60574219 -12.9375 8 C-12.14085937 6.41832031 -12.14085937 6.41832031 -11.328125 4.8046875 C-8.2838827 -0.16757492 -5.45562868 -0.10803225 0 0 Z " fill="#151719" transform="translate(366.6875,326.875)"/>
<path d="M0 0 C-5.10279286 2.73363903 -9.20281925 3.15679459 -15 3.1875 C-16.8253125 3.20876953 -16.8253125 3.20876953 -18.6875 3.23046875 C-21.7719563 3.01586625 -23.42673876 2.62758774 -26 1 C-17.31320899 0.28038418 -8.71700174 -0.14368684 0 0 Z " fill="#16171A" transform="translate(424,652)"/>
<path d="M0 0 C0 0.66 0 1.32 0 2 C-2.53804458 3.15447871 -5.07993629 4.29868427 -7.625 5.4375 C-8.33785156 5.76298828 -9.05070313 6.08847656 -9.78515625 6.42382812 C-13.86171786 8.23771104 -17.51786507 9.49805744 -22 10 C-19.55522663 7.18604944 -17.01989678 5.92102339 -13.625 4.4375 C-12.68914063 4.02371094 -11.75328125 3.60992187 -10.7890625 3.18359375 C-9.86867188 2.79300781 -8.94828125 2.40242188 -8 2 C-7.12085938 1.61972656 -6.24171875 1.23945313 -5.3359375 0.84765625 C-3 0 -3 0 0 0 Z " fill="#1E1F22" transform="translate(635,357)"/>
<path d="M0 0 C0.87591797 0.32097656 0.87591797 0.32097656 1.76953125 0.6484375 C-8.63305572 8.14441928 -8.63305572 8.14441928 -13.79296875 8.2109375 C-17.23046875 7.6484375 -17.23046875 7.6484375 -19.23046875 5.6484375 C-18.67359375 5.63425781 -18.11671875 5.62007813 -17.54296875 5.60546875 C-11.93973158 5.25526643 -8.53181377 4.00711024 -4.0546875 0.609375 C-2.23046875 -0.3515625 -2.23046875 -0.3515625 0 0 Z " fill="#1D2022" transform="translate(595.23046875,347.3515625)"/>
<path d="M0 0 C0 0.66 0 1.32 0 2 C-2.55781875 3.48780292 -5.12070266 4.96533338 -7.6875 6.4375 C-8.40873047 6.85837891 -9.12996094 7.27925781 -9.87304688 7.71289062 C-13.55781352 9.81606794 -16.70344855 11.53390468 -21 12 C-17.88836586 8.70543303 -14.36602887 6.62107153 -10.5 4.3125 C-9.82324219 3.89677734 -9.14648438 3.48105469 -8.44921875 3.05273438 C-3.36634083 0 -3.36634083 0 0 0 Z " fill="#1C1D1F" transform="translate(611,368)"/>
<path d="M0 0 C3.08044993 1.38347641 5.28546905 3.01600525 7.75 5.3125 C11.12657324 8.35903225 14.57474495 10.72769283 18.53125 12.95703125 C19.0159375 13.30121094 19.500625 13.64539063 20 14 C20 14.66 20 15.32 20 16 C15.29083822 14.71630721 12.43481341 13.00738868 8.875 9.6875 C8.04742187 8.92824219 7.21984375 8.16898438 6.3671875 7.38671875 C4.04562164 5.04599806 2.00689566 2.6126637 0 0 Z " fill="#17191B" transform="translate(363,632)"/>
<path d="M0 0 C0 0.66 0 1.32 0 2 C-15.74487472 7.74031891 -15.74487472 7.74031891 -23 7 C-19.52778475 4.68518983 -16.0076566 3.58998108 -12.0625 2.375 C-11.34642578 2.14554688 -10.63035156 1.91609375 -9.89257812 1.6796875 C-6.40903032 0.59491265 -3.68101033 0 0 0 Z " fill="#1A1B1D" transform="translate(611,618)"/>
<path d="M0 0 C2.52113092 -0.05447822 5.0410585 -0.09389852 7.5625 -0.125 C8.26697266 -0.14175781 8.97144531 -0.15851562 9.69726562 -0.17578125 C14.51891822 -0.22022044 18.42297438 0.47231996 23 2 C23 2.99 23 3.98 23 5 C21.205625 4.566875 21.205625 4.566875 19.375 4.125 C12.97846144 2.69217536 6.49277054 1.86816562 0 1 C0 0.67 0 0.34 0 0 Z " fill="#181A1D" transform="translate(445,601)"/>
<path d="M0 0 C5.39026228 0.52895097 9.24229489 2.46333696 13.875 5.0625 C14.56335938 5.43955078 15.25171875 5.81660156 15.9609375 6.20507812 C17.6449213 7.12893035 19.32307467 8.06339667 21 9 C21 9.66 21 10.32 21 11 C15.99886406 9.51991304 11.67084403 7.3681664 7.125 4.875 C6.43664062 4.50246094 5.74828125 4.12992187 5.0390625 3.74609375 C3.35705202 2.83500474 1.67819564 1.91809685 0 1 C0 0.67 0 0.34 0 0 Z " fill="#1B1C1F" transform="translate(407,338)"/>
<path d="M0 0 C12.87 0.495 12.87 0.495 26 1 C26 1.33 26 1.66 26 2 C19.07 2 12.14 2 5 2 C4.34 3.32 3.68 4.64 3 6 C2.34 6 1.68 6 1 6 C1 5.34 1 4.68 1 4 C0.34 3.67 -0.32 3.34 -1 3 C-0.67 2.01 -0.34 1.02 0 0 Z " fill="#34393D" transform="translate(555,721)"/>
<path d="M0 0 C3.86372194 0.55779084 6.32330495 1.62670526 9.5 3.875 C11.99516256 5.61619858 14.4166429 7.23808166 17.0625 8.75 C17.701875 9.1625 18.34125 9.575 19 10 C19 10.66 19 11.32 19 12 C14.31901072 10.65254881 10.71395856 8.72776271 6.6875 6 C5.63949219 5.29875 4.59148437 4.5975 3.51171875 3.875 C1 2 1 2 0 0 Z " fill="#1C1E20" transform="translate(388,577)"/>
<path d="M0 0 C1 3 1 3 0.28735352 4.90112305 C-0.28607788 5.94586792 -0.28607788 5.94586792 -0.87109375 7.01171875 C-1.48500977 8.14770508 -1.48500977 8.14770508 -2.11132812 9.30664062 C-2.54896484 10.09232422 -2.98660156 10.87800781 -3.4375 11.6875 C-4.0881543 12.88342773 -4.0881543 12.88342773 -4.75195312 14.10351562 C-5.82574763 16.07410554 -6.90864182 18.03909927 -8 20 C-8.66 20 -9.32 20 -10 20 C-7.88238204 12.4014885 -4.43347991 6.49838836 0 0 Z " fill="#1B1C1E" transform="translate(363,433)"/>
<path d="M0 0 C-1 2 -1 2 -4.203125 3.0703125 C-5.54985184 3.43032859 -6.89896211 3.78151579 -8.25 4.125 C-9.25353516 4.39763672 -9.25353516 4.39763672 -10.27734375 4.67578125 C-13.92608714 5.62918571 -17.22814164 6.21929409 -21 6 C-21 5.34 -21 4.68 -21 4 C-18.43923903 3.32595716 -15.87673417 2.660586 -13.3125 2 C-12.59126953 1.80921875 -11.87003906 1.6184375 -11.12695312 1.421875 C-7.33149039 0.45134572 -3.95384561 -0.24955239 0 0 Z " fill="#1C1D20" transform="translate(599,595)"/>
<path d="M0 0 C0 0.66 0 1.32 0 2 C-8.415 2.495 -8.415 2.495 -17 3 C-16.67 2.01 -16.34 1.02 -16 0 C-10.67099269 -1.29188056 -5.28305817 -1.69057861 0 0 Z " fill="#242629" transform="translate(325,596)"/>
<path d="M0 0 C0.66 0 1.32 0 2 0 C0.6961899 4.40035907 -1.01273553 7.96040185 -3.5 11.8125 C-4.1084375 12.76769531 -4.716875 13.72289062 -5.34375 14.70703125 C-7 17 -7 17 -9 18 C-8.09476787 13.7997229 -6.09717906 10.42033539 -3.9375 6.75 C-3.56044922 6.1003125 -3.18339844 5.450625 -2.79492188 4.78125 C-1.86765885 3.18494909 -0.93441544 1.59212471 0 0 Z " fill="#1B1D1F" transform="translate(663,537)"/>
<path d="M0 0 C-11.52164009 6.51936219 -11.52164009 6.51936219 -17 8 C-16 5 -16 5 -13.41796875 3.359375 C-12.35191406 2.82828125 -11.28585937 2.2971875 -10.1875 1.75 C-9.12917969 1.20859375 -8.07085938 0.6671875 -6.98046875 0.109375 C-3.97572265 -1.00903639 -2.89774959 -1.20681097 0 0 Z " fill="#1D1F21" transform="translate(616,338)"/>
<path d="M0 0 C3.29222572 0.26214444 4.22141616 1.22174712 6.61328125 3.6171875 C7.52285241 4.69490355 8.42234211 5.78119448 9.3125 6.875 C9.77978516 7.41769531 10.24707031 7.96039062 10.72851562 8.51953125 C12.05078125 10.1171875 12.05078125 10.1171875 14 13 C13.67 13.99 13.34 14.98 13 16 C3.40546697 5.62642369 3.40546697 5.62642369 0 0 Z " fill="#191B1D" transform="translate(345,611)"/>
<path d="M0 0 C0.66 0 1.32 0 2 0 C4.15721701 7.47321608 5.46530864 14.21038876 5 22 C4.67 22 4.34 22 4 22 C3.32810344 19.08444885 2.66230692 16.16773049 2 13.25 C1.80921875 12.425 1.6184375 11.6 1.421875 10.75 C1.24140625 9.95078125 1.0609375 9.1515625 0.875 8.328125 C0.70742188 7.5949707 0.53984375 6.86181641 0.3671875 6.10644531 C0 4 0 4 0 0 Z " fill="#18191B" transform="translate(671,349)"/>
<path d="M0 0 C2.00720923 0.28674418 4.0085944 0.61866701 6 1 C6 1.66 6 2.32 6 3 C-3.57 3 -13.14 3 -23 3 C-23 2.67 -23 2.34 -23 2 C-22.00818726 1.96241577 -22.00818726 1.96241577 -20.99633789 1.92407227 C-18.01817695 1.80846898 -15.0403608 1.68558246 -12.0625 1.5625 C-10.50112305 1.50352539 -10.50112305 1.50352539 -8.90820312 1.44335938 C-7.42416992 1.38051758 -7.42416992 1.38051758 -5.91015625 1.31640625 C-4.53549194 1.26141968 -4.53549194 1.26141968 -3.13305664 1.20532227 C-1.0179272 1.22996136 -1.0179272 1.22996136 0 0 Z " fill="#353639" transform="translate(505,344)"/>
<path d="M0 0 C1.91541138 -0.10841951 3.83259773 -0.18578079 5.75 -0.25 C6.81734375 -0.29640625 7.8846875 -0.3428125 8.984375 -0.390625 C12.6925772 0.08971207 13.70211386 1.12764232 16 4 C19 8.5 19 8.5 19 11 C15.24623848 9.74874616 14.75926711 8.4347596 13 5 C13 4.34 13 3.68 13 3 C8.71 2.34 4.42 1.68 0 1 C0 0.67 0 0.34 0 0 Z " fill="#1F2123" transform="translate(649,327)"/>
<path d="M0 0 C5.33333333 4 10.66666667 8 16 12 C15.01 12.33 14.02 12.66 13 13 C10.87890625 11.70703125 10.87890625 11.70703125 8.5625 9.8125 C7.80066406 9.20019531 7.03882813 8.58789062 6.25390625 7.95703125 C4.05616622 6.04876824 1.95827697 4.15455074 0 2 C0 1.34 0 0.68 0 0 Z " fill="#191A1C" transform="translate(363,589)"/>
<path d="M0 0 C1.68425161 4.05241145 0.14931311 7.31706259 -1.3125 11.1875 C-1.53873047 11.82880859 -1.76496094 12.47011719 -1.99804688 13.13085938 C-3.73334478 17.86667239 -3.73334478 17.86667239 -6 19 C-5.13463768 12.42324639 -3.70544546 5.55816819 0 0 Z " fill="#181A1C" transform="translate(671,517)"/>
<path d="M0 0 C6.23440168 1.58960332 12.16287645 3.27600901 18 6 C18 6.33 18 6.66 18 7 C12.23826782 6.37372476 6.31618644 5.38311806 1 3 C0.67 2.01 0.34 1.02 0 0 Z " fill="#1C1E20" transform="translate(376,353)"/>
<path d="M0 0 C0.33 0.99 0.66 1.98 1 3 C-2.63 6.96 -6.26 10.92 -10 15 C-10.66 14.34 -11.32 13.68 -12 13 C-11.46890625 12.48050781 -10.9378125 11.96101562 -10.390625 11.42578125 C-6.68949647 7.77192991 -3.12841559 4.17122079 0 0 Z " fill="#1B1C1E" transform="translate(671,573)"/>
<path d="M0 0 C0.33 0 0.66 0 1 0 C1.34855655 7.62951555 1.0017506 13.92444501 -2 21 C-2.33 21 -2.66 21 -3 21 C-2.29411026 13.94110263 -1.21786614 6.98795036 0 0 Z " fill="#151617" transform="translate(699,503)"/>
<path d="M0 0 C0.66 0.99 1.32 1.98 2 3 C1.65066406 3.51949219 1.30132813 4.03898437 0.94140625 4.57421875 C-2.54055504 9.87724314 -2.54055504 9.87724314 -4 16 C-4.66 15.67 -5.32 15.34 -6 15 C-5.54979057 9.14727744 -2.96160773 4.91779881 0 0 Z " fill="#1E2022" transform="translate(648,400)"/>
<path d="M0 0 C0.66 0 1.32 0 2 0 C1.19500136 6.03748977 0.11517502 12.01270113 -1 18 C-1.33 18 -1.66 18 -2 18 C-2.20852314 11.59370576 -2.1583195 6.07027358 0 0 Z " fill="#1B1C1F" transform="translate(324,454)"/>
<path d="M0 0 C0.33 0 0.66 0 1 0 C1.12109311 7.07721931 0.85373239 13.97195301 0 21 C-0.33 21 -0.66 21 -1 21 C-1.94351599 13.46462229 -2.07726572 7.33152608 0 0 Z " fill="#232427" transform="translate(466,631)"/>
<path d="M0 0 C0.99 1.485 0.99 1.485 2 3 C5.39976523 6.87195484 7.99253714 8.71902113 13 10 C13 10.33 13 10.66 13 11 C9.05859564 11.30912975 6.63830712 11.34690605 3.125 9.4375 C0.4228959 6.33802764 0.23316485 4.04152406 0 0 Z " fill="#1C1D1E" transform="translate(302,611)"/>
<path d="M0 0 C0.33 0 0.66 0 1 0 C0.52013969 5.56890517 -0.29915181 10.67067568 -2 16 C-2.66 16 -3.32 16 -4 16 C-3.47606294 10.13190493 -2.23891142 5.45126259 0 0 Z " fill="#1D1F21" transform="translate(352,454)"/>
<path d="M0 0 C2.76276177 0.52268466 5.3260876 1.10869587 8 2 C9.39439664 2.06665376 10.79169875 2.08538199 12.1875 2.0625 C13.445625 2.041875 14.70375 2.02125 16 2 C12.66095496 4.22603003 10.98973099 4.84654881 7 5 C4.43221188 3.90172918 2.34838619 2.54993488 0 1 C0 0.67 0 0.34 0 0 Z " fill="#17191C" transform="translate(431,351)"/>
<path d="M0 0 C5.44208234 0.34013015 8.93668198 3.70296528 13 7 C12.67 7.99 12.34 8.98 12 10 C9.99708788 8.52464063 7.99763223 7.04497707 6 5.5625 C5.42765625 5.14162109 4.8553125 4.72074219 4.265625 4.28710938 C2.82546081 3.21555864 1.41048004 2.11033324 0 1 C0 0.67 0 0.34 0 0 Z " fill="#1A1C1E" transform="translate(331,600)"/>
<path d="M0 0 C3.68465905 3.28987415 5.77894182 6.63720714 8 11 C8 11.99 8 12.98 8 14 C7.34 14 6.68 14 6 14 C4.9923048 12.2335343 3.99408286 10.46166177 3 8.6875 C2.443125 7.70136719 1.88625 6.71523438 1.3125 5.69921875 C0 3 0 3 0 0 Z " fill="#1A1C1E" transform="translate(658,435)"/>
<path d="M0 0 C3.06301002 3.06301002 3.42668454 6.7908485 4 11 C3.625 14.0625 3.625 14.0625 3 16 C2.67 16 2.34 16 2 16 C0.80911014 10.61972975 -0.2919519 5.54708616 0 0 Z " fill="#212325" transform="translate(648,355)"/>
<path d="M0 0 C9.59453303 1.74259681 9.59453303 1.74259681 13 5 C8.428721 4.45144652 4.32564205 3.58255197 0 2 C0 1.34 0 0.68 0 0 Z " fill="#191B1D" transform="translate(384,648)"/>
<path d="M0 0 C0 0.66 0 1.32 0 2 C-1.609375 3.32421875 -1.609375 3.32421875 -3.75 4.6875 C-4.44609375 5.14511719 -5.1421875 5.60273437 -5.859375 6.07421875 C-8.39090725 7.16906025 -9.46100862 6.9435441 -12 6 C-10.37829621 4.99466333 -8.75252763 3.99588093 -7.125 3 C-5.76761719 2.1646875 -5.76761719 2.1646875 -4.3828125 1.3125 C-2 0 -2 0 0 0 Z " fill="#1D1E20" transform="translate(637,605)"/>
<path d="M0 0 C3.29078593 2.79716804 5.06305458 6.19528578 7 10 C6.67 10.66 6.34 11.32 6 12 C3.37591634 9.62582907 1.61386598 7.15088121 0 4 C0 2.68 0 1.36 0 0 Z " fill="#17181A" transform="translate(334,550)"/>
<path d="M0 0 C0.66 0 1.32 0 2 0 C0.32598022 3.95677402 -2.13149285 6.84464213 -5 10 C-5.66 10 -6.32 10 -7 10 C-5.32598022 6.04322598 -2.86850715 3.15535787 0 0 Z " fill="#1B1D1F" transform="translate(372,422)"/>
<path d="M0 0 C2 2 2 2 2.1875 5.375 C2.04410663 8.14727178 1.83710258 10.38405444 1 13 C0.34 13 -0.32 13 -1 13 C-0.67 8.71 -0.34 4.42 0 0 Z " fill="#1E1F21" transform="translate(675,390)"/>
<path d="M0 0 C0.99 0.33 1.98 0.66 3 1 C2.23997083 2.31878578 1.46656347 3.6298684 0.6875 4.9375 C0.25824219 5.66839844 -0.17101562 6.39929688 -0.61328125 7.15234375 C-2 9 -2 9 -5 10 C-4.67 8.02 -4.34 6.04 -4 4 C-3.34 4 -2.68 4 -2 4 C-1.34 2.68 -0.68 1.36 0 0 Z " fill="#1E2022" transform="translate(340,420)"/>
<path d="M0 0 C1.24403138 2.48806276 1.06732288 4.23976186 1 7 C1 7.99 1 8.98 1 10 C0.01 10 -0.98 10 -2 10 C-3.42944945 7.64561267 -4.08661261 6.51967567 -3.625 3.75 C-3.41875 3.1725 -3.2125 2.595 -3 2 C-2.67 2.99 -2.34 3.98 -2 5 C-1.34 3.35 -0.68 1.7 0 0 Z " fill="#34383B" transform="translate(645,410)"/>
<path d="M0 0 C0.66 0 1.32 0 2 0 C6.09030544 5.14209827 6.09030544 5.14209827 5.75 8.375 C5.5025 8.91125 5.255 9.4475 5 10 C2.81434857 7.81434857 1.45914246 5.71931095 0 3 C0 2.01 0 1.02 0 0 Z " fill="#212325" transform="translate(341,563)"/>
<path d="M0 0 C2.00293347 3.00440021 2.49271626 4.70993945 3.125 8.1875 C3.37636719 9.53908203 3.37636719 9.53908203 3.6328125 10.91796875 C3.75398438 11.60503906 3.87515625 12.29210937 4 13 C3.67 12.34 3.34 11.68 3 11 C2.34 11 1.68 11 1 11 C-0.17571451 7.32589215 -0.07366746 3.83070817 0 0 Z " fill="#17181A" transform="translate(324,521)"/>
<path d="M0 0 C0.99 0.33 1.98 0.66 3 1 C0.36 2.98 -2.28 4.96 -5 7 C-5.66 6.67 -6.32 6.34 -7 6 C-2.25 1.125 -2.25 1.125 0 0 Z " fill="#1B1D20" transform="translate(630,577)"/>
<path d="M0 0 C2.7710688 2.34591852 3.52059284 4.14776201 4.1875 7.6875 C4.34605469 8.49574219 4.50460937 9.30398438 4.66796875 10.13671875 C4.77753906 10.75160156 4.88710938 11.36648438 5 12 C2.35758939 9.50237902 1.11028431 7.50166589 0 4 C0 2.68 0 1.36 0 0 Z " fill="#161819" transform="translate(666,450)"/>
<path d="M0 0 C3.87915244 0.57468925 6.14756605 2.37884447 9 5 C9.33 5.99 9.66 6.98 10 8 C6.05205855 6.32971708 3.18203882 3.8204435 0 1 C0 0.67 0 0.34 0 0 Z " fill="#212224" transform="translate(349,660)"/>
<path d="M0 0 C2.64465038 3.1254959 3.84414715 6.08788267 5 10 C3.68 9.67 2.36 9.34 1 9 C0.67 6.03 0.34 3.06 0 0 Z " fill="#1C1E1F" transform="translate(329,538)"/>
<path d="M0 0 C2.31 1.98 4.62 3.96 7 6 C6.67 6.99 6.34 7.98 6 9 C4.99105628 8.07213211 3.99309093 7.13231567 3 6.1875 C2.1646875 5.40439453 2.1646875 5.40439453 1.3125 4.60546875 C0 3 0 3 0 0 Z " fill="#1C1D1F" transform="translate(644,418)"/>
<path d="M0 0 C0.66 0 1.32 0 2 0 C2 0.66 2 1.32 2 2 C2.99 2 3.98 2 5 2 C4.34 3.32 3.68 4.64 3 6 C2.34 6 1.68 6 1 6 C1 5.34 1 4.68 1 4 C0.34 3.67 -0.32 3.34 -1 3 C-0.67 2.01 -0.34 1.02 0 0 Z " fill="#2C2D30" transform="translate(555,721)"/>
<path d="M0 0 C0.33 0 0.66 0 1 0 C1.19294408 4.82360189 0.75747614 8.49646738 -1 13 C-1.33 13 -1.66 13 -2 13 C-2.19294408 8.17639811 -1.75747614 4.50353262 0 0 Z " fill="#0B0D10" transform="translate(440,631)"/>
<path d="M0 0 C0.66 0 1.32 0 2 0 C1.67 3.3 1.34 6.6 1 10 C0.34 9.67 -0.32 9.34 -1 9 C-1.125 2.25 -1.125 2.25 0 0 Z " fill="#131316" transform="translate(550,605)"/>
<path d="M0 0 C0 0.66 0 1.32 0 2 C-4.455 2.495 -4.455 2.495 -9 3 C-9.33 2.34 -9.66 1.68 -10 1 C-6.59437148 0.22157062 -3.49234244 -0.09978121 0 0 Z " fill="#202224" transform="translate(449,379)"/>
<path d="M0 0 C0.90105469 0.01804687 1.80210937 0.03609375 2.73046875 0.0546875 C3.41753906 0.07789063 4.10460937 0.10109375 4.8125 0.125 C4.8125 0.455 4.8125 0.785 4.8125 1.125 C3.39872218 1.49052803 1.98129424 1.84195495 0.5625 2.1875 C-0.22640625 2.38472656 -1.0153125 2.58195312 -1.828125 2.78515625 C-4.29144822 3.13997267 -5.84354132 2.89377544 -8.1875 2.125 C-4.87379 -0.08414 -3.8428979 -0.09981553 0 0 Z " fill="#151718" transform="translate(642.1875,327.875)"/>
<path d="M0 0 C-1.14018002 3.42054006 -1.92458518 4.2426201 -5 6 C-7.13671875 5.578125 -7.13671875 5.578125 -9 5 C-7.87926138 4.16094435 -6.75325453 3.32892169 -5.625 2.5 C-4.99851562 2.0359375 -4.37203125 1.571875 -3.7265625 1.09375 C-2 0 -2 0 0 0 Z " fill="#1B1C1E" transform="translate(647,598)"/>
<path d="M0 0 C4.29 0.33 8.58 0.66 13 1 C13 1.33 13 1.66 13 2 C10.36 2.33 7.72 2.66 5 3 C5 2.34 5 1.68 5 1 C3.35 1 1.7 1 0 1 C0 0.67 0 0.34 0 0 Z " fill="#33363B" transform="translate(571,600)"/>
<path d="M0 0 C3.83736322 0.95934081 4.59660228 1.23609263 7 4 C6.67 4.99 6.34 5.98 6 7 C4.02 4.69 2.04 2.38 0 0 Z " fill="#252728" transform="translate(356,584)"/>
<path d="M0 0 C2.5 2.3125 2.5 2.3125 5 5 C5 5.99 5 6.98 5 8 C2.5 5.6875 2.5 5.6875 0 3 C0 2.01 0 1.02 0 0 Z " fill="#1B1D1F" transform="translate(652,427)"/>
<path d="M0 0 C3.96 0 7.92 0 12 0 C12.33 0.99 12.66 1.98 13 3 C8.71 2.34 4.42 1.68 0 1 C0 0.67 0 0.34 0 0 Z " fill="#111113" transform="translate(649,327)"/>
<path d="M0 0 C4.875 4.75 4.875 4.75 6 7 C3.13275314 6.42655063 2.1385485 6.1385485 0 4 C0 2.68 0 1.36 0 0 Z " fill="#25272A" transform="translate(359,625)"/>
<path d="M0 0 C0.99 0 1.98 0 3 0 C1.70700306 2.88437779 0.34058637 4.87219421 -2 7 C-1.125 2.25 -1.125 2.25 0 0 Z " fill="#17191B" transform="translate(304,599)"/>
<path d="M0 0 C2.64 0.33 5.28 0.66 8 1 C8 1.66 8 2.32 8 3 C2.25 3.125 2.25 3.125 0 2 C0 1.34 0 0.68 0 0 Z " fill="#26282A" transform="translate(432,380)"/>
<path d="M0 0 C0.33 1.32 0.66 2.64 1 4 C0.34 3.34 -0.32 2.68 -1 2 C-0.67 1.34 -0.34 0.68 0 0 Z " fill="#414547" transform="translate(345,407)"/>
<path d="M0 0 C0.66 0.33 1.32 0.66 2 1 C1.01 1 0.02 1 -1 1 C-0.67 0.67 -0.34 0.34 0 0 Z " fill="#424345" transform="translate(410,621)"/>
<path d="M0 0 C3 1 3 1 3 1 Z " fill="#444648" transform="translate(401,685)"/>
<path d="M0 0 C3 1 3 1 3 1 Z " fill="#404244" transform="translate(421,592)"/>
<path d="M0 0 C3 1 3 1 3 1 Z " fill="#414346" transform="translate(336,563)"/>
<path d="" fill="#434548" transform="translate(0,0)"/>
<path d="M0 0 C3 1 3 1 3 1 Z " fill="#414244" transform="translate(561,380)"/>
<path d="M0 0 C2 1 2 1 2 1 Z " fill="#444648" transform="translate(409,685)"/>
<path d="M0 0 C2 1 2 1 2 1 Z " fill="#454749" transform="translate(385,683)"/>
<path d="" fill="#454648" transform="translate(0,0)"/>
<path d="" fill="#434549" transform="translate(0,0)"/>
<path d="M0 0 C2 1 2 1 2 1 Z " fill="#454448" transform="translate(304,621)"/>
<path d="" fill="#454749" transform="translate(0,0)"/>
<path d="" fill="#474749" transform="translate(0,0)"/>
<path d="M0 0 C2 1 2 1 2 1 Z " fill="#3F4144" transform="translate(588,383)"/>
<path d="M0 0 C2 1 2 1 2 1 Z " fill="#414246" transform="translate(570,381)"/>
<path d="" fill="#434548" transform="translate(0,0)"/>
<path d="M0 0 C2 1 2 1 2 1 Z " fill="#434346" transform="translate(397,367)"/>
<path d="M0 0 C2 1 2 1 2 1 Z " fill="#414244" transform="translate(397,364)"/>
<path d="M0 0 C2 1 2 1 2 1 Z " fill="#414246" transform="translate(496,344)"/>
<path d="" fill="#4B4B4B" transform="translate(0,0)"/>
<path d="" fill="#454548" transform="translate(0,0)"/>
<path d="" fill="#46484B" transform="translate(0,0)"/>
<path d="" fill="#474849" transform="translate(0,0)"/>
<path d="" fill="#454448" transform="translate(0,0)"/>
<path d="" fill="#47474D" transform="translate(0,0)"/>
<path d="" fill="#45464B" transform="translate(0,0)"/>
<path d="" fill="#434647" transform="translate(0,0)"/>
<path d="" fill="#444447" transform="translate(0,0)"/>
<path d="" fill="#414345" transform="translate(0,0)"/>
<path d="" fill="#454648" transform="translate(0,0)"/>
<path d="" fill="#434549" transform="translate(0,0)"/>
<path d="" fill="#454548" transform="translate(0,0)"/>
<path d="" fill="#444648" transform="translate(0,0)"/>
<path d="" fill="#444448" transform="translate(0,0)"/>
<path d="" fill="#434449" transform="translate(0,0)"/>
<path d="" fill="#454547" transform="translate(0,0)"/>
<path d="" fill="#434446" transform="translate(0,0)"/>
<path d="" fill="#434448" transform="translate(0,0)"/>
<path d="" fill="#444448" transform="translate(0,0)"/>
<path d="" fill="#434446" transform="translate(0,0)"/>
<path d="" fill="#424444" transform="translate(0,0)"/>
<path d="" fill="#434246" transform="translate(0,0)"/>
<path d="" fill="#444548" transform="translate(0,0)"/>
<path d="" fill="#444647" transform="translate(0,0)"/>
<path d="" fill="#424144" transform="translate(0,0)"/>
<path d="" fill="#424547" transform="translate(0,0)"/>
<path d="" fill="#434449" transform="translate(0,0)"/>
<path d="" fill="#414447" transform="translate(0,0)"/>
<path d="" fill="#444749" transform="translate(0,0)"/>
<path d="" fill="#444448" transform="translate(0,0)"/>
<path d="" fill="#47494B" transform="translate(0,0)"/>
<path d="" fill="#414446" transform="translate(0,0)"/>
<path d="" fill="#444449" transform="translate(0,0)"/>
<path d="" fill="#444547" transform="translate(0,0)"/>
<path d="" fill="#48494E" transform="translate(0,0)"/>
<path d="" fill="#404243" transform="translate(0,0)"/>
<path d="" fill="#424545" transform="translate(0,0)"/>
<path d="" fill="#424446" transform="translate(0,0)"/>
<path d="" fill="#434349" transform="translate(0,0)"/>
<path d="" fill="#464A4B" transform="translate(0,0)"/>
<path d="" fill="#424445" transform="translate(0,0)"/>
<path d="" fill="#414447" transform="translate(0,0)"/>
<path d="" fill="#404348" transform="translate(0,0)"/>
<path d="" fill="#424649" transform="translate(0,0)"/>
<path d="" fill="#4A4A4E" transform="translate(0,0)"/>
<path d="" fill="#444646" transform="translate(0,0)"/>
<path d="" fill="#434246" transform="translate(0,0)"/>
<path d="" fill="#434448" transform="translate(0,0)"/>
<path d="" fill="#444448" transform="translate(0,0)"/>
<path d="" fill="#434346" transform="translate(0,0)"/>
<path d="" fill="#424547" transform="translate(0,0)"/>
<path d="" fill="#454547" transform="translate(0,0)"/>
<path d="" fill="#424446" transform="translate(0,0)"/>
<path d="" fill="#414446" transform="translate(0,0)"/>
<path d="" fill="#434548" transform="translate(0,0)"/>
<path d="" fill="#434446" transform="translate(0,0)"/>
<path d="" fill="#414548" transform="translate(0,0)"/>
<path d="" fill="#404548" transform="translate(0,0)"/>
<path d="" fill="#404144" transform="translate(0,0)"/>
<path d="" fill="#444649" transform="translate(0,0)"/>
<path d="" fill="#444346" transform="translate(0,0)"/>
<path d="" fill="#414145" transform="translate(0,0)"/>
<path d="" fill="#424646" transform="translate(0,0)"/>
<path d="" fill="#424245" transform="translate(0,0)"/>
<path d="" fill="#46484B" transform="translate(0,0)"/>
<path d="" fill="#47464B" transform="translate(0,0)"/>
<path d="" fill="#424447" transform="translate(0,0)"/>
<path d="" fill="#454649" transform="translate(0,0)"/>
<path d="" fill="#424345" transform="translate(0,0)"/>
<path d="" fill="#444749" transform="translate(0,0)"/>
<path d="" fill="#44464A" transform="translate(0,0)"/>
<path d="" fill="#424446" transform="translate(0,0)"/>
<path d="" fill="#454547" transform="translate(0,0)"/>
<path d="" fill="#414448" transform="translate(0,0)"/>
<path d="" fill="#44474B" transform="translate(0,0)"/>
<path d="" fill="#434446" transform="translate(0,0)"/>
<path d="" fill="#404445" transform="translate(0,0)"/>
<path d="" fill="#45454A" transform="translate(0,0)"/>
<path d="" fill="#45484A" transform="translate(0,0)"/>
<path d="" fill="#444849" transform="translate(0,0)"/>
<path d="" fill="#424245" transform="translate(0,0)"/>
<path d="" fill="#444748" transform="translate(0,0)"/>
<path d="" fill="#3C3E3E" transform="translate(0,0)"/>
<path d="" fill="#424445" transform="translate(0,0)"/>
<path d="" fill="#414445" transform="translate(0,0)"/>
<path d="" fill="#464848" transform="translate(0,0)"/>
<path d="" fill="#424748" transform="translate(0,0)"/>
<path d="" fill="#424547" transform="translate(0,0)"/>
<path d="" fill="#414246" transform="translate(0,0)"/>
<path d="" fill="#444448" transform="translate(0,0)"/>
<path d="" fill="#424347" transform="translate(0,0)"/>
<path d="" fill="#424347" transform="translate(0,0)"/>
<path d="" fill="#424648" transform="translate(0,0)"/>
<path d="" fill="#434447" transform="translate(0,0)"/>
<path d="" fill="#444546" transform="translate(0,0)"/>
<path d="" fill="#424447" transform="translate(0,0)"/>
<path d="" fill="#404346" transform="translate(0,0)"/>
<path d="" fill="#444647" transform="translate(0,0)"/>
<path d="" fill="#424547" transform="translate(0,0)"/>
<path d="" fill="#434549" transform="translate(0,0)"/>
<path d="" fill="#444546" transform="translate(0,0)"/>
<path d="" fill="#424447" transform="translate(0,0)"/>
<path d="" fill="#424447" transform="translate(0,0)"/>
<path d="" fill="#444548" transform="translate(0,0)"/>
<path d="" fill="#414245" transform="translate(0,0)"/>
<path d="" fill="#434345" transform="translate(0,0)"/>
<path d="" fill="#434447" transform="translate(0,0)"/>
<path d="" fill="#434348" transform="translate(0,0)"/>
<path d="" fill="#454547" transform="translate(0,0)"/>
<path d="" fill="#424446" transform="translate(0,0)"/>
<path d="" fill="#424644" transform="translate(0,0)"/>
<path d="" fill="#424448" transform="translate(0,0)"/>
<path d="" fill="#414546" transform="translate(0,0)"/>
<path d="" fill="#404345" transform="translate(0,0)"/>
<path d="" fill="#3E4045" transform="translate(0,0)"/>
<path d="" fill="#3E4142" transform="translate(0,0)"/>
<path d="" fill="#474B4C" transform="translate(0,0)"/>
<path d="" fill="#454448" transform="translate(0,0)"/>
<path d="" fill="#424246" transform="translate(0,0)"/>
<path d="" fill="#434447" transform="translate(0,0)"/>
<path d="" fill="#454848" transform="translate(0,0)"/>
<path d="" fill="#454649" transform="translate(0,0)"/>
<path d="" fill="#444648" transform="translate(0,0)"/>
<path d="" fill="#434649" transform="translate(0,0)"/>
<path d="" fill="#454547" transform="translate(0,0)"/>
<path d="" fill="#434447" transform="translate(0,0)"/>
<path d="" fill="#454748" transform="translate(0,0)"/>
<path d="" fill="#434747" transform="translate(0,0)"/>
<path d="" fill="#464647" transform="translate(0,0)"/>
<path d="" fill="#565656" transform="translate(0,0)"/>
</svg>
