<svg width="21" height="16" viewBox="0 0 21 16" fill="none" xmlns="http://www.w3.org/2000/svg">
<path d="M8.78876 15.9951C8.78876 15.1739 9.45601 14.5169 10.267 14.5169C11.0882 14.5169 11.7452 15.1842 11.7452 15.9951H15.3689C15.3689 15.9849 15.3689 15.9746 15.3689 15.9643C15.3484 13.1413 13.0489 10.8624 10.2259 10.883C7.41319 10.8932 5.14453 13.1824 5.14453 15.9951H8.78876Z" fill="black"/>
<path d="M10.2615 0C7.46933 0 5.21094 2.25839 5.21094 5.05058C5.21094 7.84277 7.46933 10.1012 10.2615 10.1012C13.0537 10.1012 15.3121 7.84277 15.3121 5.05058C15.3018 2.25839 13.0434 0 10.2615 0ZM10.2615 6.50827C9.45055 6.50827 8.79356 5.85129 8.79356 5.04032C8.79356 4.22935 9.45055 3.57237 10.2615 3.57237C11.0725 3.57237 11.7295 4.22935 11.7295 5.04032C11.7295 5.85129 11.0622 6.50827 10.2615 6.50827Z" fill="black"/>
<path d="M16.771 11.086C15.9395 11.086 15.1901 11.3734 14.5742 11.8354C15.2004 12.4821 15.6829 13.2622 15.9703 14.1348C16.1654 13.8987 16.4528 13.7345 16.7915 13.7345C17.3869 13.7345 17.8797 14.2169 17.8797 14.8226H20.5282C20.5282 14.8123 20.5282 14.8123 20.5282 14.8021C20.5179 12.7387 18.8344 11.0757 16.771 11.086Z" fill="black"/>
<path d="M16.7915 3.125C16.4938 3.125 16.2063 3.17633 15.9189 3.23792C16.1037 3.80252 16.1961 4.40817 16.1961 5.04463C16.1961 5.36285 16.1653 5.68109 16.1139 5.98905C16.2987 5.84534 16.5246 5.74268 16.7812 5.74268C17.3766 5.74268 17.8488 6.22515 17.8488 6.81028C17.8488 7.40567 17.3663 7.87788 16.7812 7.87788C16.3295 7.87788 15.9394 7.59045 15.7855 7.1901C15.4467 8.06266 14.9026 8.83256 14.2148 9.44849C14.8821 10.0952 15.7855 10.4956 16.7812 10.4956C18.824 10.4956 20.4767 8.84283 20.4767 6.80001C20.487 4.77773 18.8343 3.125 16.7915 3.125Z" fill="black"/>
<path d="M4.56811 14.1451C4.85554 13.2725 5.33801 12.4821 5.95394 11.8354C5.33801 11.3734 4.58864 11.0963 3.75714 11.086C1.69379 11.0757 0.0102654 12.7387 0 14.8021C0 14.8123 0 14.8123 0 14.8226H2.64847C2.64847 14.2272 3.13095 13.7345 3.73661 13.7345C4.07537 13.7447 4.37307 13.909 4.56811 14.1451Z" fill="black"/>
<path d="M4.74452 7.1901C4.59054 7.59045 4.20046 7.87788 3.74878 7.87788C3.15339 7.87788 2.68118 7.39541 2.68118 6.81028C2.68118 6.21488 3.16365 5.74268 3.74878 5.74268C4.00542 5.74268 4.24152 5.83507 4.41603 5.98905C4.36471 5.68109 4.33391 5.36285 4.33391 5.04463C4.33391 4.41844 4.43657 3.81278 4.61108 3.23792C4.33391 3.16606 4.04648 3.125 3.73852 3.125C1.6957 3.125 0.0429688 4.77773 0.0429688 6.82055C0.0429688 8.86336 1.6957 10.5161 3.73852 10.5161C4.73426 10.5161 5.63762 10.1157 6.30487 9.46902C5.62735 8.84283 5.08328 8.06266 4.74452 7.1901Z" fill="black"/>
</svg>
