<svg width="20" height="19" viewBox="0 0 20 19" fill="none" xmlns="http://www.w3.org/2000/svg">
<path d="M5.77175 11.517L5.83867 11.31L5.73281 11.1199C5.33089 10.3983 5.0957 9.58109 5.0957 8.70217C5.0957 5.98713 7.2928 3.79004 10.0078 3.79004C12.7132 3.79004 14.919 5.9871 14.9099 8.71051V8.71218C14.9099 11.4272 12.7129 13.6243 9.99785 13.6243C9.06382 13.6243 8.20291 13.3619 7.45703 12.9071L7.25441 12.7835L7.03058 12.8624L5.12986 13.5321C5.12955 13.5318 5.12922 13.5314 5.12886 13.531C5.126 13.5279 5.12478 13.5248 5.12444 13.5232C5.12432 13.5226 5.12425 13.522 5.12431 13.5212C5.12436 13.5204 5.12459 13.5177 5.12632 13.5129L5.12903 13.5054L5.13149 13.4978L5.77175 11.517Z" fill="black" stroke="black"/>
<path d="M1.66085 8.73341C1.66085 9.50296 1.764 10.2486 1.96113 10.9549L1.93163 10.9411C1.08777 10.5484 0.5 9.69887 0.5 8.71341C0.5 7.71961 1.08604 6.87994 1.93994 6.48648L1.96564 6.47463C1.95915 6.49917 1.95279 6.52385 1.94657 6.54868C1.76704 7.23594 1.66085 7.97785 1.66085 8.73341ZM18.0164 6.45271L18.068 6.47648C18.8112 6.81888 19.3742 7.52677 19.4816 8.39469C19.6133 9.47555 19.023 10.4803 18.0282 10.965L18.0248 10.9667C18.223 10.2542 18.327 9.50613 18.327 8.73341C18.327 7.98252 18.232 7.24963 18.0407 6.54615C18.0328 6.51477 18.0247 6.48363 18.0164 6.45271ZM10.6967 16.6978L10.8113 16.9583L10.7539 17.2502C10.6685 17.6833 10.2979 17.9972 9.85387 17.9972C9.34972 17.9972 8.93333 17.5809 8.93333 17.0767C8.93333 16.5725 9.34971 16.1561 9.85387 16.1561C10.2341 16.1561 10.5558 16.3776 10.6967 16.6978Z" fill="black" stroke="black"/>
</svg>
