<svg width="12" height="12" viewBox="0 0 12 12" fill="none" xmlns="http://www.w3.org/2000/svg">
<path d="M12 6C12 9.31371 9.31371 12 6 12C2.68629 12 0 9.31371 0 6C0 2.68629 2.68629 0 6 0C9.31371 0 12 2.68629 12 6Z" fill="white"/>
<path d="M5.5245 8.68827L9.1245 5.43026C9.5805 5.01626 9.6105 4.31427 9.2025 3.86427C8.7885 3.40827 8.0925 3.37826 7.6365 3.78626L5.2365 5.95826C5.1405 6.04226 4.9965 6.03626 4.9065 5.94026L4.1025 5.05826C3.6825 4.59626 2.9745 4.56626 2.5125 4.98026C2.0385 5.40626 2.0145 6.14427 2.4585 6.60027L4.4445 8.65227C4.7325 8.95227 5.2125 8.97027 5.5245 8.68827Z" fill="#00D7BD"/>
</svg>
