<svg width="30" height="30" viewBox="0 0 30 30" fill="none" xmlns="http://www.w3.org/2000/svg">
<path d="M15 1.45714C22.4657 1.45714 28.5429 7.53429 28.5429 15C28.5429 22.4657 22.4657 28.5429 15 28.5429C7.53429 28.5429 1.45714 22.4657 1.45714 15C1.45714 7.53429 7.53429 1.45714 15 1.45714ZM15 0C6.72 0 0 6.72 0 15C0 23.28 6.72 30 15 30C23.28 30 30 23.28 30 15C30 6.72 23.28 0 15 0Z" fill="black"/>
<path d="M19.2242 7.73929C20.8957 7.73929 22.2585 9.10214 22.2585 10.7736V19.2164C22.2585 20.8879 20.8957 22.2507 19.2242 22.2507H10.7814C9.10996 22.2507 7.7471 20.8879 7.7471 19.2164V10.7736C7.7471 9.10214 9.10996 7.73929 10.7814 7.73929H19.2242ZM19.2242 6.625H10.7814C8.49281 6.625 6.63281 8.485 6.63281 10.7736V19.2164C6.63281 21.505 8.49281 23.365 10.7814 23.365H19.2242C21.5128 23.365 23.3728 21.505 23.3728 19.2164V10.7736C23.3728 8.485 21.5128 6.625 19.2242 6.625Z" fill="black"/>
<path d="M15.0009 12.0948C16.6809 12.0948 18.0437 13.4576 18.0437 15.1376C18.0437 16.8176 16.6809 18.1805 15.0009 18.1805C13.3209 18.1805 11.958 16.8176 11.958 15.1376C11.958 13.4576 13.3209 12.0948 15.0009 12.0948ZM15.0009 10.9805C12.7038 10.9805 10.8438 12.8405 10.8438 15.1376C10.8438 17.4348 12.7038 19.2948 15.0009 19.2948C17.298 19.2948 19.158 17.4348 19.158 15.1376C19.158 12.8405 17.298 10.9805 15.0009 10.9805Z" fill="black"/>
<path d="M19.9956 11.0849C20.6015 11.0849 21.0927 10.5937 21.0927 9.98777C21.0927 9.38183 20.6015 8.89062 19.9956 8.89062C19.3896 8.89062 18.8984 9.38183 18.8984 9.98777C18.8984 10.5937 19.3896 11.0849 19.9956 11.0849Z" fill="black"/>
</svg>
