<svg width="34" height="45" viewBox="0 0 34 45" fill="none" xmlns="http://www.w3.org/2000/svg">
<path d="M28.4228 4.16424V4.66424H28.9228H30.6336C31.708 4.66424 32.5871 5.54333 32.5871 6.61775C32.5871 7.69218 31.708 8.57129 30.6336 8.57129H28.9228H28.4228V9.07129V10.782C28.4228 11.8564 27.5438 12.7355 26.4693 12.7355C25.3949 12.7355 24.5158 11.8564 24.5158 10.782V9.07129V8.57129H24.0158H22.3051C21.2307 8.57129 20.3516 7.69217 20.3516 6.61775C20.3516 5.54333 21.2307 4.66424 22.3051 4.66424H24.0158H24.5158V4.16424V2.45352C24.5158 1.3791 25.3949 0.5 26.4693 0.5C27.5438 0.5 28.4228 1.37909 28.4228 2.45352V4.16424Z" fill="black" stroke="black"/>
<path d="M13.3252 40.693C11.1247 40.693 9.29937 42.3614 9.05009 44.4971H0.689391C0.950654 37.7774 6.45507 32.3943 13.2375 32.3516C20.0644 32.3308 25.6661 37.7281 25.9381 44.4971H17.6003C17.351 42.3614 15.5256 40.693 13.3252 40.693Z" fill="black" stroke="black"/>
<path d="M17.0712 6.60645C17.0712 9.16145 18.8938 11.29 21.3203 11.7499C21.7455 13.9602 23.5449 15.6626 25.7969 15.9579C25.8172 16.2563 25.8274 16.5582 25.8274 16.8707C25.8274 23.7751 20.2438 29.3587 13.3395 29.3587C6.43512 29.3587 0.851562 23.7751 0.851562 16.8707C0.851562 9.96639 6.43512 4.38281 13.3395 4.38281C14.741 4.38281 16.0759 4.62139 17.3302 5.03965C17.1694 5.53402 17.0712 6.06006 17.0712 6.60645ZM9.0579 16.8707C9.0579 19.2178 10.97 21.1298 13.317 21.1298C15.6884 21.1298 17.576 19.2158 17.576 16.8707C17.576 14.5237 15.664 12.6117 13.317 12.6117C10.97 12.6117 9.0579 14.5237 9.0579 16.8707Z" fill="black" stroke="black"/>
</svg>
