<svg width="20" height="20" viewBox="0 0 20 20" fill="none" xmlns="http://www.w3.org/2000/svg">
<path d="M18.2385 0.953895C18.6836 0.953895 19.0461 1.31638 19.0461 1.76153V18.2385C19.0461 18.6836 18.6836 19.0461 18.2385 19.0461H1.76153C1.31638 19.0461 0.953895 18.6836 0.953895 18.2385V1.76153C0.953895 1.31638 1.31638 0.953895 1.76153 0.953895H18.2385ZM18.2385 0H1.76153C0.788553 0 0 0.788553 0 1.76153V18.2385C0 19.2114 0.788553 20 1.76153 20H18.2385C19.2114 20 20 19.2114 20 18.2385V1.76153C20 0.788553 19.2114 0 18.2385 0Z" fill="#010101"/>
<path d="M2.05301 17.3296L7.05142 8.55376C7.13409 8.4075 7.3503 8.39478 7.44569 8.54105L10.8479 13.6666C11.2104 14.2135 12.018 14.2008 12.3678 13.6412L13.4425 11.9051C13.5252 11.7652 13.7223 11.7589 13.8241 11.886L17.9258 17.3042C18.0149 17.4186 17.9322 17.5903 17.7859 17.5903H2.21199C2.07208 17.5967 1.98941 17.4504 2.05301 17.3296Z" fill="#010101"/>
<path d="M14.468 7.8735C15.8623 7.8735 16.9926 6.74318 16.9926 5.34886C16.9926 3.95454 15.8623 2.82422 14.468 2.82422C13.0737 2.82422 11.9434 3.95454 11.9434 5.34886C11.9434 6.74318 13.0737 7.8735 14.468 7.8735Z" fill="#010101"/>
</svg>
