<svg width="30" height="30" viewBox="0 0 30 30" fill="none" xmlns="http://www.w3.org/2000/svg">
<path d="M15 1.45714C22.4657 1.45714 28.5429 7.53429 28.5429 15C28.5429 22.4657 22.4657 28.5429 15 28.5429C7.53429 28.5429 1.45714 22.4657 1.45714 15C1.45714 7.53429 7.53429 1.45714 15 1.45714ZM15 0C6.72 0 0 6.72 0 15C0 23.28 6.72 30 15 30C23.28 30 30 23.28 30 15C30 6.72 23.28 0 15 0Z" fill="black"/>
<path d="M10.665 11.4453H7.125V22.4253H10.665V11.4453Z" stroke="black" stroke-width="1.3" stroke-miterlimit="10"/>
<path d="M23.3799 15.4302V22.433H19.8399V15.9787C19.8399 15.1302 19.2742 14.333 18.4342 14.2044C18.3484 14.1873 18.2541 14.1873 18.1599 14.1873C17.8084 14.1873 17.4656 14.2902 17.157 14.4873C16.5227 14.8902 16.1799 15.6359 16.1799 16.3816V22.433H12.6484V11.4444H16.1799V12.7302C16.6941 12.1302 18.0742 11.4102 19.4713 11.4102C21.6227 11.4187 23.3799 13.1844 23.3799 15.4302Z" stroke="black" stroke-width="1.3" stroke-miterlimit="10"/>
<path d="M8.86388 6.87601C9.44674 6.87601 9.91818 7.34743 9.91818 7.93029C9.91818 8.51315 9.44674 8.98458 8.86388 8.98458C8.28103 8.98458 7.8096 8.51315 7.8096 7.93029C7.8096 7.34743 8.2896 6.87601 8.86388 6.87601ZM8.86388 5.76172C7.67245 5.76172 6.69531 6.73029 6.69531 7.93029C6.69531 9.13029 7.66388 10.0989 8.86388 10.0989C10.0639 10.0989 11.0325 9.13029 11.0325 7.93029C11.0325 6.73029 10.0639 5.76172 8.86388 5.76172Z" fill="black"/>
</svg>
