<svg width="10" height="14" viewBox="0 0 10 14" fill="none" xmlns="http://www.w3.org/2000/svg">
<path d="M7.08465 3.37457V5.82163C7.08465 5.85452 7.08465 5.88742 7.07807 5.92031C7.0386 7.36092 6.09792 8.57787 4.80861 9.02519V7.53852C5.33486 7.19646 5.69006 6.61101 5.7361 5.95319C5.74268 5.90715 5.74269 5.86768 5.74269 5.82163V3.38115C5.72953 2.26287 4.80859 1.34851 3.68373 1.34851H3.40088C2.26944 1.34851 1.34192 2.27603 1.34192 3.40746V5.82163C1.34192 6.57154 1.74321 7.22935 2.34839 7.59115V9.05149C0.980145 8.61076 0 7.32802 0 5.82163V3.40746C0 1.52612 1.51954 0 3.40088 0H3.68373C5.55192 0.00657812 7.0715 1.51296 7.08465 3.37457Z" fill="#93A2F4"/>
<path d="M9.99944 7.34656V9.76073C9.99944 11.6421 8.47332 13.1616 6.59198 13.1616H6.30912C4.44093 13.1616 2.92794 11.6552 2.9082 9.79362V7.34656C2.9082 7.31367 2.90821 7.28077 2.91479 7.24788C2.95426 5.80727 3.88836 4.5969 5.18425 4.13643V5.62967C4.658 5.97831 4.30276 6.55719 4.25671 7.215C4.25013 7.25447 4.25017 7.30051 4.25017 7.34656V9.78046C4.26332 10.9053 5.18426 11.8197 6.30912 11.8197H6.59198C7.72999 11.8197 8.65093 10.8922 8.65093 9.76073V7.34656C8.65093 6.59665 8.24965 5.93884 7.64446 5.57704V4.1167C9.01271 4.55086 9.99944 5.82701 9.99944 7.34656Z" fill="#93A2F4"/>
</svg>
