<svg width="25" height="25" viewBox="0 0 25 25" fill="none" xmlns="http://www.w3.org/2000/svg">
<path fill-rule="evenodd" clip-rule="evenodd" d="M17.7083 2.08333H7.29167C4.41518 2.08333 2.08333 4.41518 2.08333 7.29167V17.7083C2.08333 20.5848 4.41518 22.9167 7.29167 22.9167H17.7083C20.5848 22.9167 22.9167 20.5848 22.9167 17.7083V7.29167C22.9167 4.41518 20.5848 2.08333 17.7083 2.08333ZM7.29167 0C3.26459 0 0 3.26459 0 7.29167V17.7083C0 21.7354 3.26459 25 7.29167 25H17.7083C21.7354 25 25 21.7354 25 17.7083V7.29167C25 3.26459 21.7354 0 17.7083 0H7.29167Z" fill="black"/>
<path d="M8.5125 9.93652H5.5625V19.0865H8.5125V9.93652Z" fill="black"/>
<path d="M19.1297 13.2418V19.0793H16.1797V13.7043C16.1797 13.0043 15.7047 12.3418 15.0047 12.2293C14.9297 12.2168 14.8547 12.2168 14.7797 12.2168C14.4797 12.2168 14.2047 12.3043 13.9422 12.4668C13.4047 12.8043 13.1297 13.4168 13.1297 14.0418V19.0918H10.1797V9.9293H13.1297V11.0043C13.5672 10.5043 14.7047 9.9043 15.8797 9.9043C17.6672 9.9043 19.1297 11.3793 19.1297 13.2418Z" fill="black"/>
<path d="M7.00312 8.80898C7.99723 8.80898 8.80312 8.0031 8.80312 7.00898C8.80312 6.01487 7.99723 5.20898 7.00312 5.20898C6.00901 5.20898 5.20312 6.01487 5.20312 7.00898C5.20312 8.0031 6.00901 8.80898 7.00312 8.80898Z" fill="black"/>
</svg>
