<svg width="43" height="52" viewBox="0 0 43 52" fill="none" xmlns="http://www.w3.org/2000/svg">
<path d="M21.4978 27.7261C24.9354 27.7261 27.7222 24.9393 27.7222 21.5017C27.7222 18.0641 24.9354 15.2773 21.4978 15.2773C18.0602 15.2773 15.2734 18.0641 15.2734 21.5017C15.2734 24.9393 18.0602 27.7261 21.4978 27.7261Z" fill="black"/>
<path d="M21.5 2.59349C26.5573 2.59349 31.3034 4.56451 34.8565 8.11759C38.4355 11.6966 40.4065 16.4427 40.4065 21.4741C40.4065 26.5054 38.4355 31.2774 34.8824 34.8305L21.5519 48.161L8.16948 34.8305C4.59047 31.2515 2.64536 26.5054 2.64536 21.4741C2.64536 16.4168 4.61641 11.6707 8.16948 8.11759C11.6966 4.56451 16.4686 2.59349 21.5 2.59349ZM21.5 0C16.0018 0 10.5036 2.1007 6.30217 6.30215C-2.10072 14.705 -2.10072 28.3209 6.30217 36.6978L21.5259 51.8697L36.6978 36.6978C45.1007 28.2949 45.1007 14.6791 36.6978 6.30215C32.4964 2.1007 26.9982 0 21.5 0Z" fill="black"/>
</svg>
