<svg width="14" height="17" viewBox="0 0 14 17" fill="none" xmlns="http://www.w3.org/2000/svg">
<path d="M7.21406 8.96719C8.20818 8.96719 9.01406 8.1613 9.01406 7.16718C9.01406 6.17307 8.20818 5.36719 7.21406 5.36719C6.21995 5.36719 5.41406 6.17307 5.41406 7.16718C5.41406 8.1613 6.21995 8.96719 7.21406 8.96719Z" fill="#8A8A8A"/>
<path d="M3.46857 3.40668L3.46895 3.40629C4.46049 2.40747 5.80204 1.85312 7.2175 1.85312C8.64025 1.85312 9.97459 2.40734 10.9739 3.40668C11.981 4.41372 12.535 5.74814 12.535 7.16312C12.535 8.57848 11.9807 9.92028 10.9814 10.9196L7.23229 14.6687L3.46857 10.9196C3.46852 10.9195 3.46847 10.9195 3.46842 10.9194C2.46185 9.91277 1.915 8.57857 1.915 7.16312C1.915 5.74037 2.46922 4.40603 3.46857 3.40668ZM2.7166 11.6719L2.71662 11.6719L7.11912 16.0594L7.22518 16.1651L7.33107 16.0592L11.7186 11.6717C14.207 9.18325 14.2073 5.15077 11.7186 2.66955C10.4744 1.42536 8.84575 0.803125 7.2175 0.803125C5.58925 0.803125 3.96063 1.42536 2.71643 2.66955C0.227946 5.15804 0.22771 9.19064 2.7166 11.6719Z" fill="#8A8A8A" stroke="#8A8A8A" stroke-width="0.3"/>
</svg>
