<svg width="115" height="179" viewBox="0 0 115 179" fill="none" xmlns="http://www.w3.org/2000/svg">
<path d="M43.1195 103.122C61.5187 103.122 76.4343 88.2062 76.4343 69.807C76.4343 51.4077 61.5187 36.4922 43.1195 36.4922C24.7202 36.4922 9.80469 51.4077 9.80469 69.807C9.80469 88.2062 24.7202 103.122 43.1195 103.122Z" fill="#FF4F4F"/>
<path d="M29.2432 111.507C32.7863 110.807 36.432 111.908 39.8727 113.005C42.9657 114.003 46.246 114.636 49.5708 115.099C81.0137 119.507 110.032 96.9467 114.44 65.4859C118.83 34.043 96.9379 4.95777 65.4772 0.567795C34.0343 -3.85784 4.94899 18.0698 0.559015 49.5305C-0.22093 55.1372 -0.171904 60.6949 0.625868 66.0341V66.052C0.643695 66.1366 0.643695 66.2035 0.657066 66.2837C0.755116 66.6492 1.08938 66.9166 1.49049 66.9166C1.89161 66.9166 2.22141 66.667 2.33729 66.3015V66.2837C2.35512 66.199 2.35512 66.101 2.36849 66.0029C2.43534 65.1383 2.52002 64.2559 2.65373 63.3734C5.84927 40.5455 26.9434 24.6436 49.7847 27.8347C72.6126 31.0302 88.5502 52.1422 85.3368 74.9835C82.1279 97.7935 61.9429 112.617 39.1017 109.408C38.4688 109.31 37.8047 109.225 37.1897 109.092C36.3741 108.94 36.539 108.994 35.7234 108.793C35.7056 108.793 35.6565 108.775 35.5897 108.762C34.3106 108.561 31.632 107.612 29.8493 107.246C26.5379 106.565 24.461 107.18 22.7629 107.777C17.4727 109.64 14.0766 114.547 13.4972 115.911C12.2671 118.754 11.3178 122.168 11.037 126.709C10.7874 130.569 10.5869 135.195 11.9373 141.319C13.1005 146.627 14.7496 149.136 18.061 152.399C20.8554 155.144 23.8326 156.343 24.5011 156.592C28.4944 158.139 32.1356 157.956 33.7178 157.889C44.0844 157.408 55.4449 155.576 64.5947 156.757C74.1457 157.938 78.9012 159.717 82.7964 162.199C85.2076 163.728 90.6003 168.92 91.9463 174.692C92.5301 177.205 93.2922 177.718 94.2772 177.985C95.5429 178.319 98.4844 176.755 101.898 169.299C103.512 165.773 106.409 157.618 103.048 148.151C102.616 146.934 100.717 140.383 95.3602 135.124C93.5463 133.359 88.2382 128.3 79.4404 125.889C75.9151 124.909 73.036 124.806 67.3936 124.61C59.0415 124.329 54.8655 126.326 40.4744 126.705C35.1173 126.839 29.6933 126.923 25.6019 124.111C24.7685 123.545 22.9902 122.315 22.2593 120.118C21.2922 117.341 22.8922 115.193 23.1908 114.676C24.0688 113.205 26.5334 112.038 29.2432 111.507ZM84.3964 37.4882C78.7585 37.4882 74.1992 32.9288 74.1992 27.2909C74.1992 21.6664 78.7585 17.0937 84.3964 17.0937C90.0209 17.0937 94.5936 21.6709 94.5936 27.2909C94.5936 32.9288 90.0209 37.4882 84.3964 37.4882Z" fill="#5F9FC3"/>
</svg>
