<svg width="210" height="56" viewBox="0 0 210 56" fill="none" xmlns="http://www.w3.org/2000/svg">
<path d="M81.1289 26.2138C81.314 25.7399 81.4205 25.2268 81.4205 24.6884C81.4205 22.3834 79.553 20.5158 77.248 20.5158C74.9429 20.5158 73.0754 22.3834 73.0754 24.6884C73.0754 26.9934 74.9429 28.861 77.248 28.861H91.0051C89.2161 34.7665 83.7367 39.0652 77.248 39.0652C69.3066 39.0652 62.8711 32.6297 62.8711 24.6884C62.8711 16.747 69.3066 10.3115 77.248 10.3115C85.1893 10.3115 91.6248 16.747 91.6248 24.6884C91.6248 25.2043 91.594 25.7119 91.5407 26.2138H81.1289Z" fill="black"/>
<path d="M167.04 26.2263C167.225 25.7524 167.332 25.2392 167.332 24.7008C167.332 22.3958 165.464 20.5283 163.159 20.5283C160.854 20.5283 158.989 22.3986 158.989 24.7008C158.989 27.003 160.857 28.8734 163.162 28.8734H176.919C175.13 34.7789 169.651 39.0777 163.162 39.0777C155.221 39.0777 148.785 32.6422 148.785 24.7008C148.785 16.7595 155.221 10.324 163.162 10.324C171.103 10.324 177.539 16.7595 177.539 24.7008C177.539 25.2168 177.508 25.7244 177.455 26.2263H167.04Z" fill="black"/>
<path d="M109.588 20.5104C110.676 20.5104 111.663 20.931 112.406 21.6124V10.5865C111.495 10.4043 110.552 10.3061 109.588 10.3061C108.138 10.3061 106.739 10.5248 105.415 10.9258V0.107422C99.7789 0.107422 95.2109 4.67538 95.2109 10.3117V24.6802C95.2109 32.6215 101.646 39.057 109.588 39.057C110.552 39.057 111.492 38.9505 112.406 38.7682V28.8499H109.588C107.286 28.8499 105.415 26.9824 105.415 24.6774C105.415 22.3724 107.286 20.5104 109.588 20.5104Z" fill="black"/>
<path d="M130.834 10.5099C129.381 10.5099 127.982 10.7287 126.661 11.1297V0C121.025 0 116.457 4.56796 116.457 10.2043V24.5756H116.474C116.471 24.6793 116.457 24.7803 116.457 24.8868C116.457 31.3756 120.759 36.8549 126.661 38.644V24.8868C126.661 22.5818 128.529 20.7142 130.834 20.7142C133.136 20.7142 135.006 22.5818 135.006 24.8868V38.644C140.912 36.8549 145.211 31.3756 145.211 24.8868C145.211 16.9455 138.775 10.5099 130.834 10.5099Z" fill="black"/>
<path d="M191.29 24.7008C191.29 22.3958 193.158 20.5283 195.463 20.5283H209.22C207.431 14.6227 201.952 10.324 195.463 10.324C187.521 10.324 181.086 16.7595 181.086 24.7008C181.086 31.1896 185.388 36.6689 191.29 38.458V24.7008Z" fill="black"/>
<path d="M49.1882 41.2705C49.1882 43.598 47.301 45.4823 44.9736 45.4823C42.6462 45.4823 40.7618 43.5951 40.7618 41.2705H30.4537C30.4537 41.2985 30.4453 41.3238 30.4453 41.349C30.4902 49.3745 37.0294 55.8437 45.0549 55.7988C53.0523 55.7567 59.4963 49.2567 59.4963 41.2705H49.1882Z" fill="black"/>
<path d="M55.0985 10.4176C57.4247 10.4176 59.3104 8.53186 59.3104 6.20573C59.3104 3.8796 57.4247 1.9939 55.0985 1.9939C52.7724 1.9939 50.8867 3.8796 50.8867 6.20573C50.8867 8.53186 52.7724 10.4176 55.0985 10.4176Z" fill="black"/>
<path d="M44.961 10.3245C37.0365 10.3245 30.6094 16.7488 30.6094 24.6761C30.6094 32.6006 37.0337 39.0277 44.961 39.0277C52.8883 39.0277 59.3126 32.6034 59.3126 24.6761C59.3126 16.7516 52.8883 10.3245 44.961 10.3245ZM44.961 28.8374C42.6644 28.8374 40.7996 26.9755 40.7996 24.6761C40.7996 22.3767 42.6616 20.5147 44.961 20.5147C47.2576 20.5147 49.1224 22.3767 49.1224 24.6761C49.1224 26.9755 47.2604 28.8374 44.961 28.8374Z" fill="black"/>
<path d="M28.6948 39.0257V39.0565H18.4513V39.0257C18.4513 36.7599 16.6146 34.9204 14.346 34.9204C12.0803 34.9204 10.2435 36.7599 10.2435 39.0257V39.0565H0L0 39.0257C0 34.5671 2.0947 30.8796 5.22132 27.9549L5.23815 27.9409L14.7891 19.5256L16.9959 17.5796C17.8849 16.8252 18.4513 15.7008 18.4513 14.4445C18.4513 12.1788 16.6146 10.3393 14.346 10.3393C12.0803 10.3393 10.2435 12.1788 10.2435 14.4445C10.2435 14.9605 10.3417 15.454 10.5156 15.9083H0.0729078C0.0252373 15.4288 0 14.9381 0 14.4445C0 6.52001 6.4243 0.0957031 14.346 0.0957031C22.2705 0.0957031 28.6948 6.52001 28.6948 14.4445C28.6948 18.6423 26.8918 22.4195 24.0147 25.0442L23.6642 25.3499L23.6502 25.3639L21.9509 26.8613C26.0029 29.3934 28.6948 33.8941 28.6948 39.0257Z" fill="black"/>
</svg>
