<svg width="10" height="15" viewBox="0 0 10 15" fill="none" xmlns="http://www.w3.org/2000/svg">
<path d="M3.66045 8.69603C5.22039 8.69603 6.48497 7.4393 6.48497 5.88903C6.48497 4.33877 5.22039 3.08203 3.66045 3.08203C2.10052 3.08203 0.835938 4.33877 0.835938 5.88903C0.835938 7.4393 2.10052 8.69603 3.66045 8.69603Z" fill="#8A8A8A"/>
<path d="M2.47931 9.39525C2.77971 9.33629 3.0888 9.42904 3.38051 9.52142C3.64275 9.60554 3.92085 9.65886 4.20274 9.69792C6.86855 10.0693 9.32881 8.16843 9.70252 5.51764C10.0747 2.86836 8.21865 0.417726 5.55133 0.0478406C2.88551 -0.325049 0.419589 1.5225 0.0473947 4.17329C-0.018731 4.64569 -0.0145745 5.11396 0.0530627 5.56383V5.56533C0.0545742 5.57247 0.0545742 5.5781 0.0557077 5.58486C0.0640207 5.61565 0.0923604 5.63819 0.126368 5.63819C0.160376 5.63819 0.188337 5.61716 0.198161 5.58636V5.58486C0.199673 5.57773 0.199673 5.56947 0.200806 5.5612C0.206474 5.48835 0.213654 5.414 0.22499 5.33965C0.495917 3.41624 2.28434 2.07639 4.22088 2.34526C6.15628 2.61451 7.50752 4.39334 7.23508 6.31787C6.96302 8.23978 5.25168 9.48875 3.31514 9.21838C3.26149 9.21012 3.20518 9.20298 3.15304 9.19172C3.08389 9.17895 3.09787 9.18346 3.02872 9.16656C3.02721 9.16656 3.02306 9.16506 3.01739 9.16393C2.90894 9.14703 2.68185 9.06705 2.5307 9.03625C2.24995 8.9788 2.07387 9.03062 1.9299 9.08094C1.48138 9.23791 1.19345 9.65135 1.14433 9.76626C1.04004 10.0058 0.959553 10.2935 0.935748 10.6761C0.914587 11.0013 0.897584 11.3911 1.01208 11.9071C1.1107 12.3543 1.25051 12.5658 1.53126 12.8406C1.76818 13.072 2.02059 13.173 2.07727 13.194C2.41583 13.3243 2.72454 13.3089 2.85869 13.3033C3.73759 13.2627 4.70076 13.1084 5.47651 13.2079C6.28627 13.3074 6.68945 13.4572 7.0197 13.6664C7.22412 13.7952 7.68133 14.2327 7.79545 14.719C7.84495 14.9308 7.90956 14.974 7.99307 14.9965C8.10038 15.0246 8.34977 14.8928 8.63921 14.2646C8.776 13.9676 9.02161 13.2804 8.7367 12.4828C8.70005 12.3802 8.53908 11.8282 8.08489 11.3851C7.9311 11.2364 7.48107 10.8102 6.73517 10.607C6.43628 10.5244 6.19218 10.5158 5.71381 10.4993C5.0057 10.4756 4.65164 10.6438 3.43152 10.6758C2.97733 10.687 2.51748 10.6942 2.1706 10.4572C2.09994 10.4095 1.94917 10.3059 1.8872 10.1208C1.80521 9.8868 1.94086 9.7058 1.96618 9.66224C2.04062 9.53832 2.24957 9.43993 2.47931 9.39525Z" fill="#8A8A8A"/>
</svg>
