<svg width="24" height="21" viewBox="0 0 24 21" fill="none" xmlns="http://www.w3.org/2000/svg">
<path d="M23.013 2.81901C23.013 3.85382 22.1741 4.69271 21.1393 4.69271C20.1045 4.69271 19.2656 3.85383 19.2656 2.81901C19.2656 1.78419 20.1045 0.945312 21.1393 0.945312C22.1741 0.945312 23.013 1.7842 23.013 2.81901Z" fill="black" stroke="black"/>
<path d="M23.0061 10.3507C23.0061 11.4699 22.0988 12.3771 20.9796 12.3771C19.8604 12.3771 18.9531 11.4699 18.9531 10.3507C18.9531 9.2315 19.8604 8.32422 20.9796 8.32422C22.0988 8.32422 23.0061 9.23149 23.0061 10.3507Z" fill="black" stroke="black"/>
<path d="M23.0061 17.921C23.0061 19.0402 22.0988 19.9475 20.9796 19.9475C19.8604 19.9475 18.9531 19.0402 18.9531 17.921C18.9531 16.8018 19.8604 15.8945 20.9796 15.8945C22.0988 15.8945 23.0061 16.8018 23.0061 17.921Z" fill="black" stroke="black"/>
<path d="M14.959 3.54583H1.23384C0.828431 3.54583 0.5 3.2174 0.5 2.81198C0.5 2.40656 0.828431 2.07812 1.23384 2.07812H14.959C15.3644 2.07812 15.6929 2.40657 15.6929 2.81198C15.6929 3.21738 15.3644 3.54583 14.959 3.54583Z" fill="black" stroke="black"/>
<path d="M14.9721 11.0771H5.00731C4.60189 11.0771 4.27344 10.7486 4.27344 10.3432C4.27344 9.93782 4.60189 9.60938 5.00731 9.60938H14.9721C15.3776 9.60938 15.706 9.93782 15.706 10.3432C15.706 10.7486 15.3776 11.0771 14.9721 11.0771Z" fill="black" stroke="black"/>
<path d="M14.959 18.5146H1.23384C0.825315 18.5146 0.5 18.1948 0.5 17.7807C0.5 17.3753 0.828431 17.0469 1.23384 17.0469H14.959C15.3644 17.0469 15.6929 17.3753 15.6929 17.7807C15.6929 18.1861 15.3644 18.5146 14.959 18.5146Z" fill="black" stroke="black"/>
</svg>
