<svg width="20" height="23" viewBox="0 0 20 23" fill="none" xmlns="http://www.w3.org/2000/svg">
<path d="M10.0006 23.0084C11.6689 23.0084 13.0266 21.6507 13.0266 19.9824H6.97468C6.96318 21.6507 8.32083 23.0084 10.0006 23.0084Z" fill="black"/>
<path d="M9.93096 0L10.0115 1.15055H10.069C13.7738 1.15055 16.8803 4.211 17.1679 8.13436V14.4393C17.1679 14.9341 17.2945 15.4058 17.5246 15.8085C17.9273 16.4873 18.4105 17.1086 18.7441 17.5228C18.8017 17.5918 18.8362 17.7069 18.8362 17.7874C18.7902 17.7989 18.7096 17.8104 18.5831 17.8104H9.98849H1.39392C1.26736 17.8104 1.18682 17.7989 1.1408 17.7874C1.1408 17.7184 1.17531 17.5918 1.23284 17.5228C1.578 17.0971 2.08424 16.4528 2.49844 15.751C2.72855 15.3598 2.84361 14.8881 2.84361 14.4048L2.8321 9.2849C2.8321 9.25039 2.8321 9.10081 2.82059 8.95124L2.80909 8.74415C2.80909 8.62909 2.82059 8.52554 2.82059 8.42199L2.8321 8.28393C3.09672 4.30304 6.2032 1.17355 9.90796 1.17355L9.93096 0ZM10.069 0C10.046 0 10.023 0 10 0H9.98849C9.96548 0 9.94248 0 9.91947 0C5.5589 0 2.00371 3.65873 1.69306 8.18038C1.68156 8.35296 1.67005 8.53705 1.67005 8.70963C1.67005 8.75565 1.69306 9.20436 1.69306 9.25038L1.70457 14.3703C1.70457 14.6464 1.64704 14.9111 1.50897 15.1527C1.18682 15.728 0.77262 16.2687 0.358424 16.775C-0.216849 17.4768 -0.251361 18.9495 1.40542 18.9495H10H18.5946C20.2514 18.9495 20.2168 17.4768 19.6416 16.775C19.2504 16.2917 18.8477 15.7625 18.5255 15.2102C18.3875 14.9686 18.33 14.6925 18.33 14.4278V8.08834C18.0078 3.56669 14.4296 0 10.069 0ZM1.68155 8.70963C1.68155 8.75565 1.68155 8.76716 1.68155 8.76716V8.70963ZM1.69306 9.25038V9.2734C1.69306 9.2734 1.69306 9.2734 1.69306 9.26189C1.69306 9.25039 1.69306 9.25038 1.69306 9.25038Z" fill="black"/>
</svg>
