<svg width="5" height="20" viewBox="0 0 5 20" fill="none" xmlns="http://www.w3.org/2000/svg">
<path d="M4.2193 2.23073C4.2193 3.18659 3.44442 3.96146 2.48856 3.96146C1.5327 3.96146 0.757812 3.18659 0.757812 2.23073C0.757812 1.27488 1.5327 0.5 2.48856 0.5C3.44442 0.5 4.2193 1.27488 4.2193 2.23073Z" fill="black" stroke="black"/>
<path d="M4.22155 9.90765C4.22155 10.9353 3.38844 11.7684 2.36076 11.7684C1.33309 11.7684 0.5 10.9353 0.5 9.90765C0.5 8.87997 1.33309 8.04688 2.36076 8.04688C3.38844 8.04688 4.22155 8.87998 4.22155 9.90765Z" fill="black" stroke="black"/>
<path d="M4.22155 17.642C4.22155 18.6697 3.38844 19.5028 2.36076 19.5028C1.33309 19.5028 0.5 18.6697 0.5 17.642C0.5 16.6143 1.33309 15.7812 2.36076 15.7812C3.38844 15.7812 4.22155 16.6143 4.22155 17.642Z" fill="black" stroke="black"/>
</svg>
