<svg width="17" height="25" viewBox="0 0 17 25" fill="none" xmlns="http://www.w3.org/2000/svg">
<path d="M7.99019 19.2326L12.9238 14.7608C13.5435 14.1897 13.5921 13.2298 13.0331 12.61C12.4741 11.9903 11.502 11.9417 10.8823 12.5006L7.58921 15.4778C7.45554 15.5993 7.26112 15.5871 7.1396 15.4535L6.03381 14.2383C5.46269 13.6064 4.47843 13.5578 3.84655 14.129C3.20251 14.7122 3.16606 15.7208 3.77364 16.3527L6.49557 19.1719C6.90873 19.5972 7.56489 19.6093 7.99019 19.2326Z" fill="black"/>
<path d="M15.1627 6.65902V7.70407C14.8225 7.5218 14.4458 7.42459 14.0448 7.36383C13.9354 7.33953 13.8382 7.32738 13.7288 7.32738C13.6802 7.32738 13.6316 7.31522 13.583 7.31522H12.8418V6.65902C12.8418 4.27732 10.8975 2.30879 8.47937 2.30879C6.09767 2.30879 4.1291 4.27732 4.1291 6.65902V7.31522H3.38787C3.33927 7.31522 3.29067 7.32738 3.24206 7.32738C3.1327 7.33953 3.03548 7.35168 2.93827 7.36383C2.54942 7.41244 2.16056 7.50964 1.82031 7.69191V6.65902C1.82031 2.98926 4.80961 0 8.47937 0C12.1734 0 15.1627 2.98926 15.1627 6.65902Z" fill="black"/>
<path d="M13.5368 8.53351C13.5854 8.53351 13.634 8.54568 13.6705 8.54568C13.7191 8.54568 13.7677 8.55782 13.8163 8.56997L13.8528 8.58213H13.8892C14.193 8.61859 14.4117 8.69147 14.5819 8.78869L14.6183 8.81301L14.7034 8.84947C15.3717 9.25047 15.7848 9.96739 15.7848 10.7329V20.9281C15.7848 22.1311 14.8006 23.1154 13.5976 23.1154H3.41458C2.19943 23.1154 1.21515 22.1311 1.21515 20.9281V10.7329C1.21515 9.9917 1.60401 9.28692 2.24804 8.88592C2.3088 8.84946 2.36955 8.82514 2.43031 8.78869C2.61258 8.70363 2.83131 8.64288 3.11079 8.60642L3.15941 8.59426L3.20803 8.58213C3.24448 8.56998 3.28091 8.56997 3.32951 8.56997C3.37812 8.56997 3.41459 8.5578 3.4632 8.5578H13.5368M13.5854 7.31836H3.40242C3.35381 7.31836 3.30521 7.33052 3.25661 7.33052C3.14724 7.34267 3.05003 7.35482 2.95282 7.36698C2.56397 7.41558 2.17514 7.51278 1.8349 7.69505C1.77414 7.73151 1.72551 7.75582 1.66476 7.78012C0.668329 8.37555 0 9.46919 0 10.7087V20.9038C0 22.763 1.53109 24.3062 3.41458 24.3062H13.5976C15.4689 24.3062 17 22.763 17 20.9038V10.7087C17 9.46919 16.3195 8.3877 15.3352 7.78012C15.2866 7.75582 15.2259 7.71937 15.1773 7.70722C14.837 7.52494 14.4603 7.42773 14.0593 7.36698C13.95 7.34267 13.8528 7.33052 13.7434 7.33052C13.6826 7.33052 13.634 7.31836 13.5854 7.31836Z" fill="black"/>
</svg>
