<svg width="20" height="20" viewBox="0 0 20 20" fill="none" xmlns="http://www.w3.org/2000/svg">
<path d="M3.40867 0.999501C4.11832 0.999501 4.77798 1.50925 5.01786 2.23889C5.22775 2.88856 5.39766 3.55822 5.57757 4.25787L5.67753 4.65768C5.83745 5.26737 5.70751 5.74713 5.26773 6.18691C4.22825 6.88656 4.01836 7.94602 4.61806 9.31534C6.00737 12.4738 8.34621 14.6127 11.5646 15.6722C11.7545 15.7321 11.9344 15.7721 12.1143 15.7721C12.754 15.7721 13.1338 15.3723 13.2637 15.2424L13.4437 15.0525C13.8235 14.6327 14.0833 14.3828 14.3932 14.3328C14.6331 14.3028 14.823 14.2829 14.9829 14.2829C15.1028 14.2829 15.2128 14.2928 15.3027 14.3128C16.2323 14.5027 17.0419 14.7226 17.7515 14.9625C18.3812 15.1824 18.821 15.6722 18.9509 16.2719C19.0109 16.5717 19.0309 17.1414 18.5011 17.6312C18.2413 17.8611 18.0114 18.101 17.7915 18.3308L17.5716 18.5507C17.1818 18.9505 17.1218 18.9905 16.4621 18.9905C16.3622 18.9905 16.2523 18.9905 16.1323 18.9805C10.0953 18.8006 4.33821 14.7426 2.12932 9.10545C1.36969 7.15642 0.999865 5.26737 0.98987 3.30834C0.98987 2.9885 1.07984 2.76861 1.28974 2.55872L1.46964 2.38881C1.76949 2.09895 2.06934 1.8091 2.36919 1.48926C2.65904 1.15943 3.01887 0.999501 3.40867 0.999501ZM3.40867 0C2.77899 0 2.14931 0.249878 1.63957 0.799603C1.30973 1.15942 0.949906 1.49925 0.600081 1.83908C0.180291 2.24887 -0.00962067 2.73862 0.000374334 3.31833C0.0103693 5.44727 0.430151 7.48625 1.20976 9.47526C3.57858 15.5222 9.63555 19.8001 16.1123 19.99C16.2423 19.99 16.3622 20 16.4621 20C17.3817 20 17.7115 19.8501 18.2812 19.2604C18.5711 18.9705 18.851 18.6607 19.1608 18.3808C20.6401 17.0415 20.0004 14.7026 18.0813 14.033C17.2418 13.7431 16.3722 13.5232 15.5126 13.3433C15.3427 13.3033 15.1628 13.2934 14.9829 13.2934C14.733 13.2934 14.4831 13.3233 14.2433 13.3533C13.4836 13.4633 13.0239 14.053 12.5341 14.5627C12.3942 14.7126 12.2742 14.7826 12.1143 14.7826C12.0444 14.7826 11.9644 14.7726 11.8744 14.7426C8.88594 13.7531 6.79698 11.8041 5.52761 8.92553C5.17779 8.14592 5.06785 7.48626 5.90743 6.96652C5.92742 6.94653 5.9474 6.92653 5.96739 6.89655C6.65705 6.1969 6.88695 5.35733 6.63707 4.4078C6.42718 3.57822 6.22725 2.73863 5.95739 1.91904C5.58757 0.739629 4.50813 0 3.40867 0Z" fill="black"/>
</svg>
