<svg width="11" height="15" viewBox="0 0 11 15" fill="none" xmlns="http://www.w3.org/2000/svg">
<path d="M9.34276 4.09359V4.77585C9.14033 4.66339 8.90041 4.60341 8.6605 4.56593C8.59302 4.55093 8.53304 4.55093 8.46556 4.54343C8.43558 4.54343 8.40558 4.53594 8.37559 4.53594H7.92575V4.10109C7.92575 2.6316 6.72617 1.42452 5.24169 1.42452C3.7722 1.42452 2.56512 2.6316 2.56512 4.10109V4.53594H2.10778C2.07779 4.53594 2.04781 4.54343 2.01782 4.54343C1.95034 4.55093 1.89036 4.55843 1.83038 4.56593C1.58297 4.60341 1.35805 4.66339 1.14062 4.76836V4.09359C1.14062 1.83688 2.97748 2.28699e-05 5.23419 2.28699e-05C7.5059 -0.00747451 9.34276 1.82938 9.34276 4.09359Z" fill="black"/>
<path d="M8.33709 5.28099C8.35958 5.28099 8.38207 5.28849 8.40456 5.28849L8.44955 5.29599C8.47204 5.29599 8.49453 5.30348 8.50953 5.30348L8.53202 5.31098H8.55452C8.74195 5.33348 8.8769 5.37846 8.97437 5.43095L9.03435 5.46842L9.04934 5.47593C9.4617 5.72334 9.71661 6.15818 9.71661 6.63052V12.9058C9.71661 13.6481 9.10932 14.2479 8.36708 14.2479H2.09927C1.35703 14.2479 0.749738 13.6481 0.749738 12.9058V6.63052C0.749738 6.16568 1.00465 5.72333 1.432 5.46842L1.48448 5.43844C1.60444 5.37846 1.74689 5.33348 1.93433 5.31098L1.97182 5.30348H1.98681L2.03929 5.29599L2.08427 5.28849C2.10676 5.28849 2.12926 5.28849 2.14425 5.28099H8.33709ZM8.37457 4.53125H2.10676C2.07677 4.53125 2.04679 4.53875 2.0168 4.53875C1.94932 4.54625 1.88934 4.55375 1.82936 4.56125C1.58195 4.59873 1.35703 4.65872 1.13961 4.76368C1.10212 4.77867 1.07213 4.80116 1.03464 4.81615C0.419857 5.18353 0 5.85079 0 6.61552V12.8908C0 14.0454 0.944672 14.9826 2.09927 14.9826H8.36708C9.52168 14.9826 10.4663 14.0379 10.4663 12.8908V6.61552C10.4663 5.85079 10.0465 5.18353 9.43171 4.81615C9.40172 4.79366 9.37173 4.77867 9.33424 4.76368C9.13181 4.65122 8.8919 4.59123 8.65198 4.55374C8.5845 4.53875 8.52452 4.53875 8.45705 4.53125C8.43455 4.53875 8.40456 4.53125 8.37457 4.53125Z" fill="black"/>
<path d="M5.24103 11.2711C6.07745 11.2711 6.75551 10.5931 6.75551 9.75665C6.75551 8.92023 6.07745 8.24219 5.24103 8.24219C4.40461 8.24219 3.72656 8.92023 3.72656 9.75665C3.72656 10.5931 4.40461 11.2711 5.24103 11.2711Z" fill="black"/>
</svg>
