<svg width="20" height="20" viewBox="0 0 20 20" fill="none" xmlns="http://www.w3.org/2000/svg">
<path d="M10 1C14.96 1 19 5.04 19 10C19 14.96 14.96 19 10 19C5.04 19 1 14.96 1 10C1 5.04 5.04 1 10 1ZM10 0C4.48 0 0 4.48 0 10C0 15.52 4.48 20 10 20C15.52 20 20 15.52 20 10C20 4.48 15.52 0 10 0Z" fill="black"/>
<path d="M15.4238 18.4093C14.2938 19.1393 13.0138 19.6392 11.6338 19.8692C11.6138 18.9892 10.8838 18.2793 10.0038 18.2793C9.11375 18.2793 8.39375 18.9892 8.37375 19.8692C6.99375 19.6392 5.71375 19.1393 4.59375 18.4093C5.25375 16.0393 7.41375 14.2992 9.97375 14.2892C12.5638 14.2692 14.7638 16.0293 15.4238 18.4093Z" fill="black"/>
<path d="M10.0031 2.3125C6.93313 2.3125 4.45312 4.80249 4.45312 7.86249C4.45312 10.9325 6.94313 13.4125 10.0031 13.4125C13.0731 13.4125 15.5531 10.9225 15.5531 7.86249C15.5531 4.80249 13.0731 2.3125 10.0031 2.3125ZM10.0031 9.48248C9.11313 9.48248 8.39313 8.7625 8.39313 7.8725C8.39313 6.9825 9.11313 6.26248 10.0031 6.26248C10.8931 6.26248 11.6131 6.9925 11.6131 7.8725C11.6131 8.7625 10.8931 9.48248 10.0031 9.48248Z" fill="black"/>
</svg>
