<svg width="16" height="16" viewBox="0 0 16 16" fill="none" xmlns="http://www.w3.org/2000/svg">
<path d="M6.008 1.328V6.008H1.328V1.328H6.008ZM7.344 0H0V7.344H7.344V0Z" fill="black"/>
<path d="M4.45081 2.88672H2.88281V4.45472H4.45081V2.88672Z" fill="black"/>
<path d="M6.008 9.99225V14.6723H1.328V9.99225H6.008ZM7.344 8.65625H0V16.0003H7.344V8.65625Z" fill="black"/>
<path d="M4.45081 11.543H2.88281V13.111H4.45081V11.543Z" fill="black"/>
<path d="M14.6723 1.328V6.008H9.99225V1.328H14.6723ZM16.0003 0H8.65625V7.344H16.0003V0Z" fill="black"/>
<path d="M13.1071 2.88672H11.5391V4.45472H13.1071V2.88672Z" fill="black"/>
<path d="M16.0003 8.65625V13.0643H13.0643V11.5923H10.1283V13.0643H11.5923V14.5283H10.1283V16.0003H8.65625V8.65625H11.5923V10.1283H14.5283V8.65625H16.0003Z" fill="black"/>
<path d="M13.0577 14.5273H11.5938V15.9913H13.0577V14.5273Z" fill="black"/>
<path d="M15.9874 14.5273H14.5234V15.9913H15.9874V14.5273Z" fill="black"/>
</svg>
