<svg width="15" height="22" viewBox="0 0 15 22" fill="none" xmlns="http://www.w3.org/2000/svg">
<path d="M7.21331 17.4629C5.96281 17.4629 4.94482 18.4746 4.94482 19.7314C4.94482 20.9819 5.95652 21.9999 7.21331 21.9999C8.4638 21.9999 9.48179 20.9882 9.48179 19.7314C9.48179 18.4809 8.47009 17.4629 7.21331 17.4629Z" fill="black"/>
<path d="M7.21265 0.942586C7.43887 0.942586 7.67136 0.955152 7.90386 0.980288C10.6562 1.28192 12.8619 3.50644 13.1447 6.26507C13.4463 9.19338 11.624 11.8892 8.8025 12.6684L8.11124 12.8569V13.5733V14.4656C8.11124 14.7609 7.97301 15.0437 7.73422 15.2385L7.70281 15.2636L7.67136 15.2888C7.65879 15.3013 7.64623 15.3139 7.63366 15.3265C7.53312 15.4081 7.40743 15.4584 7.27547 15.4647C7.25662 15.4647 7.2315 15.4584 7.21265 15.4584H7.17495H7.13724L7.06184 15.4647C6.53399 15.4396 6.10667 15.006 6.10667 14.4656V11.6378V11.5875L6.10038 11.5373L6.08784 11.4367C6.08784 11.4179 6.08784 11.3927 6.08784 11.3676L6.09409 11.3425C6.11923 11.1791 6.2575 11.022 6.47115 11.022H7.20636C8.19293 11.022 9.1481 10.6638 9.8896 10.0228H9.9273L10.2038 9.72751C11.1212 8.75351 11.4983 7.43389 11.2469 6.11427C10.939 4.48045 9.63825 3.17337 8.01072 2.86546C7.74051 2.81519 7.47028 2.79006 7.20007 2.79006C5.25206 2.79006 3.61824 4.14741 3.19093 5.96346H1.31205C1.77706 3.12313 4.24664 0.942586 7.21265 0.942586ZM7.21265 0C3.39832 0 0.306641 3.09797 0.306641 6.9123H4.03928C4.03928 5.15909 5.45944 3.73893 7.21265 3.73893C7.42002 3.73893 7.63368 3.75781 7.84733 3.80179C9.09154 4.04058 10.0969 5.05228 10.3357 6.30278C10.5431 7.38361 10.1912 8.38904 9.53141 9.09283H9.52512C8.95329 9.70866 8.13011 10.092 7.21894 10.092H6.48373C5.81135 10.092 5.27093 10.5821 5.17667 11.2168V11.2231C5.15782 11.3299 5.15153 11.443 5.17038 11.5561L5.17667 11.6441V14.4719C5.17667 15.5464 6.04383 16.4136 7.11837 16.4136C7.13723 16.4136 7.16238 16.4073 7.18124 16.4073C7.20637 16.4073 7.22521 16.4136 7.25035 16.4136C7.64624 16.4136 8.01698 16.2628 8.29975 16.0114C8.31232 15.9989 8.31863 15.9863 8.3312 15.98C8.77108 15.6218 9.06012 15.0877 9.06012 14.4781V13.5858C12.2021 12.7123 14.4517 9.68351 14.0872 6.17709C13.7542 2.99743 11.1904 0.402181 8.01072 0.050282C7.74051 0.0188625 7.47657 0 7.21265 0Z" fill="black"/>
</svg>
