<svg width="221" height="59" viewBox="0 0 221 59" fill="none" xmlns="http://www.w3.org/2000/svg">
<path d="M85.7479 27.6264C85.943 27.1269 86.0553 26.5861 86.0553 26.0187C86.0553 23.5895 84.0871 21.6213 81.6579 21.6213C79.2287 21.6213 77.2605 23.5895 77.2605 26.0187C77.2605 28.4479 79.2287 30.4161 81.6579 30.4161H96.1563C94.2708 36.6398 88.4963 41.1702 81.6579 41.1702C73.2886 41.1702 66.5063 34.388 66.5063 26.0187C66.5063 17.6495 73.2886 10.8672 81.6579 10.8672C90.0271 10.8672 96.8094 17.6495 96.8094 26.0187C96.8094 26.5625 96.7769 27.0974 96.7207 27.6264H85.7479Z" fill="#F12323"/>
<path d="M176.3 27.6381C176.495 27.1386 176.607 26.5978 176.607 26.0304C176.607 23.6012 174.639 21.633 172.21 21.633C169.78 21.633 167.815 23.6042 167.815 26.0304C167.815 28.4567 169.783 30.4278 172.213 30.4278H186.711C184.826 36.6516 179.051 41.1819 172.213 41.1819C163.843 41.1819 157.061 34.3997 157.061 26.0304C157.061 17.6612 163.843 10.8789 172.213 10.8789C180.582 10.8789 187.364 17.6612 187.364 26.0304C187.364 26.5742 187.332 27.1091 187.275 27.6381H176.3Z" fill="#F12323"/>
<path d="M115.748 21.6156C116.895 21.6156 117.935 22.0589 118.718 22.777V11.157C117.758 10.9649 116.765 10.8615 115.748 10.8615C114.22 10.8615 112.746 11.092 111.351 11.5146V0.113281C105.411 0.113281 100.597 4.92737 100.597 10.8674V26.0101C100.597 34.3793 107.379 41.1616 115.748 41.1616C116.765 41.1616 117.755 41.0493 118.718 40.8572V30.4045H115.748C113.322 30.4045 111.351 28.4363 111.351 26.0071C111.351 23.5779 113.322 21.6156 115.748 21.6156Z" fill="#F12323"/>
<path d="M138.138 11.0762C136.607 11.0762 135.132 11.3068 133.74 11.7294V0C127.8 0 122.986 4.81409 122.986 10.7541V25.8997H123.004C123.001 26.0091 122.986 26.1155 122.986 26.2278C122.986 33.0662 127.52 38.8407 133.74 40.7262V26.2278C133.74 23.7986 135.709 21.8304 138.138 21.8304C140.564 21.8304 142.535 23.7986 142.535 26.2278V40.7262C148.759 38.8407 153.289 33.0662 153.289 26.2278C153.289 17.8585 146.507 11.0762 138.138 11.0762Z" fill="#F12323"/>
<path d="M201.852 26.0304C201.852 23.6012 203.82 21.633 206.25 21.633H220.748C218.863 15.4093 213.088 10.8789 206.25 10.8789C197.88 10.8789 191.098 17.6612 191.098 26.0304C191.098 32.8689 195.631 38.6434 201.852 40.5288V26.0304Z" fill="#F12323"/>
<path d="M52.0898 43.4961C52.0898 45.9489 50.1009 47.9349 47.648 47.9349C45.1952 47.9349 43.2092 45.946 43.2092 43.4961H32.3458C32.3458 43.5256 32.3369 43.5522 32.3369 43.5788C32.3842 52.0367 39.2758 58.8545 47.7337 58.8072C56.1621 58.7629 62.9532 51.9126 62.9532 43.4961H52.0898Z" fill="#F12323"/>
<path d="M58.3177 10.9791C60.7691 10.9791 62.7564 8.9918 62.7564 6.54033C62.7564 4.08887 60.7691 2.10156 58.3177 2.10156C55.8662 2.10156 53.8789 4.08887 53.8789 6.54033C53.8789 8.9918 55.8662 10.9791 58.3177 10.9791Z" fill="#F12323"/>
<path d="M47.6376 10.8789C39.2861 10.8789 32.5127 17.6494 32.5127 26.0038C32.5127 34.3553 39.2831 41.1288 47.6376 41.1288C55.9921 41.1288 62.7625 34.3583 62.7625 26.0038C62.7625 17.6523 55.9921 10.8789 47.6376 10.8789ZM47.6376 30.3894C45.2173 30.3894 43.252 28.4271 43.252 26.0038C43.252 23.5805 45.2143 21.6183 47.6376 21.6183C50.058 21.6183 52.0232 23.5805 52.0232 26.0038C52.0232 28.4271 50.0609 30.3894 47.6376 30.3894Z" fill="#F12323"/>
<path d="M30.4929 41.1292V41.1617H19.6974V41.1292C19.6974 38.7413 17.7618 36.8027 15.371 36.8027C12.9831 36.8027 11.0474 38.7413 11.0474 41.1292V41.1617H0.251953V41.1292C0.251953 36.4303 2.45952 32.5442 5.75461 29.4619L5.77234 29.4471L15.8379 20.5784L18.1637 18.5275C19.1005 17.7325 19.6974 16.5475 19.6974 15.2235C19.6974 12.8357 17.7618 10.8971 15.371 10.8971C12.9831 10.8971 11.0474 12.8357 11.0474 15.2235C11.0474 15.7673 11.1509 16.2874 11.3341 16.7662H0.328789C0.27855 16.2608 0.251953 15.7437 0.251953 15.2235C0.251953 6.87202 7.02241 0.101562 15.371 0.101562C23.7225 0.101562 30.4929 6.87202 30.4929 15.2235C30.4929 19.6475 28.5927 23.6282 25.5606 26.3943L25.1912 26.7165L25.1765 26.7312L23.3856 28.3093C27.6559 30.9779 30.4929 35.7211 30.4929 41.1292Z" fill="#F12323"/>
</svg>
