<svg width="20" height="20" viewBox="0 0 20 20" fill="none" xmlns="http://www.w3.org/2000/svg">
<path d="M10 1C14.96 1 19 5.04 19 10C19 14.96 14.96 19 10 19C5.04 19 1 14.96 1 10C1 5.04 5.04 1 10 1ZM10 0C4.48 0 0 4.48 0 10C0 15.52 4.48 20 10 20C15.52 20 20 15.52 20 10C20 4.48 15.52 0 10 0Z" fill="#F12323"/>
<path d="M12.6238 10.0015L14.0338 8.59154C14.7638 7.86154 14.7638 6.69156 14.0338 5.96156C13.3038 5.23156 12.1338 5.23156 11.4038 5.96156L9.99375 7.37157L8.58376 5.96156C7.85375 5.23156 6.68375 5.23156 5.95375 5.96156C5.22375 6.69156 5.22375 7.86154 5.95375 8.59154L7.36375 10.0015L5.95375 11.4115C5.22375 12.1415 5.22375 13.3115 5.95375 14.0415C6.68375 14.7715 7.85375 14.7715 8.58376 14.0415L9.99375 12.6315L11.4038 14.0415C12.1338 14.7715 13.3038 14.7715 14.0338 14.0415C14.7638 13.3115 14.7638 12.1415 14.0338 11.4115L12.6238 10.0015Z" fill="#F12323"/>
</svg>
