<svg width="20" height="20" viewBox="0 0 20 20" fill="none" xmlns="http://www.w3.org/2000/svg">
<path d="M1.77574 15.0738L1.843 14.8658L1.73593 14.6752C0.955211 13.2851 0.5 11.6989 0.5 10C0.5 4.75614 4.75614 0.5 10 0.5C15.2439 0.5 19.5 4.75614 19.5 10C19.5 15.2439 15.2439 19.5 10 19.5C8.19629 19.5 6.51573 18.9877 5.08016 18.113L4.87679 17.9891L4.65242 18.0689L1.10409 19.3312C0.769994 19.4092 0.466217 19.0834 0.590272 18.7398L0.593147 18.7319L0.595751 18.7238L1.77574 15.0738ZM11.0965 5.48644L10 6.58289L8.90354 5.48644C7.95828 4.54118 6.43167 4.54118 5.48641 5.48644C4.54115 6.4317 4.54115 7.95829 5.48641 8.90356L5.83997 8.55L5.48641 8.90356L6.58287 10L5.48641 11.0964L5.83997 11.45L5.48641 11.0964C4.54115 12.0417 4.54115 13.5683 5.48641 14.5136C6.43167 15.4588 7.95828 15.4588 8.90354 14.5136L10 13.4171L11.0965 14.5136C12.0417 15.4588 13.5683 15.4588 14.5135 14.5136C15.4588 13.5683 15.4588 12.0417 14.5135 11.0964L14.16 11.45L14.5135 11.0964L13.4171 10L14.5135 8.90356L14.16 8.55L14.5135 8.90356C15.4588 7.95829 15.4588 6.4317 14.5135 5.48644C13.5683 4.54118 12.0417 4.54118 11.0965 5.48644Z" fill="black" stroke="black"/>
</svg>
