<svg width="20" height="24" viewBox="0 0 20 24" fill="none" xmlns="http://www.w3.org/2000/svg">
<path d="M7.52662 20.9805H12.486C12.2531 22.1351 11.2301 23.0081 10.0081 23.0081C8.77368 23.0081 7.75169 22.1332 7.52662 20.9805Z" fill="black" stroke="black"/>
<mask id="path-2-inside-1_7872_4516" fill="white">
<path d="M1.69141 9.75548C1.69141 9.70943 1.69141 9.80153 1.69141 9.75548V9.75548Z"/>
</mask>
<path d="M1.69141 9.75548C1.69141 9.70943 1.69141 9.80153 1.69141 9.75548V9.75548Z" fill="black"/>
<path d="M2.69141 9.75548C2.69141 9.75539 2.69141 9.7553 2.69141 9.75521C2.69141 9.75512 2.69141 9.75503 2.69141 9.75495C2.69141 9.75486 2.69141 9.75477 2.69141 9.75468C2.69141 9.7546 2.69141 9.75451 2.69141 9.75443C2.69141 9.75434 2.69141 9.75426 2.69141 9.75417C2.69141 9.75409 2.69141 9.754 2.69141 9.75392C2.69141 9.75383 2.69141 9.75375 2.69141 9.75367C2.69141 9.75359 2.69141 9.7535 2.69141 9.75342C2.69141 9.75334 2.69141 9.75326 2.69141 9.75318C2.69141 9.7531 2.69141 9.75302 2.69141 9.75294C2.69141 9.75286 2.69141 9.75278 2.69141 9.7527C2.69141 9.75262 2.69141 9.75254 2.69141 9.75247C2.69141 9.75239 2.69141 9.75231 2.69141 9.75224C2.69141 9.75216 2.69141 9.75208 2.69141 9.75201C2.69141 9.75193 2.69141 9.75186 2.69141 9.75178C2.69141 9.75171 2.69141 9.75163 2.69141 9.75156C2.69141 9.75149 2.69141 9.75141 2.69141 9.75134C2.69141 9.75127 2.69141 9.7512 2.69141 9.75112C2.69141 9.75105 2.69141 9.75098 2.69141 9.75091C2.69141 9.75084 2.69141 9.75077 2.69141 9.7507C2.69141 9.75063 2.69141 9.75056 2.69141 9.75049C2.69141 9.75042 2.69141 9.75036 2.69141 9.75029C2.69141 9.75022 2.69141 9.75015 2.69141 9.75009C2.69141 9.75002 2.69141 9.74995 2.69141 9.74989C2.69141 9.74982 2.69141 9.74976 2.69141 9.74969C2.69141 9.74963 2.69141 9.74956 2.69141 9.7495C2.69141 9.74943 2.69141 9.74937 2.69141 9.74931C2.69141 9.74924 2.69141 9.74918 2.69141 9.74912C2.69141 9.74906 2.69141 9.749 2.69141 9.74894C2.69141 9.74887 2.69141 9.74881 2.69141 9.74875C2.69141 9.74869 2.69141 9.74863 2.69141 9.74857C2.69141 9.74851 2.69141 9.74846 2.69141 9.7484C2.69141 9.74834 2.69141 9.74828 2.69141 9.74822C2.69141 9.74817 2.69141 9.74811 2.69141 9.74805C2.69141 9.748 2.69141 9.74794 2.69141 9.74789C2.69141 9.74783 2.69141 9.74777 2.69141 9.74772C2.69141 9.74767 2.69141 9.74761 2.69141 9.74756C2.69141 9.7475 2.69141 9.74745 2.69141 9.7474C2.69141 9.74734 2.69141 9.74729 2.69141 9.74724C2.69141 9.74719 2.69141 9.74714 2.69141 9.74709C2.69141 9.74703 2.69141 9.74698 2.69141 9.74693C2.69141 9.74688 2.69141 9.74683 2.69141 9.74678C2.69141 9.74674 2.69141 9.74669 2.69141 9.74664C2.69141 9.74659 2.69141 9.74654 2.69141 9.74649C2.69141 9.74645 2.69141 9.7464 2.69141 9.74635C2.69141 9.74631 2.69141 9.74626 2.69141 9.74621C2.69141 9.74617 2.69141 9.74612 2.69141 9.74608C2.69141 9.74603 2.69141 9.74599 2.69141 9.74594C2.69141 9.7459 2.69141 9.74586 2.69141 9.74581C2.69141 9.74577 2.69141 9.74573 2.69141 9.74568C2.69141 9.74564 2.69141 9.7456 2.69141 9.74556C2.69141 9.74552 2.69141 9.74548 2.69141 9.74544C2.69141 9.74539 2.69141 9.74535 2.69141 9.74531C2.69141 9.74527 2.69141 9.74524 2.69141 9.7452C2.69141 9.74516 2.69141 9.74512 2.69141 9.74508C2.69141 9.74504 2.69141 9.745 2.69141 9.74497C2.69141 9.74493 2.69141 9.74489 2.69141 9.74486C2.69141 9.74482 2.69141 9.74478 2.69141 9.74475C2.69141 9.74471 2.69141 9.74468 2.69141 9.74464C2.69141 9.74461 2.69141 9.74457 2.69141 9.74454C2.69141 9.7445 2.69141 9.74447 2.69141 9.74444C2.69141 9.7444 2.69141 9.74437 2.69141 9.74434C2.69141 9.74431 2.69141 9.74427 2.69141 9.74424C2.69141 9.74421 2.69141 9.74418 2.69141 9.74415C2.69141 9.74412 2.69141 9.74409 2.69141 9.74406C2.69141 9.74403 2.69141 9.744 2.69141 9.74397C2.69141 9.74394 2.69141 9.74391 2.69141 9.74388C2.69141 9.74385 2.69141 9.74382 2.69141 9.7438C2.69141 9.74377 2.69141 9.74374 2.69141 9.74371C2.69141 9.74369 2.69141 9.74366 2.69141 9.74363C2.69141 9.74361 2.69141 9.74358 2.69141 9.74356C2.69141 9.74353 2.69141 9.74351 2.69141 9.74348C2.69141 9.74346 2.69141 9.74343 2.69141 9.74341C2.69141 9.74338 2.69141 9.74336 2.69141 9.74334C2.69141 9.74331 2.69141 9.74329 2.69141 9.74327C2.69141 9.74325 2.69141 9.74322 2.69141 9.7432C2.69141 9.74318 2.69141 9.74316 2.69141 9.74314C2.69141 9.74312 2.69141 9.7431 2.69141 9.74308C2.69141 9.74306 2.69141 9.74304 2.69141 9.74302C2.69141 9.743 2.69141 9.74298 2.69141 9.74296C2.69141 9.74294 2.69141 9.74292 2.69141 9.7429C2.69141 9.74289 2.69141 9.74287 2.69141 9.74285C2.69141 9.74283 2.69141 9.74282 2.69141 9.7428C2.69141 9.74278 2.69141 9.74277 2.69141 9.74275C2.69141 9.74274 2.69141 9.74272 2.69141 9.7427C2.69141 9.74269 2.69141 9.74267 2.69141 9.74266C2.69141 9.74265 2.69141 9.74263 2.69141 9.74262C2.69141 9.7426 2.69141 9.74259 2.69141 9.74258C2.69141 9.74256 2.69141 9.74255 2.69141 9.74254C2.69141 9.74253 2.69141 9.74251 2.69141 9.7425C2.69141 9.74249 2.69141 9.74248 2.69141 9.74247C2.69141 9.74246 2.69141 9.74245 2.69141 9.74244C2.69141 9.74243 2.69141 9.74242 2.69141 9.74241C2.69141 9.7424 2.69141 9.74239 2.69141 9.74238C2.69141 9.74237 2.69141 9.74236 2.69141 9.74235C2.69141 9.74234 2.69141 9.74233 2.69141 9.74233C2.69141 9.74232 2.69141 9.74231 2.69141 9.7423C2.69141 9.7423 2.69141 9.74229 2.69141 9.74228C2.69141 9.74228 2.69141 9.74227 2.69141 9.74227C2.69141 9.74226 2.69141 9.74226 2.69141 9.74225C2.69141 9.74224 2.69141 9.74224 2.69141 9.74224C2.69141 9.74223 2.69141 9.74223 2.69141 9.74222C2.69141 9.74222 2.69141 9.74222 2.69141 9.74221C2.69141 9.74221 2.69141 9.74221 2.69141 9.7422C2.69141 9.7422 2.69141 9.7422 2.69141 9.7422C2.69141 9.74219 2.69141 9.74219 2.69141 9.74219C2.69141 9.74219 2.69141 9.74219 2.69141 9.74219C2.69141 9.74219 2.69141 9.74219 2.69141 9.74219C1.69141 9.74219 0.691406 9.74219 0.691406 9.74219C0.691406 9.74219 0.691406 9.74219 0.691406 9.74219C0.691406 9.74219 0.691406 9.74219 0.691406 9.74219C0.691406 9.7422 0.691406 9.7422 0.691406 9.7422C0.691406 9.7422 0.691406 9.74221 0.691406 9.74221C0.691406 9.74221 0.691406 9.74221 0.691406 9.74222C0.691406 9.74222 0.691406 9.74223 0.691406 9.74223C0.691406 9.74223 0.691406 9.74224 0.691406 9.74224C0.691406 9.74225 0.691406 9.74225 0.691406 9.74226C0.691406 9.74226 0.691406 9.74227 0.691406 9.74227C0.691406 9.74228 0.691406 9.74229 0.691406 9.74229C0.691406 9.7423 0.691406 9.7423 0.691406 9.74231C0.691406 9.74232 0.691406 9.74233 0.691406 9.74233C0.691406 9.74234 0.691406 9.74235 0.691406 9.74236C0.691406 9.74236 0.691406 9.74237 0.691406 9.74238C0.691406 9.74239 0.691406 9.7424 0.691406 9.74241C0.691406 9.74242 0.691406 9.74243 0.691406 9.74244C0.691406 9.74245 0.691406 9.74245 0.691406 9.74247C0.691406 9.74248 0.691406 9.74249 0.691406 9.7425C0.691406 9.74251 0.691406 9.74252 0.691406 9.74253C0.691406 9.74254 0.691406 9.74255 0.691406 9.74256C0.691406 9.74258 0.691406 9.74259 0.691406 9.7426C0.691406 9.74261 0.691406 9.74262 0.691406 9.74264C0.691406 9.74265 0.691406 9.74266 0.691406 9.74268C0.691406 9.74269 0.691406 9.7427 0.691406 9.74272C0.691406 9.74273 0.691406 9.74275 0.691406 9.74276C0.691406 9.74277 0.691406 9.74279 0.691406 9.7428C0.691406 9.74282 0.691406 9.74283 0.691406 9.74285C0.691406 9.74286 0.691406 9.74288 0.691406 9.7429C0.691406 9.74291 0.691406 9.74293 0.691406 9.74294C0.691406 9.74296 0.691406 9.74298 0.691406 9.74299C0.691406 9.74301 0.691406 9.74303 0.691406 9.74304C0.691406 9.74306 0.691406 9.74308 0.691406 9.7431C0.691406 9.74311 0.691406 9.74313 0.691406 9.74315C0.691406 9.74317 0.691406 9.74319 0.691406 9.74321C0.691406 9.74322 0.691406 9.74324 0.691406 9.74326C0.691406 9.74328 0.691406 9.7433 0.691406 9.74332C0.691406 9.74334 0.691406 9.74336 0.691406 9.74338C0.691406 9.7434 0.691406 9.74342 0.691406 9.74344C0.691406 9.74346 0.691406 9.74348 0.691406 9.7435C0.691406 9.74352 0.691406 9.74355 0.691406 9.74357C0.691406 9.74359 0.691406 9.74361 0.691406 9.74363C0.691406 9.74365 0.691406 9.74368 0.691406 9.7437C0.691406 9.74372 0.691406 9.74374 0.691406 9.74377C0.691406 9.74379 0.691406 9.74381 0.691406 9.74383C0.691406 9.74386 0.691406 9.74388 0.691406 9.7439C0.691406 9.74393 0.691406 9.74395 0.691406 9.74398C0.691406 9.744 0.691406 9.74402 0.691406 9.74405C0.691406 9.74407 0.691406 9.7441 0.691406 9.74412C0.691406 9.74415 0.691406 9.74417 0.691406 9.7442C0.691406 9.74422 0.691406 9.74425 0.691406 9.74427C0.691406 9.7443 0.691406 9.74432 0.691406 9.74435C0.691406 9.74438 0.691406 9.7444 0.691406 9.74443C0.691406 9.74446 0.691406 9.74448 0.691406 9.74451C0.691406 9.74454 0.691406 9.74456 0.691406 9.74459C0.691406 9.74462 0.691406 9.74464 0.691406 9.74467C0.691406 9.7447 0.691406 9.74473 0.691406 9.74476C0.691406 9.74478 0.691406 9.74481 0.691406 9.74484C0.691406 9.74487 0.691406 9.7449 0.691406 9.74492C0.691406 9.74495 0.691406 9.74498 0.691406 9.74501C0.691406 9.74504 0.691406 9.74507 0.691406 9.7451C0.691406 9.74513 0.691406 9.74516 0.691406 9.74519C0.691406 9.74522 0.691406 9.74525 0.691406 9.74528C0.691406 9.74531 0.691406 9.74534 0.691406 9.74537C0.691406 9.7454 0.691406 9.74543 0.691406 9.74546C0.691406 9.74549 0.691406 9.74552 0.691406 9.74555C0.691406 9.74558 0.691406 9.74562 0.691406 9.74565C0.691406 9.74568 0.691406 9.74571 0.691406 9.74574C0.691406 9.74577 0.691406 9.74581 0.691406 9.74584C0.691406 9.74587 0.691406 9.7459 0.691406 9.74593C0.691406 9.74597 0.691406 9.746 0.691406 9.74603C0.691406 9.74607 0.691406 9.7461 0.691406 9.74613C0.691406 9.74616 0.691406 9.7462 0.691406 9.74623C0.691406 9.74626 0.691406 9.7463 0.691406 9.74633C0.691406 9.74637 0.691406 9.7464 0.691406 9.74643C0.691406 9.74647 0.691406 9.7465 0.691406 9.74654C0.691406 9.74657 0.691406 9.7466 0.691406 9.74664C0.691406 9.74667 0.691406 9.74671 0.691406 9.74674C0.691406 9.74678 0.691406 9.74681 0.691406 9.74685C0.691406 9.74688 0.691406 9.74692 0.691406 9.74695C0.691406 9.74699 0.691406 9.74702 0.691406 9.74706C0.691406 9.7471 0.691406 9.74713 0.691406 9.74717C0.691406 9.7472 0.691406 9.74724 0.691406 9.74728C0.691406 9.74731 0.691406 9.74735 0.691406 9.74739C0.691406 9.74742 0.691406 9.74746 0.691406 9.7475C0.691406 9.74753 0.691406 9.74757 0.691406 9.74761C0.691406 9.74764 0.691406 9.74768 0.691406 9.74772C0.691406 9.74776 0.691406 9.74779 0.691406 9.74783C0.691406 9.74787 0.691406 9.74791 0.691406 9.74794C0.691406 9.74798 0.691406 9.74802 0.691406 9.74806C0.691406 9.7481 0.691406 9.74813 0.691406 9.74817C0.691406 9.74821 0.691406 9.74825 0.691406 9.74829C0.691406 9.74833 0.691406 9.74836 0.691406 9.7484C0.691406 9.74844 0.691406 9.74848 0.691406 9.74852C0.691406 9.74856 0.691406 9.7486 0.691406 9.74864C0.691406 9.74868 0.691406 9.74872 0.691406 9.74875C0.691406 9.74879 0.691406 9.74883 0.691406 9.74887C0.691406 9.74891 0.691406 9.74895 0.691406 9.74899C0.691406 9.74903 0.691406 9.74907 0.691406 9.74911C0.691406 9.74915 0.691406 9.74919 0.691406 9.74923C0.691406 9.74927 0.691406 9.74931 0.691406 9.74935C0.691406 9.74939 0.691406 9.74943 0.691406 9.74947C0.691406 9.74952 0.691406 9.74956 0.691406 9.7496C0.691406 9.74964 0.691406 9.74968 0.691406 9.74972C0.691406 9.74976 0.691406 9.7498 0.691406 9.74984C0.691406 9.74988 0.691406 9.74993 0.691406 9.74997C0.691406 9.75001 0.691406 9.75005 0.691406 9.75009C0.691406 9.75013 0.691406 9.75017 0.691406 9.75022C0.691406 9.75026 0.691406 9.7503 0.691406 9.75034C0.691406 9.75038 0.691406 9.75042 0.691406 9.75047C0.691406 9.75051 0.691406 9.75055 0.691406 9.75059C0.691406 9.75064 0.691406 9.75068 0.691406 9.75072C0.691406 9.75076 0.691406 9.7508 0.691406 9.75085C0.691406 9.75089 0.691406 9.75093 0.691406 9.75097C0.691406 9.75102 0.691406 9.75106 0.691406 9.7511C0.691406 9.75114 0.691406 9.75119 0.691406 9.75123C0.691406 9.75127 0.691406 9.75132 0.691406 9.75136C0.691406 9.7514 0.691406 9.75145 0.691406 9.75149C0.691406 9.75153 0.691406 9.75157 0.691406 9.75162C0.691406 9.75166 0.691406 9.7517 0.691406 9.75175C0.691406 9.75179 0.691406 9.75183 0.691406 9.75188C0.691406 9.75192 0.691406 9.75197 0.691406 9.75201C0.691406 9.75205 0.691406 9.7521 0.691406 9.75214C0.691406 9.75218 0.691406 9.75223 0.691406 9.75227C0.691406 9.75231 0.691406 9.75236 0.691406 9.7524C0.691406 9.75245 0.691406 9.75249 0.691406 9.75253C0.691406 9.75258 0.691406 9.75262 0.691406 9.75267C0.691406 9.75271 0.691406 9.75275 0.691406 9.7528C0.691406 9.75284 0.691406 9.75289 0.691406 9.75293C0.691406 9.75298 0.691406 9.75302 0.691406 9.75306C0.691406 9.75311 0.691406 9.75315 0.691406 9.7532C0.691406 9.75324 0.691406 9.75329 0.691406 9.75333C0.691406 9.75337 0.691406 9.75342 0.691406 9.75346C0.691406 9.75351 0.691406 9.75355 0.691406 9.7536C0.691406 9.75364 0.691406 9.75369 0.691406 9.75373C0.691406 9.75378 0.691406 9.75382 0.691406 9.75386C0.691406 9.75391 0.691406 9.75395 0.691406 9.754C0.691406 9.75404 0.691406 9.75409 0.691406 9.75413C0.691406 9.75418 0.691406 9.75422 0.691406 9.75427C0.691406 9.75431 0.691406 9.75436 0.691406 9.7544C0.691406 9.75445 0.691406 9.75449 0.691406 9.75454C0.691406 9.75458 0.691406 9.75463 0.691406 9.75467C0.691406 9.75472 0.691406 9.75476 0.691406 9.75481C0.691406 9.75485 0.691406 9.7549 0.691406 9.75494C0.691406 9.75499 0.691406 9.75503 0.691406 9.75508C0.691406 9.75512 0.691406 9.75517 0.691406 9.75521C0.691406 9.75526 0.691406 9.7553 0.691406 9.75535C0.691406 9.75539 0.691406 9.75544 0.691406 9.75548C0.691406 9.75553 0.691406 9.75557 0.691406 9.75561C0.691406 9.75566 0.691406 9.7557 0.691406 9.75575C0.691406 9.75579 0.691406 9.75584 0.691406 9.75588C0.691406 9.75593 0.691406 9.75597 0.691406 9.75602C0.691406 9.75606 0.691406 9.75611 0.691406 9.75615C0.691406 9.7562 0.691406 9.75624 0.691406 9.75629C0.691406 9.75633 0.691406 9.75638 0.691406 9.75642C0.691406 9.75647 0.691406 9.75651 0.691406 9.75656C0.691406 9.7566 0.691406 9.75665 0.691406 9.75669C0.691406 9.75674 0.691406 9.75678 0.691406 9.75683C0.691406 9.75687 0.691406 9.75692 0.691406 9.75696C0.691406 9.75701 0.691406 9.75705 0.691406 9.7571C0.691406 9.75714 0.691406 9.75718 0.691406 9.75723C0.691406 9.75727 0.691406 9.75732 0.691406 9.75736C0.691406 9.75741 0.691406 9.75745 0.691406 9.7575C0.691406 9.75754 0.691406 9.75759 0.691406 9.75763C0.691406 9.75767 0.691406 9.75772 0.691406 9.75776C0.691406 9.75781 0.691406 9.75785 0.691406 9.7579C0.691406 9.75794 0.691406 9.75798 0.691406 9.75803C0.691406 9.75807 0.691406 9.75812 0.691406 9.75816C0.691406 9.75821 0.691406 9.75825 0.691406 9.75829C0.691406 9.75834 0.691406 9.75838 0.691406 9.75843C0.691406 9.75847 0.691406 9.75851 0.691406 9.75856C0.691406 9.7586 0.691406 9.75865 0.691406 9.75869C0.691406 9.75873 0.691406 9.75878 0.691406 9.75882C0.691406 9.75886 0.691406 9.75891 0.691406 9.75895C0.691406 9.75899 0.691406 9.75904 0.691406 9.75908C0.691406 9.75913 0.691406 9.75917 0.691406 9.75921C0.691406 9.75926 0.691406 9.7593 0.691406 9.75934C0.691406 9.75939 0.691406 9.75943 0.691406 9.75947C0.691406 9.75951 0.691406 9.75956 0.691406 9.7596C0.691406 9.75964 0.691406 9.75969 0.691406 9.75973C0.691406 9.75977 0.691406 9.75982 0.691406 9.75986C0.691406 9.7599 0.691406 9.75994 0.691406 9.75999C0.691406 9.76003 0.691406 9.76007 0.691406 9.76011C0.691406 9.76016 0.691406 9.7602 0.691406 9.76024C0.691406 9.76028 0.691406 9.76033 0.691406 9.76037C0.691406 9.76041 0.691406 9.76045 0.691406 9.76049C0.691406 9.76054 0.691406 9.76058 0.691406 9.76062C0.691406 9.76066 0.691406 9.7607 0.691406 9.76074C0.691406 9.76079 0.691406 9.76083 0.691406 9.76087C0.691406 9.76091 0.691406 9.76095 0.691406 9.76099C0.691406 9.76103 0.691406 9.76108 0.691406 9.76112C0.691406 9.76116 0.691406 9.7612 0.691406 9.76124C0.691406 9.76128 0.691406 9.76132 0.691406 9.76136C0.691406 9.7614 0.691406 9.76144 0.691406 9.76149C0.691406 9.76153 0.691406 9.76157 0.691406 9.76161C0.691406 9.76165 0.691406 9.76169 0.691406 9.76173C0.691406 9.76177 0.691406 9.76181 0.691406 9.76185C0.691406 9.76189 0.691406 9.76193 0.691406 9.76197C0.691406 9.76201 0.691406 9.76205 0.691406 9.76209C0.691406 9.76213 0.691406 9.76217 0.691406 9.76221C0.691406 9.76225 0.691406 9.76228 0.691406 9.76232C0.691406 9.76236 0.691406 9.7624 0.691406 9.76244C0.691406 9.76248 0.691406 9.76252 0.691406 9.76256C0.691406 9.7626 0.691406 9.76263 0.691406 9.76267C0.691406 9.76271 0.691406 9.76275 0.691406 9.76279C0.691406 9.76283 0.691406 9.76286 0.691406 9.7629C0.691406 9.76294 0.691406 9.76298 0.691406 9.76302C0.691406 9.76305 0.691406 9.76309 0.691406 9.76313C0.691406 9.76317 0.691406 9.7632 0.691406 9.76324C0.691406 9.76328 0.691406 9.76332 0.691406 9.76335C0.691406 9.76339 0.691406 9.76343 0.691406 9.76346C0.691406 9.7635 0.691406 9.76354 0.691406 9.76357C0.691406 9.76361 0.691406 9.76365 0.691406 9.76368C0.691406 9.76372 0.691406 9.76376 0.691406 9.76379C0.691406 9.76383 0.691406 9.76386 0.691406 9.7639C0.691406 9.76394 0.691406 9.76397 0.691406 9.76401C0.691406 9.76404 0.691406 9.76408 0.691406 9.76411C0.691406 9.76415 0.691406 9.76418 0.691406 9.76422C0.691406 9.76425 0.691406 9.76429 0.691406 9.76432C0.691406 9.76436 0.691406 9.76439 0.691406 9.76442C0.691406 9.76446 0.691406 9.76449 0.691406 9.76453C0.691406 9.76456 0.691406 9.7646 0.691406 9.76463C0.691406 9.76466 0.691406 9.7647 0.691406 9.76473C0.691406 9.76476 0.691406 9.7648 0.691406 9.76483C0.691406 9.76486 0.691406 9.7649 0.691406 9.76493C0.691406 9.76496 0.691406 9.76499 0.691406 9.76503C0.691406 9.76506 0.691406 9.76509 0.691406 9.76512C0.691406 9.76515 0.691406 9.76519 0.691406 9.76522C0.691406 9.76525 0.691406 9.76528 0.691406 9.76531C0.691406 9.76534 0.691406 9.76538 0.691406 9.76541C0.691406 9.76544 0.691406 9.76547 0.691406 9.7655C0.691406 9.76553 0.691406 9.76556 0.691406 9.76559C0.691406 9.76562 0.691406 9.76565 0.691406 9.76568C0.691406 9.76571 0.691406 9.76574 0.691406 9.76577C0.691406 9.7658 0.691406 9.76583 0.691406 9.76586C0.691406 9.76589 0.691406 9.76592 0.691406 9.76595C0.691406 9.76598 0.691406 9.76601 0.691406 9.76604C0.691406 9.76606 0.691406 9.76609 0.691406 9.76612C0.691406 9.76615 0.691406 9.76618 0.691406 9.76621C0.691406 9.76623 0.691406 9.76626 0.691406 9.76629C0.691406 9.76632 0.691406 9.76634 0.691406 9.76637C0.691406 9.7664 0.691406 9.76642 0.691406 9.76645C0.691406 9.76648 0.691406 9.7665 0.691406 9.76653C0.691406 9.76656 0.691406 9.76658 0.691406 9.76661C0.691406 9.76664 0.691406 9.76666 0.691406 9.76669C0.691406 9.76671 0.691406 9.76674 0.691406 9.76676C0.691406 9.76679 0.691406 9.76681 0.691406 9.76684C0.691406 9.76686 0.691406 9.76689 0.691406 9.76691C0.691406 9.76694 0.691406 9.76696 0.691406 9.76698C0.691406 9.76701 0.691406 9.76703 0.691406 9.76706C0.691406 9.76708 0.691406 9.7671 0.691406 9.76713C0.691406 9.76715 0.691406 9.76717 0.691406 9.76719C0.691406 9.76722 0.691406 9.76724 0.691406 9.76726C0.691406 9.76728 0.691406 9.76731 0.691406 9.76733C0.691406 9.76735 0.691406 9.76737 0.691406 9.76739C0.691406 9.76741 0.691406 9.76744 0.691406 9.76746C0.691406 9.76748 0.691406 9.7675 0.691406 9.76752C0.691406 9.76754 0.691406 9.76756 0.691406 9.76758C0.691406 9.7676 0.691406 9.76762 0.691406 9.76764C0.691406 9.76766 0.691406 9.76768 0.691406 9.7677C0.691406 9.76772 0.691406 9.76774 0.691406 9.76775C0.691406 9.76777 0.691406 9.76779 0.691406 9.76781C0.691406 9.76783 0.691406 9.76785 0.691406 9.76786C0.691406 9.76788 0.691406 9.7679 0.691406 9.76792C0.691406 9.76793 0.691406 9.76795 0.691406 9.76797C0.691406 9.76798 0.691406 9.768 0.691406 9.76802C0.691406 9.76803 0.691406 9.76805 0.691406 9.76806C0.691406 9.76808 0.691406 9.7681 0.691406 9.76811C0.691406 9.76813 0.691406 9.76814 0.691406 9.76816C0.691406 9.76817 0.691406 9.76819 0.691406 9.7682C0.691406 9.76821 0.691406 9.76823 0.691406 9.76824C0.691406 9.76826 0.691406 9.76827 0.691406 9.76828C0.691406 9.7683 0.691406 9.76831 0.691406 9.76832C0.691406 9.76834 0.691406 9.76835 0.691406 9.76836C0.691406 9.76837 0.691406 9.76838 0.691406 9.7684C0.691406 9.76841 0.691406 9.76842 0.691406 9.76843C0.691406 9.76844 0.691406 9.76845 0.691406 9.76846C0.691406 9.76847 0.691406 9.76848 0.691406 9.7685C0.691406 9.76851 0.691406 9.76852 0.691406 9.76852C0.691406 9.76853 0.691406 9.76854 0.691406 9.76855C0.691406 9.76856 0.691406 9.76857 0.691406 9.76858C0.691406 9.76859 0.691406 9.7686 0.691406 9.7686C0.691406 9.76861 0.691406 9.76862 0.691406 9.76863C0.691406 9.76863 0.691406 9.76864 0.691406 9.76865C0.691406 9.76866 0.691406 9.76866 0.691406 9.76867C0.691406 9.76868 0.691406 9.76868 0.691406 9.76869C0.691406 9.76869 0.691406 9.7687 0.691406 9.7687C0.691406 9.76871 0.691406 9.76871 0.691406 9.76872C0.691406 9.76872 0.691406 9.76873 0.691406 9.76873C0.691406 9.76874 0.691406 9.76874 0.691406 9.76874C0.691406 9.76875 0.691406 9.76875 0.691406 9.76875C0.691406 9.76875 0.691406 9.76876 0.691406 9.76876C0.691406 9.76876 0.691406 9.76876 0.691406 9.76877C0.691406 9.76877 0.691406 9.76877 0.691406 9.76877C0.691406 9.76877 0.691406 9.76877 0.691406 9.76877C0.691406 9.76877 1.69141 9.76877 2.69141 9.76877C2.69141 9.76877 2.69141 9.76877 2.69141 9.76877C2.69141 9.76877 2.69141 9.76877 2.69141 9.76877C2.69141 9.76877 2.69141 9.76877 2.69141 9.76876C2.69141 9.76876 2.69141 9.76876 2.69141 9.76876C2.69141 9.76875 2.69141 9.76875 2.69141 9.76875C2.69141 9.76874 2.69141 9.76874 2.69141 9.76874C2.69141 9.76873 2.69141 9.76873 2.69141 9.76872C2.69141 9.76872 2.69141 9.76872 2.69141 9.76871C2.69141 9.76871 2.69141 9.7687 2.69141 9.76869C2.69141 9.76869 2.69141 9.76868 2.69141 9.76868C2.69141 9.76867 2.69141 9.76866 2.69141 9.76866C2.69141 9.76865 2.69141 9.76864 2.69141 9.76863C2.69141 9.76863 2.69141 9.76862 2.69141 9.76861C2.69141 9.7686 2.69141 9.76859 2.69141 9.76858C2.69141 9.76857 2.69141 9.76856 2.69141 9.76855C2.69141 9.76854 2.69141 9.76853 2.69141 9.76852C2.69141 9.76851 2.69141 9.7685 2.69141 9.76849C2.69141 9.76848 2.69141 9.76847 2.69141 9.76846C2.69141 9.76845 2.69141 9.76843 2.69141 9.76842C2.69141 9.76841 2.69141 9.7684 2.69141 9.76838C2.69141 9.76837 2.69141 9.76836 2.69141 9.76834C2.69141 9.76833 2.69141 9.76831 2.69141 9.7683C2.69141 9.76829 2.69141 9.76827 2.69141 9.76826C2.69141 9.76824 2.69141 9.76822 2.69141 9.76821C2.69141 9.76819 2.69141 9.76818 2.69141 9.76816C2.69141 9.76814 2.69141 9.76813 2.69141 9.76811C2.69141 9.76809 2.69141 9.76807 2.69141 9.76806C2.69141 9.76804 2.69141 9.76802 2.69141 9.768C2.69141 9.76798 2.69141 9.76796 2.69141 9.76794C2.69141 9.76792 2.69141 9.7679 2.69141 9.76788C2.69141 9.76786 2.69141 9.76784 2.69141 9.76782C2.69141 9.7678 2.69141 9.76778 2.69141 9.76776C2.69141 9.76774 2.69141 9.76771 2.69141 9.76769C2.69141 9.76767 2.69141 9.76765 2.69141 9.76762C2.69141 9.7676 2.69141 9.76758 2.69141 9.76755C2.69141 9.76753 2.69141 9.7675 2.69141 9.76748C2.69141 9.76745 2.69141 9.76743 2.69141 9.7674C2.69141 9.76738 2.69141 9.76735 2.69141 9.76733C2.69141 9.7673 2.69141 9.76727 2.69141 9.76725C2.69141 9.76722 2.69141 9.76719 2.69141 9.76716C2.69141 9.76714 2.69141 9.76711 2.69141 9.76708C2.69141 9.76705 2.69141 9.76702 2.69141 9.76699C2.69141 9.76696 2.69141 9.76693 2.69141 9.7669C2.69141 9.76687 2.69141 9.76684 2.69141 9.76681C2.69141 9.76678 2.69141 9.76675 2.69141 9.76672C2.69141 9.76669 2.69141 9.76665 2.69141 9.76662C2.69141 9.76659 2.69141 9.76656 2.69141 9.76652C2.69141 9.76649 2.69141 9.76646 2.69141 9.76642C2.69141 9.76639 2.69141 9.76635 2.69141 9.76632C2.69141 9.76628 2.69141 9.76625 2.69141 9.76621C2.69141 9.76618 2.69141 9.76614 2.69141 9.7661C2.69141 9.76607 2.69141 9.76603 2.69141 9.76599C2.69141 9.76596 2.69141 9.76592 2.69141 9.76588C2.69141 9.76584 2.69141 9.7658 2.69141 9.76576C2.69141 9.76572 2.69141 9.76569 2.69141 9.76565C2.69141 9.76561 2.69141 9.76557 2.69141 9.76552C2.69141 9.76548 2.69141 9.76544 2.69141 9.7654C2.69141 9.76536 2.69141 9.76532 2.69141 9.76528C2.69141 9.76523 2.69141 9.76519 2.69141 9.76515C2.69141 9.7651 2.69141 9.76506 2.69141 9.76502C2.69141 9.76497 2.69141 9.76493 2.69141 9.76488C2.69141 9.76484 2.69141 9.76479 2.69141 9.76475C2.69141 9.7647 2.69141 9.76465 2.69141 9.76461C2.69141 9.76456 2.69141 9.76451 2.69141 9.76447C2.69141 9.76442 2.69141 9.76437 2.69141 9.76432C2.69141 9.76427 2.69141 9.76423 2.69141 9.76418C2.69141 9.76413 2.69141 9.76408 2.69141 9.76403C2.69141 9.76398 2.69141 9.76393 2.69141 9.76387C2.69141 9.76382 2.69141 9.76377 2.69141 9.76372C2.69141 9.76367 2.69141 9.76362 2.69141 9.76356C2.69141 9.76351 2.69141 9.76346 2.69141 9.7634C2.69141 9.76335 2.69141 9.76329 2.69141 9.76324C2.69141 9.76319 2.69141 9.76313 2.69141 9.76307C2.69141 9.76302 2.69141 9.76296 2.69141 9.76291C2.69141 9.76285 2.69141 9.76279 2.69141 9.76274C2.69141 9.76268 2.69141 9.76262 2.69141 9.76256C2.69141 9.7625 2.69141 9.76245 2.69141 9.76239C2.69141 9.76233 2.69141 9.76227 2.69141 9.76221C2.69141 9.76215 2.69141 9.76209 2.69141 9.76203C2.69141 9.76196 2.69141 9.7619 2.69141 9.76184C2.69141 9.76178 2.69141 9.76172 2.69141 9.76165C2.69141 9.76159 2.69141 9.76153 2.69141 9.76146C2.69141 9.7614 2.69141 9.76133 2.69141 9.76127C2.69141 9.7612 2.69141 9.76114 2.69141 9.76107C2.69141 9.76101 2.69141 9.76094 2.69141 9.76087C2.69141 9.76081 2.69141 9.76074 2.69141 9.76067C2.69141 9.7606 2.69141 9.76054 2.69141 9.76047C2.69141 9.7604 2.69141 9.76033 2.69141 9.76026C2.69141 9.76019 2.69141 9.76012 2.69141 9.76005C2.69141 9.75998 2.69141 9.75991 2.69141 9.75984C2.69141 9.75976 2.69141 9.75969 2.69141 9.75962C2.69141 9.75955 2.69141 9.75947 2.69141 9.7594C2.69141 9.75933 2.69141 9.75925 2.69141 9.75918C2.69141 9.7591 2.69141 9.75903 2.69141 9.75895C2.69141 9.75888 2.69141 9.7588 2.69141 9.75872C2.69141 9.75865 2.69141 9.75857 2.69141 9.75849C2.69141 9.75842 2.69141 9.75834 2.69141 9.75826C2.69141 9.75818 2.69141 9.7581 2.69141 9.75802C2.69141 9.75794 2.69141 9.75786 2.69141 9.75778C2.69141 9.7577 2.69141 9.75762 2.69141 9.75754C2.69141 9.75746 2.69141 9.75737 2.69141 9.75729C2.69141 9.75721 2.69141 9.75713 2.69141 9.75704C2.69141 9.75696 2.69141 9.75687 2.69141 9.75679C2.69141 9.75671 2.69141 9.75662 2.69141 9.75653C2.69141 9.75645 2.69141 9.75636 2.69141 9.75628C2.69141 9.75619 2.69141 9.7561 2.69141 9.75601C2.69141 9.75593 2.69141 9.75584 2.69141 9.75575C2.69141 9.75566 2.69141 9.75557 2.69141 9.75548H0.691406C0.691406 9.75557 0.691406 9.75566 0.691406 9.75575C0.691406 9.75584 0.691406 9.75593 0.691406 9.75601C0.691406 9.7561 0.691406 9.75619 0.691406 9.75628C0.691406 9.75636 0.691406 9.75645 0.691406 9.75653C0.691406 9.75662 0.691406 9.75671 0.691406 9.75679C0.691406 9.75687 0.691406 9.75696 0.691406 9.75704C0.691406 9.75713 0.691406 9.75721 0.691406 9.75729C0.691406 9.75737 0.691406 9.75746 0.691406 9.75754C0.691406 9.75762 0.691406 9.7577 0.691406 9.75778C0.691406 9.75786 0.691406 9.75794 0.691406 9.75802C0.691406 9.7581 0.691406 9.75818 0.691406 9.75826C0.691406 9.75834 0.691406 9.75842 0.691406 9.75849C0.691406 9.75857 0.691406 9.75865 0.691406 9.75872C0.691406 9.7588 0.691406 9.75888 0.691406 9.75895C0.691406 9.75903 0.691406 9.7591 0.691406 9.75918C0.691406 9.75925 0.691406 9.75933 0.691406 9.7594C0.691406 9.75947 0.691406 9.75955 0.691406 9.75962C0.691406 9.75969 0.691406 9.75976 0.691406 9.75984C0.691406 9.75991 0.691406 9.75998 0.691406 9.76005C0.691406 9.76012 0.691406 9.76019 0.691406 9.76026C0.691406 9.76033 0.691406 9.7604 0.691406 9.76047C0.691406 9.76054 0.691406 9.7606 0.691406 9.76067C0.691406 9.76074 0.691406 9.76081 0.691406 9.76087C0.691406 9.76094 0.691406 9.76101 0.691406 9.76107C0.691406 9.76114 0.691406 9.7612 0.691406 9.76127C0.691406 9.76133 0.691406 9.7614 0.691406 9.76146C0.691406 9.76153 0.691406 9.76159 0.691406 9.76165C0.691406 9.76172 0.691406 9.76178 0.691406 9.76184C0.691406 9.7619 0.691406 9.76196 0.691406 9.76203C0.691406 9.76209 0.691406 9.76215 0.691406 9.76221C0.691406 9.76227 0.691406 9.76233 0.691406 9.76239C0.691406 9.76245 0.691406 9.7625 0.691406 9.76256C0.691406 9.76262 0.691406 9.76268 0.691406 9.76274C0.691406 9.76279 0.691406 9.76285 0.691406 9.76291C0.691406 9.76296 0.691406 9.76302 0.691406 9.76307C0.691406 9.76313 0.691406 9.76319 0.691406 9.76324C0.691406 9.76329 0.691406 9.76335 0.691406 9.7634C0.691406 9.76346 0.691406 9.76351 0.691406 9.76356C0.691406 9.76362 0.691406 9.76367 0.691406 9.76372C0.691406 9.76377 0.691406 9.76382 0.691406 9.76387C0.691406 9.76393 0.691406 9.76398 0.691406 9.76403C0.691406 9.76408 0.691406 9.76413 0.691406 9.76418C0.691406 9.76423 0.691406 9.76427 0.691406 9.76432C0.691406 9.76437 0.691406 9.76442 0.691406 9.76447C0.691406 9.76451 0.691406 9.76456 0.691406 9.76461C0.691406 9.76465 0.691406 9.7647 0.691406 9.76475C0.691406 9.76479 0.691406 9.76484 0.691406 9.76488C0.691406 9.76493 0.691406 9.76497 0.691406 9.76502C0.691406 9.76506 0.691406 9.7651 0.691406 9.76515C0.691406 9.76519 0.691406 9.76523 0.691406 9.76528C0.691406 9.76532 0.691406 9.76536 0.691406 9.7654C0.691406 9.76544 0.691406 9.76548 0.691406 9.76552C0.691406 9.76557 0.691406 9.76561 0.691406 9.76565C0.691406 9.76569 0.691406 9.76572 0.691406 9.76576C0.691406 9.7658 0.691406 9.76584 0.691406 9.76588C0.691406 9.76592 0.691406 9.76596 0.691406 9.76599C0.691406 9.76603 0.691406 9.76607 0.691406 9.7661C0.691406 9.76614 0.691406 9.76618 0.691406 9.76621C0.691406 9.76625 0.691406 9.76628 0.691406 9.76632C0.691406 9.76635 0.691406 9.76639 0.691406 9.76642C0.691406 9.76646 0.691406 9.76649 0.691406 9.76652C0.691406 9.76656 0.691406 9.76659 0.691406 9.76662C0.691406 9.76665 0.691406 9.76669 0.691406 9.76672C0.691406 9.76675 0.691406 9.76678 0.691406 9.76681C0.691406 9.76684 0.691406 9.76687 0.691406 9.7669C0.691406 9.76693 0.691406 9.76696 0.691406 9.76699C0.691406 9.76702 0.691406 9.76705 0.691406 9.76708C0.691406 9.76711 0.691406 9.76714 0.691406 9.76716C0.691406 9.76719 0.691406 9.76722 0.691406 9.76725C0.691406 9.76727 0.691406 9.7673 0.691406 9.76733C0.691406 9.76735 0.691406 9.76738 0.691406 9.7674C0.691406 9.76743 0.691406 9.76745 0.691406 9.76748C0.691406 9.7675 0.691406 9.76753 0.691406 9.76755C0.691406 9.76758 0.691406 9.7676 0.691406 9.76762C0.691406 9.76765 0.691406 9.76767 0.691406 9.76769C0.691406 9.76771 0.691406 9.76774 0.691406 9.76776C0.691406 9.76778 0.691406 9.7678 0.691406 9.76782C0.691406 9.76784 0.691406 9.76786 0.691406 9.76788C0.691406 9.7679 0.691406 9.76792 0.691406 9.76794C0.691406 9.76796 0.691406 9.76798 0.691406 9.768C0.691406 9.76802 0.691406 9.76804 0.691406 9.76806C0.691406 9.76807 0.691406 9.76809 0.691406 9.76811C0.691406 9.76813 0.691406 9.76814 0.691406 9.76816C0.691406 9.76818 0.691406 9.76819 0.691406 9.76821C0.691406 9.76822 0.691406 9.76824 0.691406 9.76826C0.691406 9.76827 0.691406 9.76829 0.691406 9.7683C0.691406 9.76831 0.691406 9.76833 0.691406 9.76834C0.691406 9.76836 0.691406 9.76837 0.691406 9.76838C0.691406 9.7684 0.691406 9.76841 0.691406 9.76842C0.691406 9.76843 0.691406 9.76845 0.691406 9.76846C0.691406 9.76847 0.691406 9.76848 0.691406 9.76849C0.691406 9.7685 0.691406 9.76851 0.691406 9.76852C0.691406 9.76853 0.691406 9.76854 0.691406 9.76855C0.691406 9.76856 0.691406 9.76857 0.691406 9.76858C0.691406 9.76859 0.691406 9.7686 0.691406 9.76861C0.691406 9.76862 0.691406 9.76863 0.691406 9.76863C0.691406 9.76864 0.691406 9.76865 0.691406 9.76866C0.691406 9.76866 0.691406 9.76867 0.691406 9.76868C0.691406 9.76868 0.691406 9.76869 0.691406 9.76869C0.691406 9.7687 0.691406 9.76871 0.691406 9.76871C0.691406 9.76872 0.691406 9.76872 0.691406 9.76872C0.691406 9.76873 0.691406 9.76873 0.691406 9.76874C0.691406 9.76874 0.691406 9.76874 0.691406 9.76875C0.691406 9.76875 0.691406 9.76875 0.691406 9.76876C0.691406 9.76876 0.691406 9.76876 0.691406 9.76876C0.691406 9.76877 0.691406 9.76877 0.691406 9.76877C0.691406 9.76877 0.691406 9.76877 0.691406 9.76877C0.691406 9.76877 0.691406 9.76877 0.691406 9.76877C1.69141 9.76877 2.69141 9.76877 2.69141 9.76877C2.69141 9.76877 2.69141 9.76877 2.69141 9.76877C2.69141 9.76877 2.69141 9.76877 2.69141 9.76877C2.69141 9.76876 2.69141 9.76876 2.69141 9.76876C2.69141 9.76876 2.69141 9.76875 2.69141 9.76875C2.69141 9.76875 2.69141 9.76875 2.69141 9.76874C2.69141 9.76874 2.69141 9.76874 2.69141 9.76873C2.69141 9.76873 2.69141 9.76872 2.69141 9.76872C2.69141 9.76871 2.69141 9.76871 2.69141 9.7687C2.69141 9.7687 2.69141 9.76869 2.69141 9.76869C2.69141 9.76868 2.69141 9.76868 2.69141 9.76867C2.69141 9.76866 2.69141 9.76866 2.69141 9.76865C2.69141 9.76864 2.69141 9.76863 2.69141 9.76863C2.69141 9.76862 2.69141 9.76861 2.69141 9.7686C2.69141 9.7686 2.69141 9.76859 2.69141 9.76858C2.69141 9.76857 2.69141 9.76856 2.69141 9.76855C2.69141 9.76854 2.69141 9.76853 2.69141 9.76852C2.69141 9.76852 2.69141 9.76851 2.69141 9.7685C2.69141 9.76848 2.69141 9.76847 2.69141 9.76846C2.69141 9.76845 2.69141 9.76844 2.69141 9.76843C2.69141 9.76842 2.69141 9.76841 2.69141 9.7684C2.69141 9.76838 2.69141 9.76837 2.69141 9.76836C2.69141 9.76835 2.69141 9.76834 2.69141 9.76832C2.69141 9.76831 2.69141 9.7683 2.69141 9.76828C2.69141 9.76827 2.69141 9.76826 2.69141 9.76824C2.69141 9.76823 2.69141 9.76821 2.69141 9.7682C2.69141 9.76819 2.69141 9.76817 2.69141 9.76816C2.69141 9.76814 2.69141 9.76813 2.69141 9.76811C2.69141 9.7681 2.69141 9.76808 2.69141 9.76806C2.69141 9.76805 2.69141 9.76803 2.69141 9.76802C2.69141 9.768 2.69141 9.76798 2.69141 9.76797C2.69141 9.76795 2.69141 9.76793 2.69141 9.76792C2.69141 9.7679 2.69141 9.76788 2.69141 9.76786C2.69141 9.76785 2.69141 9.76783 2.69141 9.76781C2.69141 9.76779 2.69141 9.76777 2.69141 9.76775C2.69141 9.76774 2.69141 9.76772 2.69141 9.7677C2.69141 9.76768 2.69141 9.76766 2.69141 9.76764C2.69141 9.76762 2.69141 9.7676 2.69141 9.76758C2.69141 9.76756 2.69141 9.76754 2.69141 9.76752C2.69141 9.7675 2.69141 9.76748 2.69141 9.76746C2.69141 9.76744 2.69141 9.76741 2.69141 9.76739C2.69141 9.76737 2.69141 9.76735 2.69141 9.76733C2.69141 9.76731 2.69141 9.76728 2.69141 9.76726C2.69141 9.76724 2.69141 9.76722 2.69141 9.76719C2.69141 9.76717 2.69141 9.76715 2.69141 9.76713C2.69141 9.7671 2.69141 9.76708 2.69141 9.76706C2.69141 9.76703 2.69141 9.76701 2.69141 9.76698C2.69141 9.76696 2.69141 9.76694 2.69141 9.76691C2.69141 9.76689 2.69141 9.76686 2.69141 9.76684C2.69141 9.76681 2.69141 9.76679 2.69141 9.76676C2.69141 9.76674 2.69141 9.76671 2.69141 9.76669C2.69141 9.76666 2.69141 9.76664 2.69141 9.76661C2.69141 9.76658 2.69141 9.76656 2.69141 9.76653C2.69141 9.7665 2.69141 9.76648 2.69141 9.76645C2.69141 9.76642 2.69141 9.7664 2.69141 9.76637C2.69141 9.76634 2.69141 9.76632 2.69141 9.76629C2.69141 9.76626 2.69141 9.76623 2.69141 9.76621C2.69141 9.76618 2.69141 9.76615 2.69141 9.76612C2.69141 9.76609 2.69141 9.76606 2.69141 9.76604C2.69141 9.76601 2.69141 9.76598 2.69141 9.76595C2.69141 9.76592 2.69141 9.76589 2.69141 9.76586C2.69141 9.76583 2.69141 9.7658 2.69141 9.76577C2.69141 9.76574 2.69141 9.76571 2.69141 9.76568C2.69141 9.76565 2.69141 9.76562 2.69141 9.76559C2.69141 9.76556 2.69141 9.76553 2.69141 9.7655C2.69141 9.76547 2.69141 9.76544 2.69141 9.76541C2.69141 9.76538 2.69141 9.76534 2.69141 9.76531C2.69141 9.76528 2.69141 9.76525 2.69141 9.76522C2.69141 9.76519 2.69141 9.76515 2.69141 9.76512C2.69141 9.76509 2.69141 9.76506 2.69141 9.76503C2.69141 9.76499 2.69141 9.76496 2.69141 9.76493C2.69141 9.7649 2.69141 9.76486 2.69141 9.76483C2.69141 9.7648 2.69141 9.76476 2.69141 9.76473C2.69141 9.7647 2.69141 9.76466 2.69141 9.76463C2.69141 9.7646 2.69141 9.76456 2.69141 9.76453C2.69141 9.76449 2.69141 9.76446 2.69141 9.76442C2.69141 9.76439 2.69141 9.76436 2.69141 9.76432C2.69141 9.76429 2.69141 9.76425 2.69141 9.76422C2.69141 9.76418 2.69141 9.76415 2.69141 9.76411C2.69141 9.76408 2.69141 9.76404 2.69141 9.76401C2.69141 9.76397 2.69141 9.76394 2.69141 9.7639C2.69141 9.76386 2.69141 9.76383 2.69141 9.76379C2.69141 9.76376 2.69141 9.76372 2.69141 9.76368C2.69141 9.76365 2.69141 9.76361 2.69141 9.76357C2.69141 9.76354 2.69141 9.7635 2.69141 9.76346C2.69141 9.76343 2.69141 9.76339 2.69141 9.76335C2.69141 9.76332 2.69141 9.76328 2.69141 9.76324C2.69141 9.7632 2.69141 9.76317 2.69141 9.76313C2.69141 9.76309 2.69141 9.76305 2.69141 9.76302C2.69141 9.76298 2.69141 9.76294 2.69141 9.7629C2.69141 9.76286 2.69141 9.76283 2.69141 9.76279C2.69141 9.76275 2.69141 9.76271 2.69141 9.76267C2.69141 9.76263 2.69141 9.7626 2.69141 9.76256C2.69141 9.76252 2.69141 9.76248 2.69141 9.76244C2.69141 9.7624 2.69141 9.76236 2.69141 9.76232C2.69141 9.76228 2.69141 9.76225 2.69141 9.76221C2.69141 9.76217 2.69141 9.76213 2.69141 9.76209C2.69141 9.76205 2.69141 9.76201 2.69141 9.76197C2.69141 9.76193 2.69141 9.76189 2.69141 9.76185C2.69141 9.76181 2.69141 9.76177 2.69141 9.76173C2.69141 9.76169 2.69141 9.76165 2.69141 9.76161C2.69141 9.76157 2.69141 9.76153 2.69141 9.76149C2.69141 9.76144 2.69141 9.7614 2.69141 9.76136C2.69141 9.76132 2.69141 9.76128 2.69141 9.76124C2.69141 9.7612 2.69141 9.76116 2.69141 9.76112C2.69141 9.76108 2.69141 9.76103 2.69141 9.76099C2.69141 9.76095 2.69141 9.76091 2.69141 9.76087C2.69141 9.76083 2.69141 9.76079 2.69141 9.76074C2.69141 9.7607 2.69141 9.76066 2.69141 9.76062C2.69141 9.76058 2.69141 9.76054 2.69141 9.76049C2.69141 9.76045 2.69141 9.76041 2.69141 9.76037C2.69141 9.76033 2.69141 9.76028 2.69141 9.76024C2.69141 9.7602 2.69141 9.76016 2.69141 9.76011C2.69141 9.76007 2.69141 9.76003 2.69141 9.75999C2.69141 9.75994 2.69141 9.7599 2.69141 9.75986C2.69141 9.75982 2.69141 9.75977 2.69141 9.75973C2.69141 9.75969 2.69141 9.75964 2.69141 9.7596C2.69141 9.75956 2.69141 9.75951 2.69141 9.75947C2.69141 9.75943 2.69141 9.75939 2.69141 9.75934C2.69141 9.7593 2.69141 9.75926 2.69141 9.75921C2.69141 9.75917 2.69141 9.75913 2.69141 9.75908C2.69141 9.75904 2.69141 9.75899 2.69141 9.75895C2.69141 9.75891 2.69141 9.75886 2.69141 9.75882C2.69141 9.75878 2.69141 9.75873 2.69141 9.75869C2.69141 9.75865 2.69141 9.7586 2.69141 9.75856C2.69141 9.75851 2.69141 9.75847 2.69141 9.75843C2.69141 9.75838 2.69141 9.75834 2.69141 9.75829C2.69141 9.75825 2.69141 9.75821 2.69141 9.75816C2.69141 9.75812 2.69141 9.75807 2.69141 9.75803C2.69141 9.75798 2.69141 9.75794 2.69141 9.7579C2.69141 9.75785 2.69141 9.75781 2.69141 9.75776C2.69141 9.75772 2.69141 9.75767 2.69141 9.75763C2.69141 9.75759 2.69141 9.75754 2.69141 9.7575C2.69141 9.75745 2.69141 9.75741 2.69141 9.75736C2.69141 9.75732 2.69141 9.75727 2.69141 9.75723C2.69141 9.75718 2.69141 9.75714 2.69141 9.7571C2.69141 9.75705 2.69141 9.75701 2.69141 9.75696C2.69141 9.75692 2.69141 9.75687 2.69141 9.75683C2.69141 9.75678 2.69141 9.75674 2.69141 9.75669C2.69141 9.75665 2.69141 9.7566 2.69141 9.75656C2.69141 9.75651 2.69141 9.75647 2.69141 9.75642C2.69141 9.75638 2.69141 9.75633 2.69141 9.75629C2.69141 9.75624 2.69141 9.7562 2.69141 9.75615C2.69141 9.75611 2.69141 9.75606 2.69141 9.75602C2.69141 9.75597 2.69141 9.75593 2.69141 9.75588C2.69141 9.75584 2.69141 9.75579 2.69141 9.75575C2.69141 9.7557 2.69141 9.75566 2.69141 9.75561C2.69141 9.75557 2.69141 9.75553 2.69141 9.75548C2.69141 9.75544 2.69141 9.75539 2.69141 9.75535C2.69141 9.7553 2.69141 9.75526 2.69141 9.75521C2.69141 9.75517 2.69141 9.75512 2.69141 9.75508C2.69141 9.75503 2.69141 9.75499 2.69141 9.75494C2.69141 9.7549 2.69141 9.75485 2.69141 9.75481C2.69141 9.75476 2.69141 9.75472 2.69141 9.75467C2.69141 9.75463 2.69141 9.75458 2.69141 9.75454C2.69141 9.75449 2.69141 9.75445 2.69141 9.7544C2.69141 9.75436 2.69141 9.75431 2.69141 9.75427C2.69141 9.75422 2.69141 9.75418 2.69141 9.75413C2.69141 9.75409 2.69141 9.75404 2.69141 9.754C2.69141 9.75395 2.69141 9.75391 2.69141 9.75386C2.69141 9.75382 2.69141 9.75378 2.69141 9.75373C2.69141 9.75369 2.69141 9.75364 2.69141 9.7536C2.69141 9.75355 2.69141 9.75351 2.69141 9.75346C2.69141 9.75342 2.69141 9.75337 2.69141 9.75333C2.69141 9.75329 2.69141 9.75324 2.69141 9.7532C2.69141 9.75315 2.69141 9.75311 2.69141 9.75306C2.69141 9.75302 2.69141 9.75298 2.69141 9.75293C2.69141 9.75289 2.69141 9.75284 2.69141 9.7528C2.69141 9.75275 2.69141 9.75271 2.69141 9.75267C2.69141 9.75262 2.69141 9.75258 2.69141 9.75253C2.69141 9.75249 2.69141 9.75245 2.69141 9.7524C2.69141 9.75236 2.69141 9.75231 2.69141 9.75227C2.69141 9.75223 2.69141 9.75218 2.69141 9.75214C2.69141 9.7521 2.69141 9.75205 2.69141 9.75201C2.69141 9.75197 2.69141 9.75192 2.69141 9.75188C2.69141 9.75183 2.69141 9.75179 2.69141 9.75175C2.69141 9.7517 2.69141 9.75166 2.69141 9.75162C2.69141 9.75157 2.69141 9.75153 2.69141 9.75149C2.69141 9.75145 2.69141 9.7514 2.69141 9.75136C2.69141 9.75132 2.69141 9.75127 2.69141 9.75123C2.69141 9.75119 2.69141 9.75114 2.69141 9.7511C2.69141 9.75106 2.69141 9.75102 2.69141 9.75097C2.69141 9.75093 2.69141 9.75089 2.69141 9.75085C2.69141 9.7508 2.69141 9.75076 2.69141 9.75072C2.69141 9.75068 2.69141 9.75064 2.69141 9.75059C2.69141 9.75055 2.69141 9.75051 2.69141 9.75047C2.69141 9.75042 2.69141 9.75038 2.69141 9.75034C2.69141 9.7503 2.69141 9.75026 2.69141 9.75022C2.69141 9.75017 2.69141 9.75013 2.69141 9.75009C2.69141 9.75005 2.69141 9.75001 2.69141 9.74997C2.69141 9.74993 2.69141 9.74988 2.69141 9.74984C2.69141 9.7498 2.69141 9.74976 2.69141 9.74972C2.69141 9.74968 2.69141 9.74964 2.69141 9.7496C2.69141 9.74956 2.69141 9.74952 2.69141 9.74947C2.69141 9.74943 2.69141 9.74939 2.69141 9.74935C2.69141 9.74931 2.69141 9.74927 2.69141 9.74923C2.69141 9.74919 2.69141 9.74915 2.69141 9.74911C2.69141 9.74907 2.69141 9.74903 2.69141 9.74899C2.69141 9.74895 2.69141 9.74891 2.69141 9.74887C2.69141 9.74883 2.69141 9.74879 2.69141 9.74875C2.69141 9.74872 2.69141 9.74868 2.69141 9.74864C2.69141 9.7486 2.69141 9.74856 2.69141 9.74852C2.69141 9.74848 2.69141 9.74844 2.69141 9.7484C2.69141 9.74836 2.69141 9.74833 2.69141 9.74829C2.69141 9.74825 2.69141 9.74821 2.69141 9.74817C2.69141 9.74813 2.69141 9.7481 2.69141 9.74806C2.69141 9.74802 2.69141 9.74798 2.69141 9.74794C2.69141 9.74791 2.69141 9.74787 2.69141 9.74783C2.69141 9.74779 2.69141 9.74776 2.69141 9.74772C2.69141 9.74768 2.69141 9.74764 2.69141 9.74761C2.69141 9.74757 2.69141 9.74753 2.69141 9.7475C2.69141 9.74746 2.69141 9.74742 2.69141 9.74739C2.69141 9.74735 2.69141 9.74731 2.69141 9.74728C2.69141 9.74724 2.69141 9.7472 2.69141 9.74717C2.69141 9.74713 2.69141 9.7471 2.69141 9.74706C2.69141 9.74702 2.69141 9.74699 2.69141 9.74695C2.69141 9.74692 2.69141 9.74688 2.69141 9.74685C2.69141 9.74681 2.69141 9.74678 2.69141 9.74674C2.69141 9.74671 2.69141 9.74667 2.69141 9.74664C2.69141 9.7466 2.69141 9.74657 2.69141 9.74654C2.69141 9.7465 2.69141 9.74647 2.69141 9.74643C2.69141 9.7464 2.69141 9.74637 2.69141 9.74633C2.69141 9.7463 2.69141 9.74626 2.69141 9.74623C2.69141 9.7462 2.69141 9.74616 2.69141 9.74613C2.69141 9.7461 2.69141 9.74607 2.69141 9.74603C2.69141 9.746 2.69141 9.74597 2.69141 9.74593C2.69141 9.7459 2.69141 9.74587 2.69141 9.74584C2.69141 9.74581 2.69141 9.74577 2.69141 9.74574C2.69141 9.74571 2.69141 9.74568 2.69141 9.74565C2.69141 9.74562 2.69141 9.74558 2.69141 9.74555C2.69141 9.74552 2.69141 9.74549 2.69141 9.74546C2.69141 9.74543 2.69141 9.7454 2.69141 9.74537C2.69141 9.74534 2.69141 9.74531 2.69141 9.74528C2.69141 9.74525 2.69141 9.74522 2.69141 9.74519C2.69141 9.74516 2.69141 9.74513 2.69141 9.7451C2.69141 9.74507 2.69141 9.74504 2.69141 9.74501C2.69141 9.74498 2.69141 9.74495 2.69141 9.74492C2.69141 9.7449 2.69141 9.74487 2.69141 9.74484C2.69141 9.74481 2.69141 9.74478 2.69141 9.74476C2.69141 9.74473 2.69141 9.7447 2.69141 9.74467C2.69141 9.74464 2.69141 9.74462 2.69141 9.74459C2.69141 9.74456 2.69141 9.74454 2.69141 9.74451C2.69141 9.74448 2.69141 9.74446 2.69141 9.74443C2.69141 9.7444 2.69141 9.74438 2.69141 9.74435C2.69141 9.74432 2.69141 9.7443 2.69141 9.74427C2.69141 9.74425 2.69141 9.74422 2.69141 9.7442C2.69141 9.74417 2.69141 9.74415 2.69141 9.74412C2.69141 9.7441 2.69141 9.74407 2.69141 9.74405C2.69141 9.74402 2.69141 9.744 2.69141 9.74398C2.69141 9.74395 2.69141 9.74393 2.69141 9.7439C2.69141 9.74388 2.69141 9.74386 2.69141 9.74383C2.69141 9.74381 2.69141 9.74379 2.69141 9.74377C2.69141 9.74374 2.69141 9.74372 2.69141 9.7437C2.69141 9.74368 2.69141 9.74365 2.69141 9.74363C2.69141 9.74361 2.69141 9.74359 2.69141 9.74357C2.69141 9.74355 2.69141 9.74352 2.69141 9.7435C2.69141 9.74348 2.69141 9.74346 2.69141 9.74344C2.69141 9.74342 2.69141 9.7434 2.69141 9.74338C2.69141 9.74336 2.69141 9.74334 2.69141 9.74332C2.69141 9.7433 2.69141 9.74328 2.69141 9.74326C2.69141 9.74324 2.69141 9.74322 2.69141 9.74321C2.69141 9.74319 2.69141 9.74317 2.69141 9.74315C2.69141 9.74313 2.69141 9.74311 2.69141 9.7431C2.69141 9.74308 2.69141 9.74306 2.69141 9.74304C2.69141 9.74303 2.69141 9.74301 2.69141 9.74299C2.69141 9.74298 2.69141 9.74296 2.69141 9.74294C2.69141 9.74293 2.69141 9.74291 2.69141 9.7429C2.69141 9.74288 2.69141 9.74286 2.69141 9.74285C2.69141 9.74283 2.69141 9.74282 2.69141 9.7428C2.69141 9.74279 2.69141 9.74277 2.69141 9.74276C2.69141 9.74275 2.69141 9.74273 2.69141 9.74272C2.69141 9.7427 2.69141 9.74269 2.69141 9.74268C2.69141 9.74266 2.69141 9.74265 2.69141 9.74264C2.69141 9.74262 2.69141 9.74261 2.69141 9.7426C2.69141 9.74259 2.69141 9.74258 2.69141 9.74256C2.69141 9.74255 2.69141 9.74254 2.69141 9.74253C2.69141 9.74252 2.69141 9.74251 2.69141 9.7425C2.69141 9.74249 2.69141 9.74248 2.69141 9.74247C2.69141 9.74245 2.69141 9.74245 2.69141 9.74244C2.69141 9.74243 2.69141 9.74242 2.69141 9.74241C2.69141 9.7424 2.69141 9.74239 2.69141 9.74238C2.69141 9.74237 2.69141 9.74236 2.69141 9.74236C2.69141 9.74235 2.69141 9.74234 2.69141 9.74233C2.69141 9.74233 2.69141 9.74232 2.69141 9.74231C2.69141 9.7423 2.69141 9.7423 2.69141 9.74229C2.69141 9.74229 2.69141 9.74228 2.69141 9.74227C2.69141 9.74227 2.69141 9.74226 2.69141 9.74226C2.69141 9.74225 2.69141 9.74225 2.69141 9.74224C2.69141 9.74224 2.69141 9.74223 2.69141 9.74223C2.69141 9.74223 2.69141 9.74222 2.69141 9.74222C2.69141 9.74221 2.69141 9.74221 2.69141 9.74221C2.69141 9.74221 2.69141 9.7422 2.69141 9.7422C2.69141 9.7422 2.69141 9.7422 2.69141 9.74219C2.69141 9.74219 2.69141 9.74219 2.69141 9.74219C2.69141 9.74219 2.69141 9.74219 2.69141 9.74219C2.69141 9.74219 1.69141 9.74219 0.691406 9.74219C0.691406 9.74219 0.691406 9.74219 0.691406 9.74219C0.691406 9.74219 0.691406 9.74219 0.691406 9.74219C0.691406 9.74219 0.691406 9.74219 0.691406 9.7422C0.691406 9.7422 0.691406 9.7422 0.691406 9.7422C0.691406 9.74221 0.691406 9.74221 0.691406 9.74221C0.691406 9.74222 0.691406 9.74222 0.691406 9.74222C0.691406 9.74223 0.691406 9.74223 0.691406 9.74224C0.691406 9.74224 0.691406 9.74224 0.691406 9.74225C0.691406 9.74226 0.691406 9.74226 0.691406 9.74227C0.691406 9.74227 0.691406 9.74228 0.691406 9.74228C0.691406 9.74229 0.691406 9.7423 0.691406 9.7423C0.691406 9.74231 0.691406 9.74232 0.691406 9.74233C0.691406 9.74233 0.691406 9.74234 0.691406 9.74235C0.691406 9.74236 0.691406 9.74237 0.691406 9.74238C0.691406 9.74239 0.691406 9.7424 0.691406 9.74241C0.691406 9.74242 0.691406 9.74243 0.691406 9.74244C0.691406 9.74245 0.691406 9.74246 0.691406 9.74247C0.691406 9.74248 0.691406 9.74249 0.691406 9.7425C0.691406 9.74251 0.691406 9.74253 0.691406 9.74254C0.691406 9.74255 0.691406 9.74256 0.691406 9.74258C0.691406 9.74259 0.691406 9.7426 0.691406 9.74262C0.691406 9.74263 0.691406 9.74265 0.691406 9.74266C0.691406 9.74267 0.691406 9.74269 0.691406 9.7427C0.691406 9.74272 0.691406 9.74274 0.691406 9.74275C0.691406 9.74277 0.691406 9.74278 0.691406 9.7428C0.691406 9.74282 0.691406 9.74283 0.691406 9.74285C0.691406 9.74287 0.691406 9.74289 0.691406 9.7429C0.691406 9.74292 0.691406 9.74294 0.691406 9.74296C0.691406 9.74298 0.691406 9.743 0.691406 9.74302C0.691406 9.74304 0.691406 9.74306 0.691406 9.74308C0.691406 9.7431 0.691406 9.74312 0.691406 9.74314C0.691406 9.74316 0.691406 9.74318 0.691406 9.7432C0.691406 9.74322 0.691406 9.74325 0.691406 9.74327C0.691406 9.74329 0.691406 9.74331 0.691406 9.74334C0.691406 9.74336 0.691406 9.74338 0.691406 9.74341C0.691406 9.74343 0.691406 9.74346 0.691406 9.74348C0.691406 9.74351 0.691406 9.74353 0.691406 9.74356C0.691406 9.74358 0.691406 9.74361 0.691406 9.74363C0.691406 9.74366 0.691406 9.74369 0.691406 9.74371C0.691406 9.74374 0.691406 9.74377 0.691406 9.7438C0.691406 9.74382 0.691406 9.74385 0.691406 9.74388C0.691406 9.74391 0.691406 9.74394 0.691406 9.74397C0.691406 9.744 0.691406 9.74403 0.691406 9.74406C0.691406 9.74409 0.691406 9.74412 0.691406 9.74415C0.691406 9.74418 0.691406 9.74421 0.691406 9.74424C0.691406 9.74427 0.691406 9.74431 0.691406 9.74434C0.691406 9.74437 0.691406 9.7444 0.691406 9.74444C0.691406 9.74447 0.691406 9.7445 0.691406 9.74454C0.691406 9.74457 0.691406 9.74461 0.691406 9.74464C0.691406 9.74468 0.691406 9.74471 0.691406 9.74475C0.691406 9.74478 0.691406 9.74482 0.691406 9.74486C0.691406 9.74489 0.691406 9.74493 0.691406 9.74497C0.691406 9.745 0.691406 9.74504 0.691406 9.74508C0.691406 9.74512 0.691406 9.74516 0.691406 9.7452C0.691406 9.74524 0.691406 9.74527 0.691406 9.74531C0.691406 9.74535 0.691406 9.74539 0.691406 9.74544C0.691406 9.74548 0.691406 9.74552 0.691406 9.74556C0.691406 9.7456 0.691406 9.74564 0.691406 9.74568C0.691406 9.74573 0.691406 9.74577 0.691406 9.74581C0.691406 9.74586 0.691406 9.7459 0.691406 9.74594C0.691406 9.74599 0.691406 9.74603 0.691406 9.74608C0.691406 9.74612 0.691406 9.74617 0.691406 9.74621C0.691406 9.74626 0.691406 9.74631 0.691406 9.74635C0.691406 9.7464 0.691406 9.74645 0.691406 9.74649C0.691406 9.74654 0.691406 9.74659 0.691406 9.74664C0.691406 9.74669 0.691406 9.74674 0.691406 9.74678C0.691406 9.74683 0.691406 9.74688 0.691406 9.74693C0.691406 9.74698 0.691406 9.74703 0.691406 9.74709C0.691406 9.74714 0.691406 9.74719 0.691406 9.74724C0.691406 9.74729 0.691406 9.74734 0.691406 9.7474C0.691406 9.74745 0.691406 9.7475 0.691406 9.74756C0.691406 9.74761 0.691406 9.74767 0.691406 9.74772C0.691406 9.74777 0.691406 9.74783 0.691406 9.74789C0.691406 9.74794 0.691406 9.748 0.691406 9.74805C0.691406 9.74811 0.691406 9.74817 0.691406 9.74822C0.691406 9.74828 0.691406 9.74834 0.691406 9.7484C0.691406 9.74846 0.691406 9.74851 0.691406 9.74857C0.691406 9.74863 0.691406 9.74869 0.691406 9.74875C0.691406 9.74881 0.691406 9.74887 0.691406 9.74894C0.691406 9.749 0.691406 9.74906 0.691406 9.74912C0.691406 9.74918 0.691406 9.74924 0.691406 9.74931C0.691406 9.74937 0.691406 9.74943 0.691406 9.7495C0.691406 9.74956 0.691406 9.74963 0.691406 9.74969C0.691406 9.74976 0.691406 9.74982 0.691406 9.74989C0.691406 9.74995 0.691406 9.75002 0.691406 9.75009C0.691406 9.75015 0.691406 9.75022 0.691406 9.75029C0.691406 9.75036 0.691406 9.75042 0.691406 9.75049C0.691406 9.75056 0.691406 9.75063 0.691406 9.7507C0.691406 9.75077 0.691406 9.75084 0.691406 9.75091C0.691406 9.75098 0.691406 9.75105 0.691406 9.75112C0.691406 9.7512 0.691406 9.75127 0.691406 9.75134C0.691406 9.75141 0.691406 9.75149 0.691406 9.75156C0.691406 9.75163 0.691406 9.75171 0.691406 9.75178C0.691406 9.75186 0.691406 9.75193 0.691406 9.75201C0.691406 9.75208 0.691406 9.75216 0.691406 9.75224C0.691406 9.75231 0.691406 9.75239 0.691406 9.75247C0.691406 9.75254 0.691406 9.75262 0.691406 9.7527C0.691406 9.75278 0.691406 9.75286 0.691406 9.75294C0.691406 9.75302 0.691406 9.7531 0.691406 9.75318C0.691406 9.75326 0.691406 9.75334 0.691406 9.75342C0.691406 9.7535 0.691406 9.75359 0.691406 9.75367C0.691406 9.75375 0.691406 9.75383 0.691406 9.75392C0.691406 9.754 0.691406 9.75409 0.691406 9.75417C0.691406 9.75426 0.691406 9.75434 0.691406 9.75443C0.691406 9.75451 0.691406 9.7546 0.691406 9.75468C0.691406 9.75477 0.691406 9.75486 0.691406 9.75495C0.691406 9.75503 0.691406 9.75512 0.691406 9.75521C0.691406 9.7553 0.691406 9.75539 0.691406 9.75548H2.69141Z" fill="black" mask="url(#path-2-inside-1_7872_4516)"/>
<path d="M19.2521 17.5874L19.254 17.5898C19.4548 17.8347 19.5499 18.2146 19.4736 18.4935C19.4392 18.6192 19.3718 18.7224 19.2588 18.8001C19.1416 18.8807 18.9402 18.9574 18.6028 18.96H10.0054H1.40621C1.06426 18.96 0.860251 18.8842 0.742002 18.8044C0.628373 18.7277 0.561131 18.6257 0.526711 18.5017C0.450068 18.2257 0.544283 17.8465 0.745304 17.6013L0.745586 17.6009C1.16425 17.0892 1.6008 16.5215 1.94497 15.9073C2.13279 15.5778 2.20553 15.225 2.20553 14.8784L2.20553 14.8772L2.19401 9.75566C2.19401 9.75537 2.19401 9.75508 2.19401 9.75479C2.19401 9.7547 2.19401 9.75462 2.19401 9.75453C2.1939 9.71136 2.18778 9.57845 2.18268 9.46776L2.18195 9.45207L2.17409 9.27895C2.17249 9.24241 2.17165 9.22034 2.17126 9.21C2.17104 9.20439 2.17096 9.20223 2.17096 9.2031C2.17096 9.04942 2.18129 8.88099 2.19288 8.70715C2.48819 4.39044 5.90108 0.956507 9.99004 0.988704V0.988719H9.99398H10.0054V0.988747L10.0107 0.988692C14.1121 0.945745 17.5262 4.29743 17.8285 8.59877V14.9244C17.8285 15.2582 17.9006 15.6238 18.09 15.9553L18.09 15.9553L18.0922 15.9591C18.434 16.545 18.8559 17.098 19.2521 17.5874ZM13.3603 9.96286L14.4342 8.88897C15.3662 7.95696 15.3662 6.45465 14.4342 5.52264C13.5022 4.59063 11.9999 4.59063 11.0679 5.52264L11.4214 5.8762L11.0679 5.52264L9.99397 6.59655L8.92002 5.52264C8.92002 5.52264 8.92002 5.52264 8.92002 5.52264C7.988 4.59063 6.48572 4.59063 5.55371 5.52264C4.6217 6.45465 4.6217 7.95696 5.55371 8.88897L5.55372 8.88898L6.62766 9.96286L5.55372 11.0368L5.55371 11.0368C4.6217 11.9688 4.6217 13.4711 5.55371 14.4031C6.48572 15.3351 7.988 15.3351 8.92002 14.4031C8.92002 14.4031 8.92002 14.4031 8.92002 14.4031L9.99397 13.3292L11.0679 14.4031L11.4214 14.0495L11.0679 14.4031C11.9999 15.3351 13.5022 15.3351 14.4342 14.4031C15.3662 13.4711 15.3662 11.9688 14.4342 11.0368L13.3603 9.96286Z" fill="black" stroke="black"/>
</svg>
