<svg width="17" height="18" viewBox="0 0 17 18" fill="none" xmlns="http://www.w3.org/2000/svg">
<path d="M11.2608 11.2227L9.06721 8.35738V4.75236C9.06721 4.31023 8.71011 3.95312 8.26798 3.95312C7.82585 3.95312 7.46875 4.31023 7.46875 4.75236V8.62095C7.46875 8.66347 7.48575 8.70598 7.49426 8.73999C7.50276 8.791 7.51126 8.83352 7.51976 8.87603C7.53677 8.91854 7.55378 8.96106 7.57929 9.00357C7.59629 9.03758 7.60479 9.08009 7.6303 9.1141L9.97695 12.1835C10.2405 12.5321 10.7422 12.6001 11.0908 12.3365C11.4649 12.0644 11.5244 11.5713 11.2608 11.2227Z" fill="#93A2F4"/>
<path d="M8.35303 17.3024C4.77351 17.3024 1.61061 15.1428 0.301234 11.8099L0.2332 11.6313L2.56286 10.5855L2.6394 10.7896C3.53216 13.1618 5.82781 14.7602 8.35303 14.7602C11.72 14.7602 14.4578 12.0224 14.4578 8.65547C14.4578 5.28851 11.72 2.55073 8.35303 2.55073C6.32095 2.55073 4.4504 3.54551 3.31107 5.22899L3.60015 5.39905C3.7702 5.50107 3.87223 5.68813 3.86373 5.88368C3.85522 6.08774 3.72771 6.25779 3.54066 6.33431L1.21097 7.32059C1.12595 7.3546 1.04094 7.37161 0.955912 7.37161C0.63282 7.37161 0.352231 7.12503 0.309719 6.80194L0.00364418 4.29373C-0.0133607 4.14068 0.0291463 3.99615 0.131175 3.88561C0.233204 3.77508 0.377738 3.70706 0.52228 3.70706C0.615806 3.70706 0.700829 3.73257 0.785853 3.77508L1.09195 3.95363C2.69891 1.47092 5.39418 0 8.34452 0C13.1144 0 17 3.88561 17 8.65547C17.0085 13.4168 13.1229 17.3024 8.35303 17.3024Z" fill="#93A2F4"/>
</svg>
