<svg width="20" height="24" viewBox="0 0 20 24" fill="none" xmlns="http://www.w3.org/2000/svg">
<path d="M10 1.32785L18.8249 5.81666V10.4583C18.8249 15.8872 16.0165 19.6475 10 22.2444C3.98356 19.6475 1.17509 15.8872 1.17509 10.4583V5.81666L10 1.32785ZM10 0L0 5.07639V10.4348C0 15.1939 1.97416 20.188 10 23.49C18.0259 20.188 20 15.1939 20 10.4348V5.07639L10 0Z" fill="black"/>
<path d="M12.9774 9.36687V8.87332C12.9774 7.23995 11.6495 5.91211 10.0162 5.91211C8.38279 5.91211 7.05494 7.23995 7.05494 8.87332V9.35511M7.05494 9.36687C7.03143 9.37862 7.00794 9.39037 6.98443 9.40212C6.5379 9.67239 6.24414 10.1542 6.24414 10.7065V15.2423C6.24414 16.0766 6.92568 16.7582 7.76 16.7582H12.2841C13.1184 16.7582 13.7999 16.0766 13.7999 15.2423V10.7065C13.7999 10.1542 13.4944 9.67239 13.0596 9.40212C13.0361 9.39037 13.0126 9.37862 12.9891 9.36687M10.0162 14.0672C9.40512 14.0672 8.92334 13.5737 8.92334 12.9744C8.92334 12.3751 9.41687 11.8815 10.0162 11.8815C10.6155 11.8815 11.109 12.3751 11.109 12.9744C11.109 13.5737 10.6155 14.0672 10.0162 14.0672ZM8.07727 9.19061V8.87332C8.07727 7.81574 8.94683 6.93443 10.0162 6.93443C11.0855 6.93443 11.9551 7.80399 11.9551 8.87332V9.19061H8.07727Z" fill="black"/>
</svg>
