<svg width="20" height="19" viewBox="0 0 20 19" fill="none" xmlns="http://www.w3.org/2000/svg">
<path d="M19.1553 8.29878L12.0811 1.17224C12.0182 1.10888 11.9102 1.15342 11.9102 1.24269V5.43333C11.9102 5.48856 11.865 5.53332 11.8098 5.5335C8.47942 5.5447 5.7059 6.11688 4.03516 7.8C1.85838 9.9929 1.26105 12.7162 1.22448 17.5092C1.22365 17.6181 1.38083 17.6552 1.4287 17.5574C1.95823 16.4755 3.4841 13.6864 5.72266 12.3333C8.27528 10.7904 11.2913 11.1146 11.8268 11.1877C11.8752 11.1943 11.9102 11.2358 11.9102 11.2846V16.044C11.9102 16.135 12.022 16.1787 12.0837 16.1117L19.1578 8.437C19.1941 8.39766 19.193 8.33675 19.1553 8.29878Z" stroke="black" stroke-width="1.2"/>
</svg>
