<svg width="30" height="30" viewBox="0 0 30 30" fill="none" xmlns="http://www.w3.org/2000/svg">
<path d="M15 1.45714C22.4657 1.45714 28.5428 7.53429 28.5428 15C28.5428 22.4657 22.4657 28.5429 15 28.5429C7.53429 28.5429 1.45715 22.4657 1.45715 15C1.45715 7.53429 7.53429 1.45714 15 1.45714ZM15 0C6.72 0 0 6.72 0 15C0 23.28 6.72 30 15 30C23.28 30 30 23.28 30 15C30 6.72 23.28 0 15 0Z" fill="black"/>
<path d="M22.8606 9.41813V13.3181C21.4892 13.2153 20.2549 12.7096 19.2349 11.8953V18.6153C19.2349 18.6838 19.2349 18.761 19.2263 18.8296C19.1149 22.061 16.4492 24.6581 13.1835 24.6581C9.84921 24.6581 7.14062 21.9496 7.14062 18.6153C7.14062 15.2724 9.84921 12.5638 13.1835 12.5638C13.4921 12.5638 13.7921 12.5896 14.0835 12.6324V16.0267C13.8006 15.9238 13.5006 15.8724 13.1835 15.8724C11.6835 15.8724 10.4578 17.0981 10.4578 18.6067C10.4578 20.1153 11.6835 21.3324 13.1835 21.3324C14.7006 21.3324 15.9178 20.1067 15.9178 18.6067V5.57812H18.3606C18.4978 6.32384 18.8063 6.99241 19.2263 7.5667C20.0749 8.68955 21.3864 9.41813 22.8606 9.41813Z" stroke="black" stroke-width="1.3" stroke-miterlimit="10"/>
</svg>
