<svg width="30" height="30" viewBox="0 0 30 30" fill="none" xmlns="http://www.w3.org/2000/svg">
<path d="M15 1.45714C22.4657 1.45714 28.5429 7.53429 28.5429 15C28.5429 22.4657 22.4657 28.5429 15 28.5429C7.53429 28.5429 1.45714 22.4657 1.45714 15C1.45714 7.53429 7.53429 1.45714 15 1.45714ZM15 0C6.72 0 0 6.72 0 15C0 23.28 6.72 30 15 30C23.28 30 30 23.28 30 15C30 6.72 23.28 0 15 0Z" fill="black"/>
<path d="M16.3835 13.8018L21.6549 7.89605H20.4035L15.8178 13.0389L12.0892 7.87891H7.64062L13.3578 15.7903L7.71777 22.0989H8.9692L13.9663 16.6389L17.9092 22.0989L22.3663 22.0903L16.3835 13.8018ZM9.50063 8.83033H11.6178L20.5063 21.1389H18.3892L9.50063 8.83033Z" fill="black" stroke="black" stroke-width="0.5" stroke-miterlimit="10"/>
</svg>
