<svg width="25" height="17" viewBox="0 0 25 17" fill="none" xmlns="http://www.w3.org/2000/svg">
<path d="M7.52344 7.71261C7.89614 5.57258 9.77167 3.9375 12.0199 3.9375C12.6451 3.9375 13.2462 4.06975 13.7993 4.29818M15.771 5.90921C16.2759 6.64259 16.5765 7.54429 16.5765 8.5061C16.5765 11.0309 14.5326 13.0747 12.0079 13.0747C9.87987 13.0747 8.0885 11.62 7.58355 9.63623" stroke="black" stroke-miterlimit="10"/>
<path d="M12.0292 11.8396C13.8618 11.8396 15.3474 10.354 15.3474 8.52137C15.3474 6.68876 13.8618 5.20312 12.0292 5.20312C10.1966 5.20312 8.71094 6.68876 8.71094 8.52137C8.71094 10.354 10.1966 11.8396 12.0292 11.8396Z" fill="black"/>
<path d="M12.0226 1.20226C13.9703 1.20226 15.7977 1.95969 17.1803 3.34229L22.3381 8.5L17.1803 13.6577C15.7977 15.0403 13.9703 15.7977 12.0226 15.7977C10.075 15.7977 8.24752 15.0403 6.86492 13.6577L1.70721 8.5L6.86492 3.34229C8.2355 1.95969 10.075 1.20226 12.0226 1.20226ZM12.0226 0C9.84653 0 7.67044 0.829561 6.01132 2.48868L0 8.5L6.01132 14.5113C7.67044 16.1704 9.84653 17 12.0226 17C14.1987 17 16.3748 16.1704 18.0339 14.5113L24.0453 8.5L18.0339 2.48868C16.3748 0.829561 14.1987 0 12.0226 0Z" fill="black"/>
</svg>
