<svg width="17" height="16" viewBox="0 0 17 16" fill="none" xmlns="http://www.w3.org/2000/svg">
<path d="M12.3987 6.07686C10.1296 3.80771 6.44631 3.80771 4.17717 6.07686L0.0664062 10.1876L4.17717 14.2984C6.44631 16.5675 10.1296 16.5675 12.3987 14.2984L16.5095 10.1876L12.3987 6.07686ZM8.27149 13.32C6.54497 13.32 5.14731 11.9224 5.14731 10.1958C5.14731 8.46932 6.54497 7.07166 8.27149 7.07166C9.99801 7.07166 11.3957 8.46932 11.3957 10.1958C11.3957 11.9224 9.99801 13.32 8.27149 13.32Z" fill="#8A8A8A"/>
<path d="M8.27305 12.4602C9.52626 12.4602 10.5422 11.4442 10.5422 10.191C10.5422 8.93781 9.52626 7.92188 8.27305 7.92188C7.01984 7.92188 6.00391 8.93781 6.00391 10.191C6.00391 11.4442 7.01984 12.4602 8.27305 12.4602Z" fill="#8A8A8A"/>
<path d="M8.27186 3.63391C7.98411 3.63391 7.75391 3.40371 7.75391 3.11596V0.517954C7.75391 0.2302 7.98411 0 8.27186 0C8.55962 0 8.78982 0.2302 8.78982 0.517954V3.11596C8.78982 3.40371 8.55962 3.63391 8.27186 3.63391Z" fill="#8A8A8A"/>
<path d="M10.9027 4.06332C10.6479 3.93178 10.5574 3.61937 10.689 3.37272L11.8975 1.07069C12.0291 0.815823 12.3415 0.725385 12.5881 0.856929C12.843 0.988474 12.9334 1.30089 12.8019 1.54754L11.5933 3.84956C11.47 4.10443 11.1576 4.19487 10.9027 4.06332Z" fill="#8A8A8A"/>
<path d="M5.68188 4.06332C5.93675 3.93178 6.02719 3.61937 5.89564 3.37272L4.68708 1.07069C4.55553 0.815823 4.24312 0.725385 3.99647 0.856929C3.7416 0.988474 3.65117 1.30089 3.78271 1.54754L4.99127 3.84956C5.12282 4.10443 5.43524 4.19487 5.68188 4.06332Z" fill="#8A8A8A"/>
</svg>
