<svg width="20" height="20" viewBox="0 0 20 20" fill="none" xmlns="http://www.w3.org/2000/svg">
<path d="M5.81908 14.0938C6.11908 15.5338 6.55906 16.7937 7.11906 17.7737C5.28906 17.0937 3.74906 15.7838 2.78906 14.0938H5.81908Z" fill="black"/>
<path d="M17.2006 14.0938C16.2506 15.7737 14.7206 17.0837 12.8906 17.7637C13.4406 16.7837 13.8906 15.5338 14.1906 14.0938H17.2006Z" fill="black"/>
<path d="M7.11687 2.22656C6.56687 3.20656 6.11688 4.45656 5.81688 5.89656H2.79688C3.75687 4.22656 5.28687 2.91656 7.11687 2.22656Z" fill="black"/>
<path d="M17.2028 5.91219H14.1828C13.8828 4.48219 13.4428 3.22219 12.8828 2.24219C14.7228 2.92219 16.2528 4.23219 17.2028 5.91219Z" fill="black"/>
<path d="M5.55093 7.61719C5.46093 8.37719 5.42093 9.17719 5.42093 9.99719C5.42093 10.8172 5.47093 11.6172 5.55093 12.3772H2.06093C1.83093 11.6272 1.71094 10.8272 1.71094 9.99719C1.71094 9.16719 1.83093 8.36719 2.06093 7.61719H5.55093Z" fill="black"/>
<path d="M18.2931 9.99719C18.2931 10.8172 18.1731 11.6172 17.9431 12.3772H14.4531C14.5431 11.6172 14.5831 10.8172 14.5831 9.99719C14.5831 9.17719 14.5331 8.37719 14.4531 7.61719H17.9431C18.1731 8.36719 18.2931 9.16719 18.2931 9.99719Z" fill="black"/>
<path d="M12.4281 14.0938C11.8181 16.7538 10.6981 18.2838 9.99814 18.2838C9.29814 18.2838 8.17813 16.7538 7.57812 14.0938H12.4281Z" fill="black"/>
<path d="M12.4281 5.90875H7.57812C8.18813 3.24875 9.29814 1.71875 9.99814 1.71875C10.6981 1.71875 11.8181 3.23875 12.4281 5.90875Z" fill="black"/>
<path d="M12.8706 9.99719C12.8706 10.8472 12.8206 11.6472 12.7306 12.3772H7.28062C7.19062 11.6472 7.14062 10.8472 7.14062 9.99719C7.14062 9.14719 7.19062 8.34719 7.28062 7.61719H12.7306C12.8206 8.35719 12.8706 9.14719 12.8706 9.99719Z" fill="black"/>
<path d="M10 1C14.96 1 19 5.04 19 10C19 14.96 14.96 19 10 19C5.04002 19 1 14.96 1 10C1 5.04 5.04002 1 10 1ZM10 0C4.48002 0 0 4.48 0 10C0 15.52 4.48002 20 10 20C15.52 20 20 15.52 20 10C20 4.48 15.53 0 10 0Z" fill="black"/>
</svg>
