<svg width="9" height="15" viewBox="0 0 9 15" fill="none" xmlns="http://www.w3.org/2000/svg">
<path d="M5.35629 9.61328C5.35629 10.3229 4.81759 10.8976 4.15248 10.8976C3.48738 10.8976 2.94868 10.3229 2.94868 9.61328H0.00236232C0.00236232 9.6221 0 9.62967 0 9.63723C0.012995 12.0836 1.88191 14.0573 4.17493 14.0434C6.46086 14.0308 8.3026 12.0483 8.3026 9.61328H5.35629Z" fill="white"/>
<path d="M4.1513 0.257812C1.85804 0.257812 0 2.13175 0 4.44193C0 6.75331 1.85804 8.62604 4.1513 8.62604C6.44456 8.62604 8.3026 6.75331 8.3026 4.44193C8.3026 2.13175 6.44456 0.257812 4.1513 0.257812ZM4.1513 5.65546C3.48652 5.65546 2.94728 5.11196 2.94728 4.44193C2.94728 3.77189 3.48652 3.22839 4.1513 3.22839C4.81608 3.22839 5.35532 3.77189 5.35532 4.44193C5.35532 5.11196 4.81608 5.65546 4.1513 5.65546Z" fill="white"/>
</svg>
