<svg width="12" height="14" viewBox="0 0 12 14" fill="none" xmlns="http://www.w3.org/2000/svg">
<path d="M4.87937 12.8125H7.00765C6.82013 13.2178 6.41236 13.4976 5.94533 13.4976C5.47199 13.4976 5.06434 13.2168 4.87937 12.8125Z" fill="white" stroke="white"/>
<path d="M10.8778 9.91271L10.8778 9.91271C10.6569 9.6377 10.4155 9.31951 10.2183 8.9787L10.2161 8.97485L10.2161 8.97484C10.0891 8.75085 10.043 8.50836 10.043 8.29256V4.7796C9.87974 2.49118 8.08126 0.735559 5.95223 0.758028L5.94695 0.758084V0.758056H5.94059H5.93663L5.93663 0.75804C3.81501 0.741203 2.01261 2.54311 1.85618 4.84695C1.84989 4.94206 1.84481 5.02734 1.8446 5.10339C1.84464 5.10463 1.8447 5.10643 1.84479 5.10887L1.8461 5.14079L1.85041 5.23575L1.85484 5.3334L1.85641 5.37151L1.85643 5.37209C1.85666 5.37812 1.8571 5.39012 1.85725 5.40197H1.8573V5.40198V5.40199V5.402V5.40201V5.40201V5.40202V5.40202V5.40203V5.40204V5.40206V5.40207V5.40209V5.4021V5.40212V5.40214V5.40215V5.40216V5.40217V5.40218V5.40219V5.4022V5.40222V5.40223V5.40224V5.40225V5.40226V5.40228V5.40228V5.40231V5.40233V5.40236V5.40236V5.40239V5.40239V5.40241V5.40243V5.40244V5.40246V5.40247V5.40249V5.4025V5.40253V5.40257V5.4026V5.4026V5.40263V5.40264V5.40266V5.40268V5.4027V5.40273V5.40273V5.40277V5.40281V5.40281V5.40284V5.40286V5.40288V5.40291V5.40292V5.40296V5.40296V5.403V5.403V5.40304V5.40306V5.40308V5.40311V5.40313V5.40316V5.40317V5.40321V5.40322V5.40326V5.40327V5.4033V5.40333V5.40335V5.40339V5.40339V5.40344V5.40345V5.40349V5.40351V5.40354V5.40357V5.40358V5.40363V5.40364V5.40368V5.40371V5.40373V5.40377V5.40379V5.40384V5.40389V5.40391V5.40394V5.40398V5.404V5.40405V5.40406V5.4041V5.40413V5.40416V5.40421V5.40421V5.40427V5.40428V5.40433V5.40436V5.40438V5.40444V5.4045V5.40452V5.40456V5.40461V5.40462V5.40468V5.40469V5.40474V5.40478V5.4048V5.40486V5.40486V5.40492V5.40495V5.40498V5.40504V5.40511V5.40514V5.40517V5.40523V5.4053V5.40532V5.40536V5.40542V5.40549V5.40552V5.40555V5.40562V5.40569V5.40572V5.40575V5.40582V5.40582V5.40589V5.40593V5.40595V5.40602V5.40603V5.40609V5.40614V5.40616V5.40623V5.40625V5.40629V5.40636V5.40643V5.40647V5.4065V5.40657V5.40659V5.40664V5.4067V5.40671V5.40678V5.40682V5.40686V5.40693V5.40694V5.407V5.40706V5.40707V5.40714V5.40718V5.40721V5.40729V5.4073V5.40736V5.40743V5.4075V5.40756V5.40758V5.40765V5.40769V5.40772V5.4078V5.40782V5.40787V5.40794V5.40795V5.40802V5.40808V5.40809V5.40817V5.40822V5.40824V5.40831V5.40835V5.40839V5.40846V5.40849V5.40854V5.40863V5.40869V5.40878V5.40884V5.40892V5.40899V5.40907V5.40914V5.40921V5.40929L10.8778 9.91271ZM10.8778 9.91271L10.8797 9.91508C10.9091 9.95121 10.9386 10.0074 10.9545 10.0726C10.9705 10.1379 10.9676 10.1895 10.9592 10.2203C10.9527 10.2444 10.9442 10.2544 10.9304 10.2639C10.9124 10.2762 10.849 10.3105 10.6955 10.3105H5.94695H1.19838C1.04273 10.3105 0.977513 10.2759 0.958391 10.2629C0.943654 10.2529 0.93525 10.2425 0.928733 10.2189C0.920372 10.1885 0.917338 10.1373 0.933218 10.0723C0.949072 10.0073 0.978433 9.95122 1.00782 9.91508L1.0081 9.91473C1.2412 9.62758 1.49199 9.29979 1.69161 8.94093C1.81704 8.71884 1.86366 8.48395 1.86366 8.26052L1.86366 8.25941L1.8573 5.4154V5.41534V5.41528V5.41524V5.41521V5.41519V5.41515V5.41509V5.41502V5.41499V5.41495V5.41488V5.41481V5.41478V5.41474V5.41467V5.41462V5.4146V5.41457V5.41452V5.41444V5.4144V5.41436V5.41434V5.41428V5.41423V5.4142V5.41417V5.41412V5.41403V5.41399V5.41395V5.41386V5.41381V5.41377V5.41374V5.41368V5.41362V5.41359V5.41356V5.4135V5.41343V5.4134V5.41337V5.4133V5.41324V5.41321V5.41317V5.41311V5.41304V5.41301V5.41297V5.4129V5.41284V5.4128V5.41277V5.41269V5.41264V5.41258V5.4125V5.41248V5.41243V5.41236V5.41229V5.41225V5.41222V5.41214V5.41208V5.41202V5.41194V5.41191V5.41187V5.41179V5.41173V5.41167V5.41158V5.41154V5.41151V5.41142V5.41137V5.4113V5.41122V5.41117V5.41108V5.41104V5.411V5.41091V5.41086V5.41078V5.41071V5.41064V5.41056V5.41051V5.41049V5.41041V5.41037V5.41034V5.41026V5.41023V5.41019V5.41009V5.41004V5.40995V5.40989V5.40981V5.40974V5.40966V5.40959V5.40951V5.40944V5.40936L10.8778 9.91271Z" fill="white" stroke="white"/>
</svg>
