<svg width="30" height="30" viewBox="0 0 30 30" fill="none" xmlns="http://www.w3.org/2000/svg">
<path d="M15 1.45714C22.4657 1.45714 28.5429 7.53429 28.5429 15C28.5429 22.4657 22.4657 28.5429 15 28.5429C7.53429 28.5429 1.45714 22.4657 1.45714 15C1.45714 7.53429 7.53429 1.45714 15 1.45714ZM15 0C6.72 0 0 6.72 0 15C0 23.28 6.72 30 15 30C23.28 30 30 23.28 30 15C30 6.72 23.28 0 15 0Z" fill="black"/>
<path d="M20.7052 9.6846C22.1366 9.6846 23.2937 10.8503 23.2937 12.2732V17.9989C23.2937 19.4303 22.128 20.5875 20.7052 20.5875H9.29661C7.86518 20.5875 6.70804 19.4217 6.70804 17.9989V12.2732C6.70804 10.8417 7.87375 9.6846 9.29661 9.6846H20.7052ZM20.7052 8.57031H9.29661C7.24804 8.57031 5.59375 10.2246 5.59375 12.2732V17.9989C5.59375 20.0475 7.24804 21.7017 9.29661 21.7017H20.7052C22.7538 21.7017 24.408 20.0475 24.408 17.9989V12.2732C24.408 10.2246 22.7452 8.57031 20.7052 8.57031Z" fill="black"/>
<path d="M14.1221 13.4415L16.7021 15.1386L14.1221 16.8358V13.4415ZM13.0078 11.3672V18.9015L18.7335 15.13L13.0078 11.3672Z" fill="black"/>
</svg>
